M48
; DRILL file {KiCad 8.0.6+1} date 2024-12-08T19:19:38+0100
; FORMAT={-:-/ absolute / inch / decimal}
; #@! TF.CreationDate,2024-12-08T19:19:38+01:00
; #@! TF.GenerationSoftware,Kicad,Pcbnew,8.0.6+1
; #@! TF.FileFunction,Plated,1,2,PTH
FMAT,2
INCH
; #@! TA.AperFunction,Plated,PTH,ViaDrill
T1C0.0118
; #@! TA.AperFunction,Plated,PTH,ComponentDrill
T2C0.0315
; #@! TA.AperFunction,Plated,PTH,ComponentDrill
T3C0.0394
; #@! TA.AperFunction,Plated,PTH,ComponentDrill
T4C0.1181
%
G90
G05
T1
X1.437Y-1.6339
X1.5875Y-2.28
X1.7475Y-1.98
X1.7547Y-2.1492
X1.8475Y-1.875
X1.8475Y-2.025
X1.8975Y-1.755
X1.8975Y-1.8792
X1.8975Y-2.025
X1.9475Y-1.755
X1.9475Y-2.025
X2.0975Y-1.61
X2.1175Y-2.29
X2.1625Y-2.025
X2.1775Y-1.945
X2.1875Y-1.89
X2.1975Y-2.025
X2.3075Y-1.54
X2.4475Y-2.35
T2
X1.6575Y-1.77
X1.6575Y-1.97
X1.7575Y-1.87
T3
X1.4275Y-1.7946
X1.4275Y-1.8946
X1.4275Y-1.9946
X1.4275Y-2.0946
X1.5775Y-2.09
X1.6775Y-2.09
X2.3084Y-1.6446
X2.3084Y-1.7446
X2.3084Y-1.8446
X2.3084Y-1.9446
X2.3084Y-2.0446
X2.3084Y-2.1446
X2.3084Y-2.2446
X2.4084Y-1.6446
X2.4084Y-1.7446
X2.4084Y-1.8446
X2.4084Y-1.9446
X2.4084Y-2.0446
X2.4084Y-2.1446
X2.4084Y-2.2446
T4
X2.3675Y-2.4714
X2.3691Y-1.41
M30
