%TF.GenerationSoftware,KiCad,Pcbnew,8.0.6+1*%
%TF.CreationDate,2024-12-08T19:19:35+01:00*%
%TF.ProjectId,8x2 backpack,38783220-6261-4636-9b70-61636b2e6b69,rev?*%
%TF.SameCoordinates,Original*%
%TF.FileFunction,Soldermask,Top*%
%TF.FilePolarity,Negative*%
%FSLAX46Y46*%
G04 Gerber Fmt 4.6, Leading zero omitted, Abs format (unit mm)*
G04 Created by KiCad (PCBNEW 8.0.6+1) date 2024-12-08 19:19:35*
%MOMM*%
%LPD*%
G01*
G04 APERTURE LIST*
G04 Aperture macros list*
%AMRoundRect*
0 Rectangle with rounded corners*
0 $1 Rounding radius*
0 $2 $3 $4 $5 $6 $7 $8 $9 X,Y pos of 4 corners*
0 Add a 4 corners polygon primitive as box body*
4,1,4,$2,$3,$4,$5,$6,$7,$8,$9,$2,$3,0*
0 Add four circle primitives for the rounded corners*
1,1,$1+$1,$2,$3*
1,1,$1+$1,$4,$5*
1,1,$1+$1,$6,$7*
1,1,$1+$1,$8,$9*
0 Add four rect primitives between the rounded corners*
20,1,$1+$1,$2,$3,$4,$5,0*
20,1,$1+$1,$4,$5,$6,$7,0*
20,1,$1+$1,$6,$7,$8,$9,0*
20,1,$1+$1,$8,$9,$2,$3,0*%
G04 Aperture macros list end*
%ADD10R,1.700000X1.700000*%
%ADD11O,1.700000X1.700000*%
%ADD12O,4.500000X4.500000*%
%ADD13RoundRect,0.250000X0.450000X-0.262500X0.450000X0.262500X-0.450000X0.262500X-0.450000X-0.262500X0*%
%ADD14R,1.440000X1.440000*%
%ADD15C,1.440000*%
%ADD16RoundRect,0.150000X0.150000X-0.837500X0.150000X0.837500X-0.150000X0.837500X-0.150000X-0.837500X0*%
G04 APERTURE END LIST*
D10*
%TO.C,J3*%
X42608500Y-53086000D03*
D11*
X40068500Y-53086000D03*
%TD*%
D12*
%TO.C,*%
X60134500Y-62774000D03*
%TD*%
%TO.C,*%
X60174500Y-35814000D03*
%TD*%
D13*
%TO.C,A1*%
X47434500Y-57324000D03*
X47434500Y-55499000D03*
%TD*%
D14*
%TO.C,RV1*%
X42100500Y-50038000D03*
D15*
X44640500Y-47498000D03*
X42100500Y-44958000D03*
%TD*%
D13*
%TO.C,A0*%
X45402500Y-57324000D03*
X45402500Y-55499000D03*
%TD*%
D10*
%TO.C,J2*%
X36258500Y-45584000D03*
D11*
X36258500Y-48124000D03*
X36258500Y-50664000D03*
X36258500Y-53204000D03*
%TD*%
D13*
%TO.C,A2*%
X49466500Y-57324000D03*
X49466500Y-55499000D03*
%TD*%
D16*
%TO.C,U1*%
X46926500Y-52856500D03*
X48196500Y-52856500D03*
X49466500Y-52856500D03*
X50736500Y-52856500D03*
X52006500Y-52856500D03*
X53276500Y-52856500D03*
X54546500Y-52856500D03*
X55816500Y-52856500D03*
X55816500Y-45931500D03*
X54546500Y-45931500D03*
X53276500Y-45931500D03*
X52006500Y-45931500D03*
X50736500Y-45931500D03*
X49466500Y-45931500D03*
X48196500Y-45931500D03*
X46926500Y-45931500D03*
%TD*%
D10*
%TO.C,J1*%
X58634500Y-57014000D03*
D11*
X61174500Y-57014000D03*
X58634500Y-54474000D03*
X61174500Y-54474000D03*
X58634500Y-51934000D03*
X61174500Y-51934000D03*
X58634500Y-49394000D03*
X61174500Y-49394000D03*
X58634500Y-46854000D03*
X61174500Y-46854000D03*
X58634500Y-44314000D03*
X61174500Y-44314000D03*
X58634500Y-41774000D03*
X61174500Y-41774000D03*
%TD*%
M02*
