%TF.GenerationSoftware,KiCad,Pcbnew,8.0.6+1*%
%TF.CreationDate,2024-12-08T19:19:34+01:00*%
%TF.ProjectId,8x2 backpack,38783220-6261-4636-9b70-61636b2e6b69,rev?*%
%TF.SameCoordinates,Original*%
%TF.FileFunction,Copper,L1,Top*%
%TF.FilePolarity,Positive*%
%FSLAX46Y46*%
G04 Gerber Fmt 4.6, Leading zero omitted, Abs format (unit mm)*
G04 Created by KiCad (PCBNEW 8.0.6+1) date 2024-12-08 19:19:34*
%MOMM*%
%LPD*%
G01*
G04 APERTURE LIST*
G04 Aperture macros list*
%AMRoundRect*
0 Rectangle with rounded corners*
0 $1 Rounding radius*
0 $2 $3 $4 $5 $6 $7 $8 $9 X,Y pos of 4 corners*
0 Add a 4 corners polygon primitive as box body*
4,1,4,$2,$3,$4,$5,$6,$7,$8,$9,$2,$3,0*
0 Add four circle primitives for the rounded corners*
1,1,$1+$1,$2,$3*
1,1,$1+$1,$4,$5*
1,1,$1+$1,$6,$7*
1,1,$1+$1,$8,$9*
0 Add four rect primitives between the rounded corners*
20,1,$1+$1,$2,$3,$4,$5,0*
20,1,$1+$1,$4,$5,$6,$7,0*
20,1,$1+$1,$6,$7,$8,$9,0*
20,1,$1+$1,$8,$9,$2,$3,0*%
G04 Aperture macros list end*
%TA.AperFunction,ComponentPad*%
%ADD10R,1.700000X1.700000*%
%TD*%
%TA.AperFunction,ComponentPad*%
%ADD11O,1.700000X1.700000*%
%TD*%
%TA.AperFunction,ComponentPad*%
%ADD12O,4.500000X4.500000*%
%TD*%
%TA.AperFunction,SMDPad,CuDef*%
%ADD13RoundRect,0.250000X0.450000X-0.262500X0.450000X0.262500X-0.450000X0.262500X-0.450000X-0.262500X0*%
%TD*%
%TA.AperFunction,ComponentPad*%
%ADD14R,1.440000X1.440000*%
%TD*%
%TA.AperFunction,ComponentPad*%
%ADD15C,1.440000*%
%TD*%
%TA.AperFunction,SMDPad,CuDef*%
%ADD16RoundRect,0.150000X0.150000X-0.837500X0.150000X0.837500X-0.150000X0.837500X-0.150000X-0.837500X0*%
%TD*%
%TA.AperFunction,ViaPad*%
%ADD17C,0.600000*%
%TD*%
%TA.AperFunction,Conductor*%
%ADD18C,0.500000*%
%TD*%
%TA.AperFunction,Conductor*%
%ADD19C,1.000000*%
%TD*%
%TA.AperFunction,Conductor*%
%ADD20C,0.440000*%
%TD*%
%TA.AperFunction,Conductor*%
%ADD21C,0.350000*%
%TD*%
G04 APERTURE END LIST*
D10*
%TO.P,J3,1,Pin_1*%
%TO.N,Net-(J3-Pin_1)*%
X42608500Y-53086000D03*
D11*
%TO.P,J3,2,Pin_2*%
%TO.N,+5V*%
X40068500Y-53086000D03*
%TD*%
D12*
%TO.P,,2,Pin_2*%
%TO.N,GND*%
X60134500Y-62774000D03*
%TD*%
%TO.P,,2,Pin_2*%
%TO.N,GND*%
X60174500Y-35814000D03*
%TD*%
D13*
%TO.P,A1,1*%
%TO.N,GND*%
X47434500Y-57324000D03*
%TO.P,A1,2*%
%TO.N,Net-(U1-A1)*%
X47434500Y-55499000D03*
%TD*%
D14*
%TO.P,RV1,1,1*%
%TO.N,GND*%
X42100500Y-50038000D03*
D15*
%TO.P,RV1,2,2*%
%TO.N,LCD_3(VO)*%
X44640500Y-47498000D03*
%TO.P,RV1,3,3*%
%TO.N,+5V*%
X42100500Y-44958000D03*
%TD*%
D13*
%TO.P,A0,1*%
%TO.N,GND*%
X45402500Y-57324000D03*
%TO.P,A0,2*%
%TO.N,Net-(U1-A0)*%
X45402500Y-55499000D03*
%TD*%
D10*
%TO.P,J2,1,Pin_1*%
%TO.N,SCL*%
X36258500Y-45584000D03*
D11*
%TO.P,J2,2,Pin_2*%
%TO.N,SDA*%
X36258500Y-48124000D03*
%TO.P,J2,3,Pin_3*%
%TO.N,+5V*%
X36258500Y-50664000D03*
%TO.P,J2,4,Pin_4*%
%TO.N,GND*%
X36258500Y-53204000D03*
%TD*%
D13*
%TO.P,A2,1*%
%TO.N,GND*%
X49466500Y-57324000D03*
%TO.P,A2,2*%
%TO.N,Net-(U1-A2)*%
X49466500Y-55499000D03*
%TD*%
D16*
%TO.P,U1,1,A0*%
%TO.N,Net-(U1-A0)*%
X46926500Y-52856500D03*
%TO.P,U1,2,A1*%
%TO.N,Net-(U1-A1)*%
X48196500Y-52856500D03*
%TO.P,U1,3,A2*%
%TO.N,Net-(U1-A2)*%
X49466500Y-52856500D03*
%TO.P,U1,4,P0*%
%TO.N,LCD_4(RS)*%
X50736500Y-52856500D03*
%TO.P,U1,5,P1*%
%TO.N,LCD_5(RW)*%
X52006500Y-52856500D03*
%TO.P,U1,6,P2*%
%TO.N,LCD_6(CS)*%
X53276500Y-52856500D03*
%TO.P,U1,7,P3*%
%TO.N,Net-(Q1-B)*%
X54546500Y-52856500D03*
%TO.P,U1,8,VSS*%
%TO.N,GND*%
X55816500Y-52856500D03*
%TO.P,U1,9,P4*%
%TO.N,LCD_11(DB4)*%
X55816500Y-45931500D03*
%TO.P,U1,10,P5*%
%TO.N,LCD_12(DB5)*%
X54546500Y-45931500D03*
%TO.P,U1,11,P6*%
%TO.N,LCD_13(DB6)*%
X53276500Y-45931500D03*
%TO.P,U1,12,P7*%
%TO.N,LCD_14(D7)*%
X52006500Y-45931500D03*
%TO.P,U1,13,~{INT}*%
%TO.N,unconnected-(U1-~{INT}-Pad13)*%
X50736500Y-45931500D03*
%TO.P,U1,14,SCL*%
%TO.N,SCL*%
X49466500Y-45931500D03*
%TO.P,U1,15,SDA*%
%TO.N,SDA*%
X48196500Y-45931500D03*
%TO.P,U1,16,VDD*%
%TO.N,+5V*%
X46926500Y-45931500D03*
%TD*%
D10*
%TO.P,J1,1,Pin_1*%
%TO.N,GND*%
X58634500Y-57014000D03*
D11*
%TO.P,J1,2,Pin_2*%
%TO.N,+5V*%
X61174500Y-57014000D03*
%TO.P,J1,3,Pin_3*%
%TO.N,LCD_3(VO)*%
X58634500Y-54474000D03*
%TO.P,J1,4,Pin_4*%
%TO.N,LCD_4(RS)*%
X61174500Y-54474000D03*
%TO.P,J1,5,Pin_5*%
%TO.N,LCD_5(RW)*%
X58634500Y-51934000D03*
%TO.P,J1,6,Pin_6*%
%TO.N,LCD_6(CS)*%
X61174500Y-51934000D03*
%TO.P,J1,7,Pin_7*%
%TO.N,unconnected-(J1-Pin_7-Pad7)*%
X58634500Y-49394000D03*
%TO.P,J1,8,Pin_8*%
%TO.N,unconnected-(J1-Pin_8-Pad8)*%
X61174500Y-49394000D03*
%TO.P,J1,9,Pin_9*%
%TO.N,unconnected-(J1-Pin_9-Pad9)*%
X58634500Y-46854000D03*
%TO.P,J1,10,Pin_10*%
%TO.N,unconnected-(J1-Pin_10-Pad10)*%
X61174500Y-46854000D03*
%TO.P,J1,11,Pin_11*%
%TO.N,LCD_11(DB4)*%
X58634500Y-44314000D03*
%TO.P,J1,12,Pin_12*%
%TO.N,LCD_12(DB5)*%
X61174500Y-44314000D03*
%TO.P,J1,13,Pin_13*%
%TO.N,LCD_13(DB6)*%
X58634500Y-41774000D03*
%TO.P,J1,14,Pin_14*%
%TO.N,LCD_14(D7)*%
X61174500Y-41774000D03*
%TD*%
D17*
%TO.N,GND*%
X55816500Y-51435000D03*
X58610500Y-39116000D03*
X53784500Y-58166000D03*
X44386500Y-50292000D03*
X40322500Y-57912000D03*
X62166500Y-59690000D03*
X55562500Y-48006000D03*
X53276500Y-40894000D03*
X44569887Y-54590737D03*
X36500000Y-41500000D03*
%TO.N,+5V*%
X46926500Y-47625000D03*
%TO.N,LCD_3(VO)*%
X55308500Y-49403000D03*
%TO.N,SCL*%
X49466500Y-44577000D03*
%TO.N,SDA*%
X48196500Y-47730462D03*
X48196500Y-44577000D03*
%TO.N,Net-(Q1-B)*%
X54927500Y-51435000D03*
%TO.N,Net-(U1-A0)*%
X46926500Y-51435000D03*
%TO.N,Net-(U1-A1)*%
X48196500Y-51435000D03*
%TO.N,Net-(U1-A2)*%
X49466500Y-51435000D03*
%TD*%
D18*
%TO.N,GND*%
X55816500Y-52856500D02*
X55816500Y-51435000D01*
D19*
%TO.N,+5V*%
X44894500Y-44958000D02*
X42100500Y-44958000D01*
X36258500Y-50664000D02*
X37646500Y-50664000D01*
X42100500Y-46990000D02*
X38426500Y-50664000D01*
X46672500Y-45931500D02*
X45868000Y-45931500D01*
X42100500Y-44958000D02*
X42100500Y-46990000D01*
X45868000Y-45931500D02*
X44894500Y-44958000D01*
D18*
X46926500Y-47625000D02*
X46926500Y-45931500D01*
D19*
X40068500Y-52451000D02*
X40068500Y-53086000D01*
X38281500Y-50664000D02*
X40068500Y-52451000D01*
X37646500Y-50664000D02*
X38281500Y-50664000D01*
X38426500Y-50664000D02*
X37646500Y-50664000D01*
D18*
%TO.N,LCD_3(VO)*%
X55308500Y-49403000D02*
X46545500Y-49403000D01*
X46545500Y-49403000D02*
X44640500Y-47498000D01*
D20*
%TO.N,LCD_4(RS)*%
X50736500Y-52856500D02*
X50736500Y-54102000D01*
X59904500Y-55744000D02*
X61174500Y-54474000D01*
X50736500Y-54102000D02*
X51879500Y-55245000D01*
X57331500Y-55744000D02*
X59904500Y-55744000D01*
X56832500Y-55245000D02*
X57331500Y-55744000D01*
X51879500Y-55245000D02*
X56832500Y-55245000D01*
%TO.N,LCD_5(RW)*%
X56085500Y-54483000D02*
X58634500Y-51934000D01*
X52387500Y-54483000D02*
X56085500Y-54483000D01*
X52006500Y-54102000D02*
X52387500Y-54483000D01*
D21*
X58126500Y-51934000D02*
X58634500Y-51934000D01*
D20*
X52006500Y-52856500D02*
X52006500Y-54102000D01*
%TO.N,LCD_6(CS)*%
X59904500Y-50664000D02*
X61174500Y-51934000D01*
X53276500Y-51689000D02*
X54301500Y-50664000D01*
X54301500Y-50664000D02*
X59904500Y-50664000D01*
X53276500Y-52856500D02*
X53276500Y-51689000D01*
%TO.N,LCD_11(DB4)*%
X56206500Y-44314000D02*
X58634500Y-44314000D01*
X55816500Y-45931500D02*
X55816500Y-44704000D01*
X55816500Y-44704000D02*
X56206500Y-44314000D01*
%TO.N,LCD_12(DB5)*%
X54546500Y-45931500D02*
X54546500Y-44704000D01*
X54546500Y-44704000D02*
X56206500Y-43044000D01*
X59904500Y-43044000D02*
X61174500Y-44314000D01*
X56206500Y-43044000D02*
X59904500Y-43044000D01*
D21*
X61174500Y-44060000D02*
X61174500Y-44314000D01*
D20*
%TO.N,LCD_13(DB6)*%
X56206500Y-41774000D02*
X58634500Y-41774000D01*
X53276500Y-44704000D02*
X56206500Y-41774000D01*
X53276500Y-45931500D02*
X53276500Y-44704000D01*
%TO.N,LCD_14(D7)*%
X57349500Y-40504000D02*
X56959500Y-40894000D01*
X59904500Y-40504000D02*
X57349500Y-40504000D01*
X55809500Y-40894000D02*
X52006500Y-44697000D01*
X56959500Y-40894000D02*
X55809500Y-40894000D01*
X61174500Y-41774000D02*
X59904500Y-40504000D01*
X52006500Y-44697000D02*
X52006500Y-45931500D01*
D18*
%TO.N,SCL*%
X49466500Y-45931500D02*
X49466500Y-44577000D01*
%TO.N,SDA*%
X48196500Y-45931500D02*
X48196500Y-44577000D01*
X48196500Y-47730462D02*
X48196500Y-45931500D01*
%TO.N,Net-(Q1-B)*%
X54927500Y-51435000D02*
X54546500Y-51816000D01*
X54546500Y-51816000D02*
X54546500Y-52856500D01*
%TO.N,Net-(U1-A0)*%
X45529500Y-55499000D02*
X45402500Y-55499000D01*
X46926500Y-52856500D02*
X46926500Y-54102000D01*
X46926500Y-52856500D02*
X46926500Y-51435000D01*
X46926500Y-54102000D02*
X45529500Y-55499000D01*
%TO.N,Net-(U1-A1)*%
X48196500Y-54737000D02*
X47434500Y-55499000D01*
X48196500Y-52856500D02*
X48196500Y-54737000D01*
X48196500Y-52856500D02*
X48196500Y-51435000D01*
%TO.N,Net-(U1-A2)*%
X49466500Y-52856500D02*
X49466500Y-51435000D01*
X49466500Y-52856500D02*
X49466500Y-55499000D01*
%TD*%
%TA.AperFunction,Conductor*%
%TO.N,GND*%
G36*
X60444190Y-33530813D02*
G01*
X60459051Y-33532617D01*
X60717438Y-33579968D01*
X60731963Y-33583549D01*
X60982751Y-33661698D01*
X60996742Y-33667003D01*
X61236298Y-33774818D01*
X61249544Y-33781771D01*
X61474352Y-33917672D01*
X61486663Y-33926170D01*
X61693449Y-34088176D01*
X61704657Y-34098106D01*
X61890393Y-34283842D01*
X61900323Y-34295050D01*
X62062325Y-34501830D01*
X62070829Y-34514150D01*
X62102330Y-34566259D01*
X62206725Y-34738949D01*
X62213684Y-34752208D01*
X62321494Y-34991752D01*
X62326803Y-35005753D01*
X62404948Y-35256529D01*
X62408532Y-35271068D01*
X62455881Y-35529447D01*
X62457686Y-35544311D01*
X62473774Y-35810263D01*
X62474000Y-35817750D01*
X62474000Y-41416354D01*
X62454315Y-41483393D01*
X62401511Y-41529148D01*
X62332353Y-41539092D01*
X62268797Y-41510067D01*
X62231023Y-41451289D01*
X62230734Y-41450288D01*
X62208830Y-41373303D01*
X62208827Y-41373297D01*
X62151489Y-41258148D01*
X62117588Y-41190065D01*
X61994232Y-41026715D01*
X61994230Y-41026712D01*
X61842962Y-40888814D01*
X61842960Y-40888812D01*
X61668930Y-40781057D01*
X61668924Y-40781054D01*
X61518493Y-40722777D01*
X61478056Y-40707112D01*
X61276847Y-40669500D01*
X61072153Y-40669500D01*
X60871447Y-40707018D01*
X60870928Y-40707115D01*
X60869165Y-40707617D01*
X60868286Y-40707609D01*
X60865309Y-40708166D01*
X60865200Y-40707583D01*
X60799298Y-40707018D01*
X60747570Y-40676026D01*
X60195851Y-40124307D01*
X60195846Y-40124303D01*
X60087652Y-40061838D01*
X60087651Y-40061837D01*
X60047423Y-40051058D01*
X59966969Y-40029500D01*
X57411968Y-40029500D01*
X57287031Y-40029500D01*
X57226690Y-40045668D01*
X57166348Y-40061837D01*
X57166347Y-40061838D01*
X57058153Y-40124303D01*
X57058148Y-40124307D01*
X56799275Y-40383181D01*
X56737952Y-40416666D01*
X56711594Y-40419500D01*
X55871969Y-40419500D01*
X55747031Y-40419500D01*
X55686690Y-40435668D01*
X55626348Y-40451837D01*
X55626347Y-40451838D01*
X55518153Y-40514303D01*
X55518148Y-40514307D01*
X51626807Y-44405648D01*
X51626803Y-44405653D01*
X51564338Y-44513847D01*
X51564337Y-44513848D01*
X51532000Y-44634532D01*
X51532000Y-44810110D01*
X51518485Y-44866404D01*
X51488488Y-44925278D01*
X51481985Y-44938040D01*
X51434010Y-44988836D01*
X51366189Y-45005631D01*
X51300054Y-44983094D01*
X51261016Y-44938041D01*
X51248212Y-44912912D01*
X51217826Y-44853277D01*
X51217823Y-44853274D01*
X51217821Y-44853271D01*
X51127228Y-44762678D01*
X51127225Y-44762676D01*
X51127223Y-44762674D01*
X51013055Y-44704502D01*
X51013054Y-44704501D01*
X51013051Y-44704500D01*
X51013052Y-44704500D01*
X50918339Y-44689500D01*
X50918334Y-44689500D01*
X50554666Y-44689500D01*
X50554661Y-44689500D01*
X50459947Y-44704500D01*
X50383833Y-44743283D01*
X50345777Y-44762674D01*
X50345776Y-44762675D01*
X50345771Y-44762678D01*
X50255178Y-44853271D01*
X50255173Y-44853278D01*
X50211984Y-44938041D01*
X50164010Y-44988836D01*
X50096189Y-45005631D01*
X50030054Y-44983093D01*
X49991013Y-44938036D01*
X49984513Y-44925278D01*
X49971000Y-44868987D01*
X49971000Y-44832673D01*
X49980439Y-44785220D01*
X49988000Y-44766966D01*
X50006728Y-44721754D01*
X50022266Y-44603731D01*
X50025785Y-44577001D01*
X50025785Y-44576998D01*
X50008231Y-44443660D01*
X50006728Y-44432246D01*
X49950855Y-44297358D01*
X49861974Y-44181526D01*
X49746143Y-44092645D01*
X49746140Y-44092644D01*
X49746138Y-44092642D01*
X49611257Y-44036773D01*
X49611252Y-44036771D01*
X49466501Y-44017715D01*
X49466499Y-44017715D01*
X49321747Y-44036771D01*
X49321745Y-44036772D01*
X49186861Y-44092643D01*
X49186858Y-44092644D01*
X49186858Y-44092645D01*
X49071026Y-44181526D01*
X48988275Y-44289370D01*
X48982143Y-44297361D01*
X48946061Y-44384471D01*
X48902220Y-44438874D01*
X48835926Y-44460939D01*
X48768226Y-44443660D01*
X48720616Y-44392522D01*
X48716939Y-44384471D01*
X48680856Y-44297361D01*
X48680855Y-44297358D01*
X48591974Y-44181526D01*
X48476143Y-44092645D01*
X48476140Y-44092644D01*
X48476138Y-44092642D01*
X48341257Y-44036773D01*
X48341252Y-44036771D01*
X48196501Y-44017715D01*
X48196499Y-44017715D01*
X48051747Y-44036771D01*
X48051745Y-44036772D01*
X47916861Y-44092643D01*
X47916858Y-44092644D01*
X47916858Y-44092645D01*
X47801026Y-44181526D01*
X47718275Y-44289370D01*
X47712143Y-44297361D01*
X47656272Y-44432245D01*
X47656271Y-44432247D01*
X47637215Y-44576998D01*
X47637215Y-44577001D01*
X47656271Y-44721752D01*
X47656272Y-44721754D01*
X47673223Y-44762678D01*
X47682561Y-44785220D01*
X47692000Y-44832673D01*
X47692000Y-44868987D01*
X47678483Y-44925285D01*
X47671982Y-44938043D01*
X47624006Y-44988838D01*
X47556185Y-45005631D01*
X47490051Y-44983092D01*
X47451017Y-44938043D01*
X47407826Y-44853277D01*
X47407824Y-44853275D01*
X47407821Y-44853271D01*
X47317228Y-44762678D01*
X47317225Y-44762676D01*
X47317223Y-44762674D01*
X47203055Y-44704502D01*
X47203054Y-44704501D01*
X47203051Y-44704500D01*
X47203052Y-44704500D01*
X47108339Y-44689500D01*
X47108334Y-44689500D01*
X46744666Y-44689500D01*
X46744661Y-44689500D01*
X46649947Y-44704500D01*
X46573833Y-44743283D01*
X46535777Y-44762674D01*
X46535776Y-44762675D01*
X46535771Y-44762678D01*
X46445178Y-44853271D01*
X46445176Y-44853275D01*
X46445174Y-44853277D01*
X46431524Y-44880067D01*
X46387000Y-44967447D01*
X46372001Y-45062152D01*
X46371957Y-45062716D01*
X46371880Y-45062917D01*
X46371237Y-45066978D01*
X46370384Y-45066842D01*
X46347080Y-45128007D01*
X46290853Y-45169484D01*
X46248338Y-45177000D01*
X46231886Y-45177000D01*
X46164847Y-45157315D01*
X46144205Y-45140681D01*
X45375469Y-44371943D01*
X45375468Y-44371942D01*
X45293698Y-44317306D01*
X45251889Y-44289370D01*
X45251886Y-44289368D01*
X45251885Y-44289368D01*
X45160537Y-44251531D01*
X45160535Y-44251530D01*
X45114584Y-44232496D01*
X45114580Y-44232495D01*
X45090394Y-44227684D01*
X44968814Y-44203499D01*
X44968812Y-44203499D01*
X44820188Y-44203499D01*
X44814074Y-44203499D01*
X44814054Y-44203500D01*
X42761621Y-44203500D01*
X42694582Y-44183815D01*
X42682956Y-44175353D01*
X42644524Y-44143812D01*
X42644521Y-44143810D01*
X42475233Y-44053324D01*
X42291533Y-43997599D01*
X42100500Y-43978785D01*
X41909466Y-43997599D01*
X41725766Y-44053324D01*
X41556478Y-44143810D01*
X41556475Y-44143812D01*
X41408089Y-44265589D01*
X41286312Y-44413975D01*
X41286310Y-44413978D01*
X41195824Y-44583266D01*
X41140099Y-44766966D01*
X41121285Y-44958000D01*
X41140099Y-45149033D01*
X41195824Y-45332733D01*
X41286310Y-45502021D01*
X41286312Y-45502024D01*
X41317853Y-45540456D01*
X41345166Y-45604766D01*
X41346000Y-45619121D01*
X41346000Y-46626113D01*
X41326315Y-46693152D01*
X41309681Y-46713794D01*
X38150294Y-49873181D01*
X38088971Y-49906666D01*
X38062613Y-49909500D01*
X37118356Y-49909500D01*
X37051317Y-49889815D01*
X37034818Y-49877137D01*
X36926962Y-49778814D01*
X36926960Y-49778812D01*
X36752930Y-49671057D01*
X36752924Y-49671054D01*
X36563873Y-49597816D01*
X36562056Y-49597112D01*
X36360847Y-49559500D01*
X36156153Y-49559500D01*
X35954944Y-49597112D01*
X35954941Y-49597112D01*
X35954941Y-49597113D01*
X35764075Y-49671054D01*
X35764069Y-49671057D01*
X35590039Y-49778812D01*
X35590037Y-49778814D01*
X35438769Y-49916712D01*
X35315412Y-50080064D01*
X35224173Y-50263295D01*
X35224172Y-50263299D01*
X35174466Y-50438000D01*
X35168154Y-50460183D01*
X35149268Y-50663999D01*
X35149268Y-50664000D01*
X35168154Y-50867816D01*
X35168154Y-50867818D01*
X35168155Y-50867821D01*
X35205788Y-51000086D01*
X35224173Y-51064704D01*
X35315412Y-51247935D01*
X35438769Y-51411287D01*
X35590037Y-51549185D01*
X35590039Y-51549187D01*
X35764069Y-51656942D01*
X35764071Y-51656943D01*
X35764073Y-51656944D01*
X35764076Y-51656945D01*
X35764078Y-51656946D01*
X35840237Y-51686450D01*
X35895639Y-51729023D01*
X35919230Y-51794789D01*
X35903519Y-51862870D01*
X35853496Y-51911649D01*
X35827540Y-51921851D01*
X35795019Y-51930565D01*
X35795007Y-51930570D01*
X35580922Y-52030399D01*
X35580920Y-52030400D01*
X35387426Y-52165886D01*
X35387420Y-52165891D01*
X35220391Y-52332920D01*
X35220386Y-52332926D01*
X35084900Y-52526420D01*
X35084899Y-52526422D01*
X34985070Y-52740507D01*
X34985067Y-52740513D01*
X34927864Y-52953999D01*
X34927864Y-52954000D01*
X35825488Y-52954000D01*
X35792575Y-53011007D01*
X35758500Y-53138174D01*
X35758500Y-53269826D01*
X35792575Y-53396993D01*
X35825488Y-53454000D01*
X34927864Y-53454000D01*
X34985067Y-53667486D01*
X34985070Y-53667492D01*
X35084899Y-53881578D01*
X35220394Y-54075082D01*
X35387417Y-54242105D01*
X35580921Y-54377600D01*
X35795007Y-54477429D01*
X35795016Y-54477433D01*
X36008500Y-54534634D01*
X36008500Y-53637012D01*
X36065507Y-53669925D01*
X36192674Y-53704000D01*
X36324326Y-53704000D01*
X36451493Y-53669925D01*
X36508500Y-53637012D01*
X36508500Y-54534633D01*
X36721983Y-54477433D01*
X36721992Y-54477429D01*
X36936078Y-54377600D01*
X37129582Y-54242105D01*
X37296605Y-54075082D01*
X37432100Y-53881578D01*
X37531929Y-53667492D01*
X37531932Y-53667486D01*
X37589136Y-53454000D01*
X36691512Y-53454000D01*
X36724425Y-53396993D01*
X36758500Y-53269826D01*
X36758500Y-53138174D01*
X36724425Y-53011007D01*
X36691512Y-52954000D01*
X37589136Y-52954000D01*
X37589135Y-52953999D01*
X37531932Y-52740513D01*
X37531929Y-52740507D01*
X37432100Y-52526422D01*
X37432099Y-52526420D01*
X37296613Y-52332926D01*
X37296608Y-52332920D01*
X37129582Y-52165894D01*
X36936078Y-52030399D01*
X36721992Y-51930570D01*
X36721977Y-51930564D01*
X36689460Y-51921851D01*
X36629800Y-51885486D01*
X36599272Y-51822638D01*
X36607567Y-51753263D01*
X36652053Y-51699386D01*
X36676757Y-51686452D01*
X36752927Y-51656944D01*
X36926962Y-51549186D01*
X37030478Y-51454819D01*
X37034818Y-51450863D01*
X37097622Y-51420246D01*
X37118356Y-51418500D01*
X37572188Y-51418500D01*
X37917613Y-51418500D01*
X37984652Y-51438185D01*
X38005294Y-51454819D01*
X38531976Y-51981501D01*
X39038100Y-52487624D01*
X39071585Y-52548947D01*
X39066601Y-52618639D01*
X39061420Y-52630575D01*
X39034174Y-52685294D01*
X39034171Y-52685300D01*
X38978154Y-52882183D01*
X38959268Y-53085999D01*
X38959268Y-53086000D01*
X38978154Y-53289816D01*
X38978154Y-53289818D01*
X38978155Y-53289821D01*
X39033115Y-53482986D01*
X39034173Y-53486704D01*
X39125412Y-53669935D01*
X39248769Y-53833287D01*
X39400037Y-53971185D01*
X39400039Y-53971187D01*
X39574069Y-54078942D01*
X39574075Y-54078945D01*
X39614510Y-54094609D01*
X39764944Y-54152888D01*
X39966153Y-54190500D01*
X39966156Y-54190500D01*
X40170844Y-54190500D01*
X40170847Y-54190500D01*
X40372056Y-54152888D01*
X40562927Y-54078944D01*
X40736962Y-53971186D01*
X40888232Y-53833285D01*
X41011588Y-53669935D01*
X41102828Y-53486701D01*
X41158845Y-53289821D01*
X41177732Y-53086000D01*
X41158845Y-52882179D01*
X41102828Y-52685299D01*
X41011588Y-52502065D01*
X40888232Y-52338715D01*
X40888229Y-52338712D01*
X40888225Y-52338707D01*
X40828401Y-52284170D01*
X40797924Y-52235892D01*
X40796337Y-52236550D01*
X40791697Y-52225350D01*
X40791694Y-52225343D01*
X40791026Y-52223731D01*
X40785723Y-52210928D01*
X41504000Y-52210928D01*
X41504000Y-53961063D01*
X41518766Y-54035301D01*
X41575015Y-54119484D01*
X41608734Y-54142014D01*
X41659199Y-54175734D01*
X41659202Y-54175734D01*
X41659203Y-54175735D01*
X41684166Y-54180700D01*
X41733433Y-54190500D01*
X43483566Y-54190499D01*
X43557801Y-54175734D01*
X43641984Y-54119484D01*
X43698234Y-54035301D01*
X43713000Y-53961067D01*
X43712999Y-52210934D01*
X43698234Y-52136699D01*
X43669443Y-52093611D01*
X43641984Y-52052515D01*
X43591519Y-52018796D01*
X43557801Y-51996266D01*
X43557799Y-51996265D01*
X43557796Y-51996264D01*
X43483569Y-51981500D01*
X41733436Y-51981500D01*
X41659198Y-51996266D01*
X41575015Y-52052515D01*
X41518766Y-52136699D01*
X41518764Y-52136703D01*
X41504000Y-52210928D01*
X40785723Y-52210928D01*
X40752684Y-52131163D01*
X40737130Y-52093611D01*
X40737128Y-52093608D01*
X40737127Y-52093605D01*
X40709672Y-52052517D01*
X40709671Y-52052515D01*
X40654560Y-51970035D01*
X40654554Y-51970028D01*
X40545147Y-51860621D01*
X40545124Y-51860600D01*
X39508704Y-50824180D01*
X39475219Y-50762857D01*
X39480203Y-50693165D01*
X39508700Y-50648823D01*
X40668820Y-49488703D01*
X40730142Y-49455219D01*
X40799834Y-49460203D01*
X40855767Y-49502075D01*
X40880184Y-49567539D01*
X40880500Y-49576385D01*
X40880500Y-49788000D01*
X41784814Y-49788000D01*
X41780420Y-49792394D01*
X41727759Y-49883606D01*
X41700500Y-49985339D01*
X41700500Y-50090661D01*
X41727759Y-50192394D01*
X41780420Y-50283606D01*
X41784814Y-50288000D01*
X40880500Y-50288000D01*
X40880500Y-50805844D01*
X40886901Y-50865372D01*
X40886903Y-50865379D01*
X40937145Y-51000086D01*
X40937149Y-51000093D01*
X41023309Y-51115187D01*
X41023312Y-51115190D01*
X41138406Y-51201350D01*
X41138413Y-51201354D01*
X41273120Y-51251596D01*
X41273127Y-51251598D01*
X41332655Y-51257999D01*
X41332672Y-51258000D01*
X41850500Y-51258000D01*
X41850500Y-50353686D01*
X41854894Y-50358080D01*
X41946106Y-50410741D01*
X42047839Y-50438000D01*
X42153161Y-50438000D01*
X42254894Y-50410741D01*
X42346106Y-50358080D01*
X42350500Y-50353686D01*
X42350500Y-51258000D01*
X42868328Y-51258000D01*
X42868344Y-51257999D01*
X42927872Y-51251598D01*
X42927879Y-51251596D01*
X43062586Y-51201354D01*
X43062593Y-51201350D01*
X43177687Y-51115190D01*
X43177690Y-51115187D01*
X43263850Y-51000093D01*
X43263854Y-51000086D01*
X43314096Y-50865379D01*
X43314098Y-50865372D01*
X43320499Y-50805844D01*
X43320500Y-50805827D01*
X43320500Y-50288000D01*
X42416186Y-50288000D01*
X42420580Y-50283606D01*
X42473241Y-50192394D01*
X42500500Y-50090661D01*
X42500500Y-49985339D01*
X42473241Y-49883606D01*
X42420580Y-49792394D01*
X42416186Y-49788000D01*
X43320500Y-49788000D01*
X43320500Y-49270172D01*
X43320499Y-49270155D01*
X43314098Y-49210627D01*
X43314096Y-49210620D01*
X43263854Y-49075913D01*
X43263850Y-49075906D01*
X43177690Y-48960812D01*
X43177687Y-48960809D01*
X43062593Y-48874649D01*
X43062586Y-48874645D01*
X42927879Y-48824403D01*
X42927872Y-48824401D01*
X42868344Y-48818000D01*
X42350500Y-48818000D01*
X42350500Y-49722314D01*
X42346106Y-49717920D01*
X42254894Y-49665259D01*
X42153161Y-49638000D01*
X42047839Y-49638000D01*
X41946106Y-49665259D01*
X41854894Y-49717920D01*
X41850500Y-49722314D01*
X41850500Y-48818000D01*
X41638885Y-48818000D01*
X41571846Y-48798315D01*
X41526091Y-48745511D01*
X41516147Y-48676353D01*
X41545172Y-48612797D01*
X41551204Y-48606319D01*
X42048169Y-48109354D01*
X42581463Y-47576060D01*
X42581466Y-47576059D01*
X42686559Y-47470966D01*
X42769129Y-47347390D01*
X42769130Y-47347389D01*
X42769133Y-47347385D01*
X42826003Y-47210083D01*
X42826005Y-47210079D01*
X42843274Y-47123266D01*
X42855001Y-47064314D01*
X42855001Y-46910578D01*
X42855000Y-46910552D01*
X42855000Y-45836500D01*
X42874685Y-45769461D01*
X42927489Y-45723706D01*
X42979000Y-45712500D01*
X44530613Y-45712500D01*
X44597652Y-45732185D01*
X44618294Y-45748819D01*
X45277600Y-46408124D01*
X45277621Y-46408147D01*
X45387031Y-46517557D01*
X45417029Y-46537601D01*
X45417028Y-46537601D01*
X45510600Y-46600123D01*
X45510604Y-46600125D01*
X45510611Y-46600130D01*
X45552508Y-46617484D01*
X45647920Y-46657005D01*
X45647922Y-46657005D01*
X45647924Y-46657006D01*
X45672104Y-46661815D01*
X45672110Y-46661816D01*
X45793686Y-46686001D01*
X45793688Y-46686001D01*
X45948426Y-46686001D01*
X45948446Y-46686000D01*
X46248338Y-46686000D01*
X46315377Y-46705685D01*
X46361132Y-46758489D01*
X46370868Y-46796080D01*
X46371237Y-46796022D01*
X46371841Y-46799837D01*
X46371957Y-46800284D01*
X46372001Y-46800847D01*
X46387000Y-46895551D01*
X46387001Y-46895554D01*
X46387002Y-46895555D01*
X46408484Y-46937716D01*
X46422000Y-46994010D01*
X46422000Y-47369325D01*
X46412561Y-47416777D01*
X46386273Y-47480242D01*
X46386271Y-47480247D01*
X46367215Y-47624998D01*
X46367215Y-47625001D01*
X46386271Y-47769752D01*
X46386273Y-47769757D01*
X46442142Y-47904638D01*
X46442145Y-47904644D01*
X46531025Y-48020473D01*
X46531026Y-48020474D01*
X46646855Y-48109354D01*
X46646861Y-48109357D01*
X46686887Y-48125936D01*
X46781746Y-48165228D01*
X46854123Y-48174756D01*
X46926499Y-48184285D01*
X46926500Y-48184285D01*
X46926501Y-48184285D01*
X46974751Y-48177932D01*
X47071254Y-48165228D01*
X47206143Y-48109355D01*
X47321974Y-48020474D01*
X47410855Y-47904643D01*
X47425097Y-47870259D01*
X47468937Y-47815857D01*
X47535231Y-47793791D01*
X47602930Y-47811069D01*
X47650541Y-47862206D01*
X47654219Y-47870260D01*
X47712142Y-48010100D01*
X47712145Y-48010106D01*
X47801025Y-48125935D01*
X47801026Y-48125936D01*
X47916855Y-48214816D01*
X47916861Y-48214819D01*
X47984301Y-48242753D01*
X48051746Y-48270690D01*
X48124123Y-48280218D01*
X48196499Y-48289747D01*
X48196500Y-48289747D01*
X48196501Y-48289747D01*
X48244751Y-48283394D01*
X48341254Y-48270690D01*
X48476143Y-48214817D01*
X48591974Y-48125936D01*
X48680855Y-48010105D01*
X48736728Y-47875216D01*
X48754636Y-47739187D01*
X48755785Y-47730463D01*
X48755785Y-47730460D01*
X48736728Y-47585709D01*
X48736726Y-47585704D01*
X48732731Y-47576060D01*
X48717822Y-47540064D01*
X48710439Y-47522239D01*
X48701000Y-47474787D01*
X48701000Y-46994010D01*
X48714512Y-46937722D01*
X48721015Y-46924959D01*
X48768985Y-46874165D01*
X48836806Y-46857368D01*
X48902941Y-46879903D01*
X48941983Y-46924958D01*
X48985173Y-47009721D01*
X48985178Y-47009728D01*
X49075771Y-47100321D01*
X49075773Y-47100322D01*
X49075777Y-47100326D01*
X49189945Y-47158498D01*
X49189946Y-47158498D01*
X49189948Y-47158499D01*
X49189947Y-47158499D01*
X49284661Y-47173500D01*
X49284666Y-47173500D01*
X49648339Y-47173500D01*
X49743052Y-47158499D01*
X49743053Y-47158498D01*
X49743055Y-47158498D01*
X49857223Y-47100326D01*
X49947826Y-47009723D01*
X49991016Y-46924957D01*
X50038990Y-46874163D01*
X50106811Y-46857368D01*
X50172946Y-46879906D01*
X50211983Y-46924956D01*
X50255174Y-47009723D01*
X50255176Y-47009725D01*
X50255178Y-47009728D01*
X50345771Y-47100321D01*
X50345773Y-47100322D01*
X50345777Y-47100326D01*
X50459945Y-47158498D01*
X50459946Y-47158498D01*
X50459948Y-47158499D01*
X50459947Y-47158499D01*
X50554661Y-47173500D01*
X50554666Y-47173500D01*
X50918339Y-47173500D01*
X51013052Y-47158499D01*
X51013053Y-47158498D01*
X51013055Y-47158498D01*
X51127223Y-47100326D01*
X51217826Y-47009723D01*
X51261016Y-46924957D01*
X51308990Y-46874163D01*
X51376811Y-46857368D01*
X51442946Y-46879906D01*
X51481983Y-46924956D01*
X51525174Y-47009723D01*
X51525176Y-47009725D01*
X51525178Y-47009728D01*
X51615771Y-47100321D01*
X51615773Y-47100322D01*
X51615777Y-47100326D01*
X51729945Y-47158498D01*
X51729946Y-47158498D01*
X51729948Y-47158499D01*
X51729947Y-47158499D01*
X51824661Y-47173500D01*
X51824666Y-47173500D01*
X52188339Y-47173500D01*
X52283052Y-47158499D01*
X52283053Y-47158498D01*
X52283055Y-47158498D01*
X52397223Y-47100326D01*
X52487826Y-47009723D01*
X52531016Y-46924957D01*
X52578990Y-46874163D01*
X52646811Y-46857368D01*
X52712946Y-46879906D01*
X52751983Y-46924956D01*
X52795174Y-47009723D01*
X52795176Y-47009725D01*
X52795178Y-47009728D01*
X52885771Y-47100321D01*
X52885773Y-47100322D01*
X52885777Y-47100326D01*
X52999945Y-47158498D01*
X52999946Y-47158498D01*
X52999948Y-47158499D01*
X52999947Y-47158499D01*
X53094661Y-47173500D01*
X53094666Y-47173500D01*
X53458339Y-47173500D01*
X53553052Y-47158499D01*
X53553053Y-47158498D01*
X53553055Y-47158498D01*
X53667223Y-47100326D01*
X53757826Y-47009723D01*
X53801016Y-46924957D01*
X53848990Y-46874163D01*
X53916811Y-46857368D01*
X53982946Y-46879906D01*
X54021983Y-46924956D01*
X54065174Y-47009723D01*
X54065176Y-47009725D01*
X54065178Y-47009728D01*
X54155771Y-47100321D01*
X54155773Y-47100322D01*
X54155777Y-47100326D01*
X54269945Y-47158498D01*
X54269946Y-47158498D01*
X54269948Y-47158499D01*
X54269947Y-47158499D01*
X54364661Y-47173500D01*
X54364666Y-47173500D01*
X54728339Y-47173500D01*
X54823052Y-47158499D01*
X54823053Y-47158498D01*
X54823055Y-47158498D01*
X54937223Y-47100326D01*
X55027826Y-47009723D01*
X55071016Y-46924957D01*
X55118990Y-46874163D01*
X55186811Y-46857368D01*
X55252946Y-46879906D01*
X55291983Y-46924956D01*
X55335174Y-47009723D01*
X55335176Y-47009725D01*
X55335178Y-47009728D01*
X55425771Y-47100321D01*
X55425773Y-47100322D01*
X55425777Y-47100326D01*
X55539945Y-47158498D01*
X55539946Y-47158498D01*
X55539948Y-47158499D01*
X55539947Y-47158499D01*
X55634661Y-47173500D01*
X55634666Y-47173500D01*
X55998339Y-47173500D01*
X56093052Y-47158499D01*
X56093053Y-47158498D01*
X56093055Y-47158498D01*
X56207223Y-47100326D01*
X56297826Y-47009723D01*
X56355998Y-46895555D01*
X56355998Y-46895553D01*
X56355999Y-46895552D01*
X56362580Y-46853999D01*
X57525268Y-46853999D01*
X57525268Y-46854000D01*
X57544154Y-47057816D01*
X57544154Y-47057818D01*
X57544155Y-47057821D01*
X57578267Y-47177711D01*
X57600173Y-47254704D01*
X57691412Y-47437935D01*
X57814769Y-47601287D01*
X57911025Y-47689035D01*
X57958066Y-47731919D01*
X57966037Y-47739185D01*
X57966039Y-47739187D01*
X58140069Y-47846942D01*
X58140075Y-47846945D01*
X58179469Y-47862206D01*
X58330944Y-47920888D01*
X58532153Y-47958500D01*
X58532156Y-47958500D01*
X58736844Y-47958500D01*
X58736847Y-47958500D01*
X58938056Y-47920888D01*
X59128927Y-47846944D01*
X59302962Y-47739186D01*
X59454232Y-47601285D01*
X59577588Y-47437935D01*
X59668828Y-47254701D01*
X59724845Y-47057821D01*
X59743732Y-46854000D01*
X59724845Y-46650179D01*
X59668828Y-46453299D01*
X59577588Y-46270065D01*
X59454232Y-46106715D01*
X59454230Y-46106712D01*
X59302962Y-45968814D01*
X59302960Y-45968812D01*
X59128930Y-45861057D01*
X59128924Y-45861054D01*
X58978493Y-45802777D01*
X58938056Y-45787112D01*
X58736847Y-45749500D01*
X58532153Y-45749500D01*
X58330944Y-45787112D01*
X58330941Y-45787112D01*
X58330941Y-45787113D01*
X58140075Y-45861054D01*
X58140069Y-45861057D01*
X57966039Y-45968812D01*
X57966037Y-45968814D01*
X57814769Y-46106712D01*
X57691412Y-46270064D01*
X57600173Y-46453295D01*
X57581540Y-46518785D01*
X57553458Y-46617484D01*
X57544154Y-46650183D01*
X57525268Y-46853999D01*
X56362580Y-46853999D01*
X56371000Y-46800839D01*
X56371000Y-45062160D01*
X56355999Y-44967447D01*
X56352983Y-44958166D01*
X56354591Y-44957643D01*
X56343788Y-44900133D01*
X56370061Y-44835391D01*
X56427165Y-44795130D01*
X56467170Y-44788500D01*
X57560143Y-44788500D01*
X57627182Y-44808185D01*
X57671142Y-44857228D01*
X57675712Y-44866405D01*
X57691412Y-44897936D01*
X57814769Y-45061287D01*
X57966037Y-45199185D01*
X57966039Y-45199187D01*
X58140069Y-45306942D01*
X58140075Y-45306945D01*
X58180510Y-45322609D01*
X58330944Y-45380888D01*
X58532153Y-45418500D01*
X58532156Y-45418500D01*
X58736844Y-45418500D01*
X58736847Y-45418500D01*
X58938056Y-45380888D01*
X59128927Y-45306944D01*
X59302962Y-45199186D01*
X59454232Y-45061285D01*
X59577588Y-44897935D01*
X59668828Y-44714701D01*
X59724845Y-44517821D01*
X59743732Y-44314000D01*
X59741449Y-44289368D01*
X59735734Y-44227685D01*
X59724845Y-44110179D01*
X59668828Y-43913299D01*
X59577588Y-43730065D01*
X59577587Y-43730064D01*
X59577291Y-43729469D01*
X59565030Y-43660684D01*
X59591903Y-43596189D01*
X59649378Y-43556461D01*
X59719209Y-43554113D01*
X59775972Y-43586516D01*
X60080357Y-43890901D01*
X60113842Y-43952224D01*
X60111942Y-44012516D01*
X60084155Y-44110176D01*
X60084154Y-44110179D01*
X60065268Y-44313999D01*
X60065268Y-44314000D01*
X60084154Y-44517816D01*
X60084154Y-44517818D01*
X60084155Y-44517821D01*
X60138531Y-44708933D01*
X60140173Y-44714704D01*
X60231412Y-44897935D01*
X60354769Y-45061287D01*
X60506037Y-45199185D01*
X60506039Y-45199187D01*
X60680069Y-45306942D01*
X60680075Y-45306945D01*
X60720510Y-45322609D01*
X60870944Y-45380888D01*
X61072153Y-45418500D01*
X61072156Y-45418500D01*
X61276844Y-45418500D01*
X61276847Y-45418500D01*
X61478056Y-45380888D01*
X61668927Y-45306944D01*
X61842962Y-45199186D01*
X61994232Y-45061285D01*
X62117588Y-44897935D01*
X62208828Y-44714701D01*
X62230733Y-44637709D01*
X62268013Y-44578618D01*
X62331322Y-44549060D01*
X62400562Y-44558422D01*
X62453748Y-44603731D01*
X62473996Y-44670603D01*
X62474000Y-44671645D01*
X62474000Y-46496354D01*
X62454315Y-46563393D01*
X62401511Y-46609148D01*
X62332353Y-46619092D01*
X62268797Y-46590067D01*
X62231023Y-46531289D01*
X62230734Y-46530288D01*
X62208830Y-46453303D01*
X62208827Y-46453297D01*
X62208826Y-46453295D01*
X62117588Y-46270065D01*
X61994232Y-46106715D01*
X61994230Y-46106712D01*
X61842962Y-45968814D01*
X61842960Y-45968812D01*
X61668930Y-45861057D01*
X61668924Y-45861054D01*
X61518493Y-45802777D01*
X61478056Y-45787112D01*
X61276847Y-45749500D01*
X61072153Y-45749500D01*
X60870944Y-45787112D01*
X60870941Y-45787112D01*
X60870941Y-45787113D01*
X60680075Y-45861054D01*
X60680069Y-45861057D01*
X60506039Y-45968812D01*
X60506037Y-45968814D01*
X60354769Y-46106712D01*
X60231412Y-46270064D01*
X60140173Y-46453295D01*
X60121540Y-46518785D01*
X60093458Y-46617484D01*
X60084154Y-46650183D01*
X60065268Y-46853999D01*
X60065268Y-46854000D01*
X60084154Y-47057816D01*
X60084154Y-47057818D01*
X60084155Y-47057821D01*
X60118267Y-47177711D01*
X60140173Y-47254704D01*
X60231412Y-47437935D01*
X60354769Y-47601287D01*
X60451025Y-47689035D01*
X60498066Y-47731919D01*
X60506037Y-47739185D01*
X60506039Y-47739187D01*
X60680069Y-47846942D01*
X60680075Y-47846945D01*
X60719469Y-47862206D01*
X60870944Y-47920888D01*
X61072153Y-47958500D01*
X61072156Y-47958500D01*
X61276844Y-47958500D01*
X61276847Y-47958500D01*
X61478056Y-47920888D01*
X61668927Y-47846944D01*
X61842962Y-47739186D01*
X61994232Y-47601285D01*
X62117588Y-47437935D01*
X62208828Y-47254701D01*
X62230733Y-47177709D01*
X62268013Y-47118618D01*
X62331322Y-47089060D01*
X62400562Y-47098422D01*
X62453748Y-47143731D01*
X62473996Y-47210603D01*
X62474000Y-47211645D01*
X62474000Y-49036354D01*
X62454315Y-49103393D01*
X62401511Y-49149148D01*
X62332353Y-49159092D01*
X62268797Y-49130067D01*
X62231023Y-49071289D01*
X62230734Y-49070288D01*
X62208830Y-48993303D01*
X62208827Y-48993297D01*
X62192650Y-48960809D01*
X62117588Y-48810065D01*
X61994232Y-48646715D01*
X61994230Y-48646712D01*
X61842962Y-48508814D01*
X61842960Y-48508812D01*
X61668930Y-48401057D01*
X61668924Y-48401054D01*
X61479873Y-48327816D01*
X61478056Y-48327112D01*
X61276847Y-48289500D01*
X61072153Y-48289500D01*
X60870944Y-48327112D01*
X60870941Y-48327112D01*
X60870941Y-48327113D01*
X60680075Y-48401054D01*
X60680069Y-48401057D01*
X60506039Y-48508812D01*
X60506037Y-48508814D01*
X60354769Y-48646712D01*
X60231412Y-48810064D01*
X60140173Y-48993295D01*
X60084154Y-49190183D01*
X60065268Y-49393999D01*
X60065268Y-49394000D01*
X60084154Y-49597816D01*
X60084154Y-49597818D01*
X60084155Y-49597821D01*
X60139516Y-49792394D01*
X60140173Y-49794704D01*
X60231412Y-49977935D01*
X60300851Y-50069887D01*
X60325543Y-50135248D01*
X60310978Y-50203583D01*
X60261781Y-50253196D01*
X60193571Y-50268334D01*
X60139898Y-50252002D01*
X60087650Y-50221837D01*
X60087651Y-50221837D01*
X60019526Y-50203583D01*
X59966969Y-50189500D01*
X59966967Y-50189500D01*
X59666847Y-50189500D01*
X59599808Y-50169815D01*
X59554053Y-50117011D01*
X59544109Y-50047853D01*
X59567894Y-49990772D01*
X59577587Y-49977936D01*
X59577586Y-49977936D01*
X59577588Y-49977935D01*
X59668828Y-49794701D01*
X59724845Y-49597821D01*
X59743732Y-49394000D01*
X59724845Y-49190179D01*
X59668828Y-48993299D01*
X59577588Y-48810065D01*
X59454232Y-48646715D01*
X59454230Y-48646712D01*
X59302962Y-48508814D01*
X59302960Y-48508812D01*
X59128930Y-48401057D01*
X59128924Y-48401054D01*
X58939873Y-48327816D01*
X58938056Y-48327112D01*
X58736847Y-48289500D01*
X58532153Y-48289500D01*
X58330944Y-48327112D01*
X58330941Y-48327112D01*
X58330941Y-48327113D01*
X58140075Y-48401054D01*
X58140069Y-48401057D01*
X57966039Y-48508812D01*
X57966037Y-48508814D01*
X57814769Y-48646712D01*
X57691412Y-48810064D01*
X57600173Y-48993295D01*
X57544154Y-49190183D01*
X57525268Y-49393999D01*
X57525268Y-49394000D01*
X57544154Y-49597816D01*
X57544154Y-49597818D01*
X57544155Y-49597821D01*
X57599516Y-49792394D01*
X57600173Y-49794704D01*
X57691412Y-49977936D01*
X57701106Y-49990772D01*
X57725799Y-50056133D01*
X57711235Y-50124468D01*
X57662038Y-50174081D01*
X57602153Y-50189500D01*
X55474504Y-50189500D01*
X55407465Y-50169815D01*
X55361710Y-50117011D01*
X55351766Y-50047853D01*
X55380791Y-49984297D01*
X55439569Y-49946523D01*
X55446126Y-49945137D01*
X55453245Y-49943229D01*
X55453254Y-49943228D01*
X55588143Y-49887355D01*
X55703974Y-49798474D01*
X55792855Y-49682643D01*
X55848728Y-49547754D01*
X55867785Y-49403000D01*
X55848728Y-49258246D01*
X55792855Y-49123358D01*
X55703974Y-49007526D01*
X55588143Y-48918645D01*
X55588140Y-48918644D01*
X55588138Y-48918642D01*
X55453257Y-48862773D01*
X55453252Y-48862771D01*
X55308501Y-48843715D01*
X55308499Y-48843715D01*
X55163747Y-48862771D01*
X55163745Y-48862772D01*
X55125015Y-48878815D01*
X55100279Y-48889061D01*
X55052827Y-48898500D01*
X46805833Y-48898500D01*
X46738794Y-48878815D01*
X46718152Y-48862181D01*
X45637359Y-47781388D01*
X45603874Y-47720065D01*
X45601637Y-47681553D01*
X45603269Y-47664976D01*
X45619715Y-47498000D01*
X45600900Y-47306965D01*
X45545177Y-47123271D01*
X45545175Y-47123268D01*
X45545175Y-47123266D01*
X45454689Y-46953978D01*
X45454687Y-46953975D01*
X45332910Y-46805589D01*
X45184524Y-46683812D01*
X45184521Y-46683810D01*
X45015233Y-46593324D01*
X44831533Y-46537599D01*
X44640500Y-46518785D01*
X44449466Y-46537599D01*
X44265766Y-46593324D01*
X44096478Y-46683810D01*
X44096475Y-46683812D01*
X43948089Y-46805589D01*
X43826312Y-46953975D01*
X43826310Y-46953978D01*
X43735824Y-47123266D01*
X43680099Y-47306966D01*
X43661285Y-47498000D01*
X43680099Y-47689033D01*
X43735824Y-47872733D01*
X43826310Y-48042021D01*
X43826312Y-48042024D01*
X43948089Y-48190410D01*
X44096475Y-48312187D01*
X44096478Y-48312189D01*
X44265766Y-48402675D01*
X44265768Y-48402675D01*
X44265771Y-48402677D01*
X44449465Y-48458400D01*
X44640500Y-48477215D01*
X44807476Y-48460769D01*
X44824053Y-48459137D01*
X44892699Y-48472156D01*
X44923888Y-48494859D01*
X46235730Y-49806701D01*
X46308662Y-49848808D01*
X46350770Y-49873119D01*
X46479081Y-49907500D01*
X46479082Y-49907500D01*
X46611919Y-49907500D01*
X55052826Y-49907500D01*
X55100278Y-49916939D01*
X55130558Y-49929481D01*
X55163746Y-49943228D01*
X55163752Y-49943228D01*
X55171596Y-49945331D01*
X55170890Y-49947962D01*
X55222577Y-49970826D01*
X55261049Y-50029150D01*
X55261881Y-50099015D01*
X55224809Y-50158239D01*
X55161604Y-50188019D01*
X55142496Y-50189500D01*
X54363969Y-50189500D01*
X54239031Y-50189500D01*
X54186474Y-50203583D01*
X54118348Y-50221837D01*
X54118347Y-50221838D01*
X54010153Y-50284303D01*
X54010148Y-50284307D01*
X52896807Y-51397648D01*
X52896803Y-51397653D01*
X52834338Y-51505847D01*
X52834337Y-51505848D01*
X52819177Y-51562428D01*
X52806353Y-51610288D01*
X52802000Y-51626532D01*
X52802000Y-51735110D01*
X52788485Y-51791404D01*
X52752072Y-51862870D01*
X52751985Y-51863040D01*
X52704010Y-51913836D01*
X52636189Y-51930631D01*
X52570054Y-51908094D01*
X52531016Y-51863041D01*
X52496239Y-51794789D01*
X52487826Y-51778277D01*
X52487823Y-51778274D01*
X52487821Y-51778271D01*
X52397228Y-51687678D01*
X52397225Y-51687676D01*
X52397223Y-51687674D01*
X52283055Y-51629502D01*
X52283054Y-51629501D01*
X52283051Y-51629500D01*
X52283052Y-51629500D01*
X52188339Y-51614500D01*
X52188334Y-51614500D01*
X51824666Y-51614500D01*
X51824661Y-51614500D01*
X51729947Y-51629500D01*
X51653833Y-51668283D01*
X51615777Y-51687674D01*
X51615776Y-51687675D01*
X51615771Y-51687678D01*
X51525178Y-51778271D01*
X51525173Y-51778278D01*
X51481984Y-51863041D01*
X51434010Y-51913836D01*
X51366189Y-51930631D01*
X51300054Y-51908093D01*
X51261016Y-51863041D01*
X51226239Y-51794789D01*
X51217826Y-51778277D01*
X51217823Y-51778274D01*
X51217821Y-51778271D01*
X51127228Y-51687678D01*
X51127225Y-51687676D01*
X51127223Y-51687674D01*
X51013055Y-51629502D01*
X51013054Y-51629501D01*
X51013051Y-51629500D01*
X51013052Y-51629500D01*
X50918339Y-51614500D01*
X50918334Y-51614500D01*
X50554666Y-51614500D01*
X50554661Y-51614500D01*
X50459947Y-51629500D01*
X50383833Y-51668283D01*
X50345777Y-51687674D01*
X50345776Y-51687675D01*
X50345771Y-51687678D01*
X50255178Y-51778271D01*
X50255173Y-51778278D01*
X50211984Y-51863041D01*
X50164010Y-51913836D01*
X50096189Y-51930631D01*
X50030054Y-51908093D01*
X49991013Y-51863036D01*
X49990928Y-51862870D01*
X49987926Y-51856977D01*
X49984513Y-51850278D01*
X49971000Y-51793987D01*
X49971000Y-51690673D01*
X49980439Y-51643220D01*
X49986122Y-51629500D01*
X50006728Y-51579754D01*
X50025785Y-51435000D01*
X50006728Y-51290246D01*
X49950855Y-51155358D01*
X49861974Y-51039526D01*
X49746143Y-50950645D01*
X49746140Y-50950644D01*
X49746138Y-50950642D01*
X49611257Y-50894773D01*
X49611252Y-50894771D01*
X49466501Y-50875715D01*
X49466499Y-50875715D01*
X49321747Y-50894771D01*
X49321745Y-50894772D01*
X49186861Y-50950643D01*
X49071026Y-51039526D01*
X48982143Y-51155361D01*
X48946061Y-51242471D01*
X48902220Y-51296874D01*
X48835926Y-51318939D01*
X48768226Y-51301660D01*
X48720616Y-51250522D01*
X48716939Y-51242471D01*
X48680856Y-51155361D01*
X48680855Y-51155358D01*
X48591974Y-51039526D01*
X48476143Y-50950645D01*
X48476140Y-50950644D01*
X48476138Y-50950642D01*
X48341257Y-50894773D01*
X48341252Y-50894771D01*
X48196501Y-50875715D01*
X48196499Y-50875715D01*
X48051747Y-50894771D01*
X48051745Y-50894772D01*
X47916861Y-50950643D01*
X47801026Y-51039526D01*
X47712143Y-51155361D01*
X47676061Y-51242471D01*
X47632220Y-51296874D01*
X47565926Y-51318939D01*
X47498226Y-51301660D01*
X47450616Y-51250522D01*
X47446939Y-51242471D01*
X47410856Y-51155361D01*
X47410855Y-51155358D01*
X47321974Y-51039526D01*
X47206143Y-50950645D01*
X47206140Y-50950644D01*
X47206138Y-50950642D01*
X47071257Y-50894773D01*
X47071252Y-50894771D01*
X46926501Y-50875715D01*
X46926499Y-50875715D01*
X46781747Y-50894771D01*
X46781745Y-50894772D01*
X46646861Y-50950643D01*
X46531026Y-51039526D01*
X46442143Y-51155361D01*
X46386272Y-51290245D01*
X46386271Y-51290247D01*
X46367215Y-51434998D01*
X46367215Y-51435001D01*
X46386271Y-51579752D01*
X46386272Y-51579754D01*
X46400664Y-51614500D01*
X46412561Y-51643220D01*
X46422000Y-51690673D01*
X46422000Y-51793987D01*
X46408485Y-51850281D01*
X46387001Y-51892444D01*
X46387000Y-51892447D01*
X46372000Y-51987160D01*
X46372000Y-53725839D01*
X46387001Y-53820555D01*
X46389876Y-53829403D01*
X46391871Y-53899244D01*
X46359626Y-53955401D01*
X45619346Y-54695681D01*
X45558023Y-54729166D01*
X45531665Y-54732000D01*
X44904248Y-54732000D01*
X44904242Y-54732001D01*
X44844155Y-54738460D01*
X44708238Y-54789155D01*
X44708230Y-54789160D01*
X44592095Y-54876095D01*
X44505160Y-54992230D01*
X44505158Y-54992233D01*
X44454460Y-55128158D01*
X44454459Y-55128162D01*
X44448000Y-55188228D01*
X44448000Y-55809751D01*
X44448001Y-55809757D01*
X44454460Y-55869844D01*
X44505155Y-56005761D01*
X44505156Y-56005764D01*
X44505158Y-56005767D01*
X44516602Y-56021054D01*
X44592095Y-56121904D01*
X44639518Y-56157403D01*
X44652224Y-56166915D01*
X44652226Y-56166916D01*
X44694098Y-56222849D01*
X44699084Y-56292540D01*
X44665599Y-56353864D01*
X44638997Y-56372496D01*
X44639525Y-56373351D01*
X44484154Y-56469184D01*
X44360184Y-56593154D01*
X44268143Y-56742375D01*
X44268141Y-56742380D01*
X44212994Y-56908802D01*
X44212993Y-56908809D01*
X44202500Y-57011513D01*
X44202500Y-57074000D01*
X50666499Y-57074000D01*
X50666499Y-57011528D01*
X50666498Y-57011513D01*
X50656005Y-56908802D01*
X50600858Y-56742380D01*
X50600856Y-56742375D01*
X50508815Y-56593154D01*
X50384845Y-56469184D01*
X50229475Y-56373351D01*
X50230627Y-56371482D01*
X50186229Y-56332379D01*
X50167086Y-56265183D01*
X50187311Y-56198305D01*
X50216770Y-56166919D01*
X50276904Y-56121904D01*
X50363842Y-56005767D01*
X50414540Y-55869842D01*
X50417300Y-55844164D01*
X50420999Y-55809771D01*
X50420999Y-55809764D01*
X50421000Y-55809755D01*
X50420999Y-55188246D01*
X50414540Y-55128158D01*
X50363842Y-54992233D01*
X50292625Y-54897097D01*
X50276904Y-54876095D01*
X50199626Y-54818247D01*
X50160767Y-54789158D01*
X50110666Y-54770471D01*
X50051665Y-54748464D01*
X49995732Y-54706592D01*
X49971316Y-54641128D01*
X49971000Y-54632283D01*
X49971000Y-53919010D01*
X49984512Y-53862722D01*
X49991015Y-53849959D01*
X50038985Y-53799165D01*
X50106806Y-53782368D01*
X50172941Y-53804903D01*
X50211983Y-53849958D01*
X50248484Y-53921593D01*
X50262000Y-53977889D01*
X50262000Y-54039531D01*
X50262000Y-54164469D01*
X50265019Y-54175734D01*
X50294337Y-54285151D01*
X50294338Y-54285152D01*
X50356803Y-54393346D01*
X50356805Y-54393349D01*
X50356806Y-54393350D01*
X51499806Y-55536350D01*
X51588150Y-55624694D01*
X51696350Y-55687163D01*
X51817031Y-55719500D01*
X56584594Y-55719500D01*
X56651633Y-55739185D01*
X56672274Y-55755818D01*
X57040150Y-56123695D01*
X57148350Y-56186163D01*
X57192594Y-56198018D01*
X57252253Y-56234381D01*
X57282783Y-56297228D01*
X57284500Y-56317792D01*
X57284500Y-56764000D01*
X58201488Y-56764000D01*
X58168575Y-56821007D01*
X58134500Y-56948174D01*
X58134500Y-57079826D01*
X58168575Y-57206993D01*
X58201488Y-57264000D01*
X57284500Y-57264000D01*
X57284500Y-57911844D01*
X57290901Y-57971372D01*
X57290903Y-57971379D01*
X57341145Y-58106086D01*
X57341149Y-58106093D01*
X57427309Y-58221187D01*
X57427312Y-58221190D01*
X57542406Y-58307350D01*
X57542413Y-58307354D01*
X57677120Y-58357596D01*
X57677127Y-58357598D01*
X57736655Y-58363999D01*
X57736672Y-58364000D01*
X58384500Y-58364000D01*
X58384500Y-57447012D01*
X58441507Y-57479925D01*
X58568674Y-57514000D01*
X58700326Y-57514000D01*
X58827493Y-57479925D01*
X58884500Y-57447012D01*
X58884500Y-58364000D01*
X59532328Y-58364000D01*
X59532344Y-58363999D01*
X59591872Y-58357598D01*
X59591879Y-58357596D01*
X59726586Y-58307354D01*
X59726593Y-58307350D01*
X59841687Y-58221190D01*
X59841690Y-58221187D01*
X59927850Y-58106093D01*
X59927854Y-58106086D01*
X59978096Y-57971379D01*
X59978098Y-57971372D01*
X59984499Y-57911844D01*
X59984500Y-57911827D01*
X59984500Y-57629284D01*
X60004185Y-57562245D01*
X60056989Y-57516490D01*
X60126147Y-57506546D01*
X60189703Y-57535571D01*
X60219498Y-57574010D01*
X60231412Y-57597935D01*
X60231413Y-57597937D01*
X60354769Y-57761287D01*
X60506037Y-57899185D01*
X60506039Y-57899187D01*
X60680069Y-58006942D01*
X60680075Y-58006945D01*
X60720510Y-58022609D01*
X60870944Y-58080888D01*
X61072153Y-58118500D01*
X61072156Y-58118500D01*
X61276844Y-58118500D01*
X61276847Y-58118500D01*
X61478056Y-58080888D01*
X61668927Y-58006944D01*
X61842962Y-57899186D01*
X61994232Y-57761285D01*
X62117588Y-57597935D01*
X62208828Y-57414701D01*
X62230733Y-57337709D01*
X62268013Y-57278618D01*
X62331322Y-57249060D01*
X62400562Y-57258422D01*
X62453748Y-57303731D01*
X62473996Y-57370603D01*
X62474000Y-57371645D01*
X62474000Y-62810249D01*
X62473774Y-62817736D01*
X62457686Y-63083688D01*
X62455881Y-63098552D01*
X62408532Y-63356931D01*
X62404948Y-63371470D01*
X62326803Y-63622246D01*
X62321494Y-63636247D01*
X62213684Y-63875791D01*
X62206725Y-63889050D01*
X62070831Y-64113846D01*
X62062325Y-64126169D01*
X61900323Y-64332949D01*
X61890393Y-64344157D01*
X61704657Y-64529893D01*
X61693449Y-64539823D01*
X61486669Y-64701825D01*
X61474346Y-64710331D01*
X61249550Y-64846225D01*
X61236291Y-64853184D01*
X60996747Y-64960994D01*
X60982746Y-64966303D01*
X60731970Y-65044448D01*
X60717431Y-65048032D01*
X60459052Y-65095381D01*
X60444188Y-65097186D01*
X60181987Y-65113047D01*
X60167013Y-65113047D01*
X59904811Y-65097186D01*
X59889947Y-65095381D01*
X59631568Y-65048032D01*
X59617029Y-65044448D01*
X59366253Y-64966303D01*
X59352252Y-64960994D01*
X59112708Y-64853184D01*
X59099449Y-64846225D01*
X58874653Y-64710331D01*
X58862330Y-64701825D01*
X58859948Y-64699959D01*
X58655550Y-64539823D01*
X58644342Y-64529893D01*
X58458606Y-64344157D01*
X58448676Y-64332949D01*
X58386793Y-64253961D01*
X58286670Y-64126163D01*
X58278172Y-64113852D01*
X58142271Y-63889044D01*
X58135318Y-63875798D01*
X58027503Y-63636242D01*
X58022196Y-63622246D01*
X58016982Y-63605513D01*
X57944049Y-63371463D01*
X57940467Y-63356931D01*
X57939342Y-63350793D01*
X57893117Y-63098551D01*
X57891313Y-63083688D01*
X57884173Y-62965657D01*
X57875226Y-62817736D01*
X57875113Y-62813998D01*
X58269145Y-62813998D01*
X58269145Y-62814001D01*
X58288539Y-63085160D01*
X58288540Y-63085167D01*
X58289847Y-63091174D01*
X58346325Y-63350801D01*
X58412299Y-63527683D01*
X58441330Y-63605519D01*
X58571609Y-63844107D01*
X58571610Y-63844108D01*
X58571613Y-63844113D01*
X58734529Y-64061742D01*
X58734533Y-64061746D01*
X58734538Y-64061752D01*
X58926747Y-64253961D01*
X58926753Y-64253966D01*
X58926758Y-64253971D01*
X59144387Y-64416887D01*
X59144391Y-64416889D01*
X59144392Y-64416890D01*
X59382981Y-64547169D01*
X59382980Y-64547169D01*
X59382984Y-64547170D01*
X59382987Y-64547172D01*
X59637699Y-64642175D01*
X59903340Y-64699961D01*
X60155105Y-64717967D01*
X60174499Y-64719355D01*
X60174500Y-64719355D01*
X60174501Y-64719355D01*
X60192600Y-64718060D01*
X60445660Y-64699961D01*
X60711301Y-64642175D01*
X60966013Y-64547172D01*
X60966017Y-64547169D01*
X60966019Y-64547169D01*
X61085313Y-64482029D01*
X61204613Y-64416887D01*
X61422242Y-64253971D01*
X61614471Y-64061742D01*
X61777387Y-63844113D01*
X61907672Y-63605513D01*
X62002675Y-63350801D01*
X62060461Y-63085160D01*
X62079855Y-62814000D01*
X62060461Y-62542840D01*
X62002675Y-62277199D01*
X61907672Y-62022487D01*
X61907670Y-62022484D01*
X61907669Y-62022480D01*
X61777390Y-61783892D01*
X61777389Y-61783891D01*
X61777387Y-61783887D01*
X61614471Y-61566258D01*
X61614466Y-61566253D01*
X61614461Y-61566247D01*
X61422252Y-61374038D01*
X61422246Y-61374033D01*
X61422242Y-61374029D01*
X61204613Y-61211113D01*
X61204608Y-61211110D01*
X61204607Y-61211109D01*
X60966018Y-61080830D01*
X60966019Y-61080830D01*
X60916420Y-61062330D01*
X60711301Y-60985825D01*
X60711294Y-60985823D01*
X60711293Y-60985823D01*
X60445667Y-60928040D01*
X60445660Y-60928039D01*
X60174501Y-60908645D01*
X60174499Y-60908645D01*
X59903339Y-60928039D01*
X59903332Y-60928040D01*
X59637706Y-60985823D01*
X59637702Y-60985824D01*
X59637699Y-60985825D01*
X59510343Y-61033326D01*
X59382980Y-61080830D01*
X59144392Y-61211109D01*
X59144391Y-61211110D01*
X58926759Y-61374028D01*
X58926747Y-61374038D01*
X58734538Y-61566247D01*
X58734528Y-61566259D01*
X58571610Y-61783891D01*
X58571609Y-61783892D01*
X58441330Y-62022480D01*
X58412299Y-62100317D01*
X58346325Y-62277199D01*
X58346324Y-62277202D01*
X58346323Y-62277206D01*
X58288540Y-62542832D01*
X58288539Y-62542839D01*
X58269145Y-62813998D01*
X57875113Y-62813998D01*
X57875000Y-62810249D01*
X57875000Y-60576891D01*
X57862642Y-60475118D01*
X57842912Y-60312624D01*
X57779203Y-60054148D01*
X57684803Y-59805236D01*
X57561089Y-59569517D01*
X57409863Y-59350430D01*
X57409858Y-59350424D01*
X57233333Y-59151168D01*
X57233331Y-59151166D01*
X57034075Y-58974641D01*
X57034072Y-58974639D01*
X57034070Y-58974637D01*
X56814983Y-58823411D01*
X56579264Y-58699697D01*
X56330357Y-58605298D01*
X56268545Y-58590062D01*
X56071876Y-58541588D01*
X55913314Y-58522335D01*
X55807608Y-58509500D01*
X55807606Y-58509500D01*
X55714382Y-58509500D01*
X50283180Y-58509500D01*
X50216141Y-58489815D01*
X50170386Y-58437011D01*
X50160442Y-58367853D01*
X50189467Y-58304297D01*
X50230777Y-58273117D01*
X50235619Y-58270858D01*
X50384845Y-58178815D01*
X50508815Y-58054845D01*
X50600856Y-57905624D01*
X50600858Y-57905619D01*
X50656005Y-57739197D01*
X50656006Y-57739190D01*
X50666499Y-57636486D01*
X50666500Y-57636473D01*
X50666500Y-57574000D01*
X44202501Y-57574000D01*
X44202501Y-57636486D01*
X44212994Y-57739197D01*
X44268141Y-57905619D01*
X44268143Y-57905624D01*
X44360184Y-58054845D01*
X44484154Y-58178815D01*
X44633380Y-58270858D01*
X44638223Y-58273117D01*
X44690663Y-58319289D01*
X44709816Y-58386482D01*
X44689601Y-58453364D01*
X44636436Y-58498699D01*
X44585820Y-58509500D01*
X36135567Y-58509500D01*
X36127457Y-58509235D01*
X35904721Y-58494636D01*
X35888640Y-58492518D01*
X35673728Y-58449769D01*
X35658061Y-58445571D01*
X35450557Y-58375133D01*
X35435571Y-58368926D01*
X35239039Y-58272007D01*
X35224992Y-58263897D01*
X35042791Y-58142154D01*
X35029923Y-58132280D01*
X34865171Y-57987797D01*
X34853702Y-57976328D01*
X34786050Y-57899185D01*
X34709216Y-57811573D01*
X34699345Y-57798708D01*
X34659576Y-57739190D01*
X34577602Y-57616507D01*
X34569492Y-57602460D01*
X34566696Y-57596791D01*
X34472570Y-57405921D01*
X34466366Y-57390942D01*
X34395928Y-57183438D01*
X34391730Y-57167771D01*
X34361143Y-57014000D01*
X34348979Y-56952848D01*
X34346864Y-56936790D01*
X34332265Y-56714043D01*
X34332000Y-56705933D01*
X34332000Y-48123999D01*
X35149268Y-48123999D01*
X35149268Y-48124000D01*
X35168154Y-48327816D01*
X35168154Y-48327818D01*
X35168155Y-48327821D01*
X35209222Y-48472156D01*
X35224173Y-48524704D01*
X35315412Y-48707935D01*
X35438769Y-48871287D01*
X35590037Y-49009185D01*
X35590039Y-49009187D01*
X35764069Y-49116942D01*
X35764075Y-49116945D01*
X35780629Y-49123358D01*
X35954944Y-49190888D01*
X36156153Y-49228500D01*
X36156156Y-49228500D01*
X36360844Y-49228500D01*
X36360847Y-49228500D01*
X36562056Y-49190888D01*
X36752927Y-49116944D01*
X36926962Y-49009186D01*
X37078232Y-48871285D01*
X37201588Y-48707935D01*
X37292828Y-48524701D01*
X37348845Y-48327821D01*
X37367732Y-48124000D01*
X37348845Y-47920179D01*
X37292828Y-47723299D01*
X37201588Y-47540065D01*
X37124463Y-47437935D01*
X37078230Y-47376712D01*
X36926962Y-47238814D01*
X36926960Y-47238812D01*
X36752930Y-47131057D01*
X36752924Y-47131054D01*
X36563873Y-47057816D01*
X36562056Y-47057112D01*
X36360847Y-47019500D01*
X36156153Y-47019500D01*
X35954944Y-47057112D01*
X35954941Y-47057112D01*
X35954941Y-47057113D01*
X35764075Y-47131054D01*
X35764069Y-47131057D01*
X35590039Y-47238812D01*
X35590037Y-47238814D01*
X35438769Y-47376712D01*
X35315412Y-47540064D01*
X35224173Y-47723295D01*
X35168154Y-47920183D01*
X35149268Y-48123999D01*
X34332000Y-48123999D01*
X34332000Y-44708928D01*
X35154000Y-44708928D01*
X35154000Y-46459063D01*
X35168766Y-46533301D01*
X35225015Y-46617484D01*
X35258734Y-46640014D01*
X35309199Y-46673734D01*
X35309202Y-46673734D01*
X35309203Y-46673735D01*
X35328006Y-46677475D01*
X35383433Y-46688500D01*
X37133566Y-46688499D01*
X37207801Y-46673734D01*
X37291984Y-46617484D01*
X37348234Y-46533301D01*
X37363000Y-46459067D01*
X37362999Y-44708934D01*
X37348234Y-44634699D01*
X37327542Y-44603731D01*
X37291984Y-44550515D01*
X37237106Y-44513847D01*
X37207801Y-44494266D01*
X37207799Y-44494265D01*
X37207796Y-44494264D01*
X37133569Y-44479500D01*
X35383436Y-44479500D01*
X35309198Y-44494266D01*
X35225015Y-44550515D01*
X35168766Y-44634699D01*
X35168764Y-44634703D01*
X35154000Y-44708928D01*
X34332000Y-44708928D01*
X34332000Y-41918066D01*
X34332265Y-41909956D01*
X34341176Y-41773999D01*
X34346864Y-41687207D01*
X34348979Y-41671153D01*
X34391730Y-41456226D01*
X34395928Y-41440561D01*
X34418762Y-41373295D01*
X34466368Y-41233049D01*
X34472567Y-41218083D01*
X34569495Y-41021533D01*
X34577598Y-41007498D01*
X34699353Y-40825279D01*
X34709210Y-40812433D01*
X34853707Y-40647665D01*
X34865165Y-40636207D01*
X35029933Y-40491710D01*
X35042779Y-40481853D01*
X35224998Y-40360098D01*
X35239033Y-40351995D01*
X35435583Y-40255067D01*
X35450549Y-40248868D01*
X35657445Y-40178637D01*
X35658061Y-40178428D01*
X35673728Y-40174230D01*
X35888653Y-40131479D01*
X35904709Y-40129364D01*
X36109558Y-40115938D01*
X36127458Y-40114765D01*
X36135567Y-40114500D01*
X55807608Y-40114500D01*
X55847539Y-40109651D01*
X56071876Y-40082412D01*
X56330352Y-40018703D01*
X56579264Y-39924303D01*
X56814983Y-39800589D01*
X57034070Y-39649363D01*
X57233332Y-39472832D01*
X57409863Y-39273570D01*
X57561089Y-39054483D01*
X57684803Y-38818764D01*
X57779203Y-38569852D01*
X57842912Y-38311376D01*
X57875000Y-38047106D01*
X57875000Y-37966161D01*
X57875042Y-37965731D01*
X57875032Y-37953718D01*
X57875033Y-37953717D01*
X57875000Y-37913770D01*
X57875000Y-37874118D01*
X57875000Y-37862273D01*
X57874956Y-37861844D01*
X57873270Y-35819671D01*
X57873437Y-35813998D01*
X58269145Y-35813998D01*
X58269145Y-35814001D01*
X58288539Y-36085160D01*
X58288540Y-36085167D01*
X58335467Y-36300887D01*
X58346325Y-36350801D01*
X58412299Y-36527683D01*
X58441330Y-36605519D01*
X58571609Y-36844107D01*
X58571610Y-36844108D01*
X58571613Y-36844113D01*
X58734529Y-37061742D01*
X58734533Y-37061746D01*
X58734538Y-37061752D01*
X58926747Y-37253961D01*
X58926753Y-37253966D01*
X58926758Y-37253971D01*
X59144387Y-37416887D01*
X59144391Y-37416889D01*
X59144392Y-37416890D01*
X59382981Y-37547169D01*
X59382980Y-37547169D01*
X59382984Y-37547170D01*
X59382987Y-37547172D01*
X59637699Y-37642175D01*
X59903340Y-37699961D01*
X60155105Y-37717967D01*
X60174499Y-37719355D01*
X60174500Y-37719355D01*
X60174501Y-37719355D01*
X60192600Y-37718060D01*
X60445660Y-37699961D01*
X60711301Y-37642175D01*
X60966013Y-37547172D01*
X60966017Y-37547169D01*
X60966019Y-37547169D01*
X61085313Y-37482029D01*
X61204613Y-37416887D01*
X61422242Y-37253971D01*
X61614471Y-37061742D01*
X61777387Y-36844113D01*
X61907672Y-36605513D01*
X62002675Y-36350801D01*
X62060461Y-36085160D01*
X62079855Y-35814000D01*
X62060461Y-35542840D01*
X62002675Y-35277199D01*
X61907672Y-35022487D01*
X61907670Y-35022484D01*
X61907669Y-35022480D01*
X61777390Y-34783892D01*
X61777389Y-34783891D01*
X61777387Y-34783887D01*
X61614471Y-34566258D01*
X61614466Y-34566253D01*
X61614461Y-34566247D01*
X61422252Y-34374038D01*
X61422246Y-34374033D01*
X61422242Y-34374029D01*
X61204613Y-34211113D01*
X61204608Y-34211110D01*
X61204607Y-34211109D01*
X60966018Y-34080830D01*
X60966019Y-34080830D01*
X60916420Y-34062330D01*
X60711301Y-33985825D01*
X60711294Y-33985823D01*
X60711293Y-33985823D01*
X60445667Y-33928040D01*
X60445660Y-33928039D01*
X60174501Y-33908645D01*
X60174499Y-33908645D01*
X59903339Y-33928039D01*
X59903332Y-33928040D01*
X59637706Y-33985823D01*
X59637702Y-33985824D01*
X59637699Y-33985825D01*
X59510343Y-34033326D01*
X59382980Y-34080830D01*
X59144392Y-34211109D01*
X59144391Y-34211110D01*
X58926759Y-34374028D01*
X58926747Y-34374038D01*
X58734538Y-34566247D01*
X58734528Y-34566259D01*
X58571610Y-34783891D01*
X58571609Y-34783892D01*
X58441330Y-35022480D01*
X58412299Y-35100317D01*
X58346325Y-35277199D01*
X58346324Y-35277202D01*
X58346323Y-35277206D01*
X58288540Y-35542832D01*
X58288539Y-35542839D01*
X58269145Y-35813998D01*
X57873437Y-35813998D01*
X57873490Y-35812183D01*
X57873605Y-35810263D01*
X57889380Y-35546045D01*
X57891171Y-35531203D01*
X57938365Y-35272632D01*
X57941933Y-35258112D01*
X58019968Y-35007108D01*
X58025260Y-34993129D01*
X58132992Y-34753378D01*
X58139940Y-34740124D01*
X58275793Y-34515123D01*
X58284280Y-34502813D01*
X58446280Y-34295834D01*
X58456200Y-34284627D01*
X58641972Y-34098700D01*
X58653179Y-34088766D01*
X58860010Y-33926605D01*
X58872325Y-33918098D01*
X59097216Y-33782056D01*
X59110460Y-33775101D01*
X59350113Y-33667175D01*
X59364112Y-33661863D01*
X59615034Y-33583624D01*
X59629555Y-33580044D01*
X59888080Y-33532637D01*
X59902930Y-33530833D01*
X60166129Y-33514898D01*
X60181079Y-33514898D01*
X60444190Y-33530813D01*
G37*
%TD.AperFunction*%
%TA.AperFunction,Conductor*%
G36*
X57669192Y-51158185D02*
G01*
X57714947Y-51210989D01*
X57724891Y-51280147D01*
X57701106Y-51337228D01*
X57691412Y-51350063D01*
X57600173Y-51533295D01*
X57544154Y-51730183D01*
X57525268Y-51933999D01*
X57525268Y-51934000D01*
X57544154Y-52137820D01*
X57544155Y-52137822D01*
X57571942Y-52235482D01*
X57571356Y-52305349D01*
X57540357Y-52357097D01*
X55925275Y-53972181D01*
X55863952Y-54005666D01*
X55837594Y-54008500D01*
X55192585Y-54008500D01*
X55125546Y-53988815D01*
X55079791Y-53936011D01*
X55069847Y-53866853D01*
X55082100Y-53828206D01*
X55085998Y-53820555D01*
X55085999Y-53820552D01*
X55101000Y-53725839D01*
X55101000Y-52046174D01*
X55120685Y-51979135D01*
X55173489Y-51933380D01*
X55177524Y-51931623D01*
X55207143Y-51919355D01*
X55322974Y-51830474D01*
X55411855Y-51714643D01*
X55467728Y-51579754D01*
X55486785Y-51435000D01*
X55467728Y-51290246D01*
X55467727Y-51290245D01*
X55466667Y-51282188D01*
X55469197Y-51281854D01*
X55470551Y-51224755D01*
X55509708Y-51166889D01*
X55573934Y-51139378D01*
X55588667Y-51138500D01*
X57602153Y-51138500D01*
X57669192Y-51158185D01*
G37*
%TD.AperFunction*%
%TD*%
M02*
