%TF.GenerationSoftware,KiCad,Pcbnew,8.0.6+1*%
%TF.CreationDate,2024-12-08T19:19:35+01:00*%
%TF.ProjectId,8x2 backpack,38783220-6261-4636-9b70-61636b2e6b69,rev?*%
%TF.SameCoordinates,Original*%
%TF.FileFunction,Profile,NP*%
%FSLAX46Y46*%
G04 Gerber Fmt 4.6, Leading zero omitted, Abs format (unit mm)*
G04 Created by KiCad (PCBNEW 8.0.6+1) date 2024-12-08 19:19:35*
%MOMM*%
%LPD*%
G01*
G04 APERTURE LIST*
%TA.AperFunction,Profile*%
%ADD10C,0.100000*%
%TD*%
G04 APERTURE END LIST*
D10*
X60174500Y-65314000D02*
G75*
G02*
X57674500Y-62814000I0J2500000D01*
G01*
X57674500Y-37914000D02*
X57672767Y-35816065D01*
X62674500Y-35814000D02*
X62674500Y-62814000D01*
X60172766Y-33314000D02*
X60174500Y-33314000D01*
X61874500Y-35814000D02*
G75*
G02*
X58474500Y-35814000I-1700000J0D01*
G01*
X58474500Y-35814000D02*
G75*
G02*
X61874500Y-35814000I1700000J0D01*
G01*
X61874500Y-62814000D02*
G75*
G02*
X58474500Y-62814000I-1700000J0D01*
G01*
X58474500Y-62814000D02*
G75*
G02*
X61874500Y-62814000I1700000J0D01*
G01*
X60174500Y-65314000D02*
X60174500Y-65314000D01*
X36131500Y-58710000D02*
X55674500Y-58710000D01*
X55674500Y-39914000D02*
X36131500Y-39914000D01*
X60174500Y-33314000D02*
G75*
G02*
X62674500Y-35814000I0J-2500000D01*
G01*
X36131500Y-58710000D02*
G75*
G02*
X34131500Y-56710000I0J2000000D01*
G01*
X57674500Y-62814000D02*
X57674500Y-60710000D01*
X34131500Y-41914000D02*
X34131500Y-56710000D01*
X55674500Y-58710000D02*
G75*
G02*
X57674500Y-60710000I0J-2000000D01*
G01*
X57674500Y-37914000D02*
G75*
G02*
X55674500Y-39914000I-2000000J0D01*
G01*
X62674500Y-62814000D02*
G75*
G02*
X60174500Y-65314000I-2500000J0D01*
G01*
X34131500Y-41914000D02*
G75*
G02*
X36131500Y-39914000I2000000J0D01*
G01*
X57672767Y-35816065D02*
G75*
G02*
X60172766Y-33313996I2500053J2015D01*
G01*
M02*
