%TF.GenerationSoftware,KiCad,Pcbnew,8.0.6+1*%
%TF.CreationDate,2024-12-08T19:19:34+01:00*%
%TF.ProjectId,8x2 backpack,38783220-6261-4636-9b70-61636b2e6b69,rev?*%
%TF.SameCoordinates,Original*%
%TF.FileFunction,Copper,L2,Bot*%
%TF.FilePolarity,Positive*%
%FSLAX46Y46*%
G04 Gerber Fmt 4.6, Leading zero omitted, Abs format (unit mm)*
G04 Created by KiCad (PCBNEW 8.0.6+1) date 2024-12-08 19:19:34*
%MOMM*%
%LPD*%
G01*
G04 APERTURE LIST*
G04 Aperture macros list*
%AMRoundRect*
0 Rectangle with rounded corners*
0 $1 Rounding radius*
0 $2 $3 $4 $5 $6 $7 $8 $9 X,Y pos of 4 corners*
0 Add a 4 corners polygon primitive as box body*
4,1,4,$2,$3,$4,$5,$6,$7,$8,$9,$2,$3,0*
0 Add four circle primitives for the rounded corners*
1,1,$1+$1,$2,$3*
1,1,$1+$1,$4,$5*
1,1,$1+$1,$6,$7*
1,1,$1+$1,$8,$9*
0 Add four rect primitives between the rounded corners*
20,1,$1+$1,$2,$3,$4,$5,0*
20,1,$1+$1,$4,$5,$6,$7,0*
20,1,$1+$1,$6,$7,$8,$9,0*
20,1,$1+$1,$8,$9,$2,$3,0*%
G04 Aperture macros list end*
%TA.AperFunction,ComponentPad*%
%ADD10R,1.700000X1.700000*%
%TD*%
%TA.AperFunction,ComponentPad*%
%ADD11O,1.700000X1.700000*%
%TD*%
%TA.AperFunction,ComponentPad*%
%ADD12O,4.500000X4.500000*%
%TD*%
%TA.AperFunction,ComponentPad*%
%ADD13R,1.440000X1.440000*%
%TD*%
%TA.AperFunction,ComponentPad*%
%ADD14C,1.440000*%
%TD*%
%TA.AperFunction,SMDPad,CuDef*%
%ADD15RoundRect,0.250000X0.450000X-0.262500X0.450000X0.262500X-0.450000X0.262500X-0.450000X-0.262500X0*%
%TD*%
%TA.AperFunction,SMDPad,CuDef*%
%ADD16RoundRect,0.250000X-0.250000X-0.475000X0.250000X-0.475000X0.250000X0.475000X-0.250000X0.475000X0*%
%TD*%
%TA.AperFunction,SMDPad,CuDef*%
%ADD17RoundRect,0.250000X-0.450000X0.262500X-0.450000X-0.262500X0.450000X-0.262500X0.450000X0.262500X0*%
%TD*%
%TA.AperFunction,SMDPad,CuDef*%
%ADD18RoundRect,0.150000X0.150000X-0.512500X0.150000X0.512500X-0.150000X0.512500X-0.150000X-0.512500X0*%
%TD*%
%TA.AperFunction,ViaPad*%
%ADD19C,0.600000*%
%TD*%
%TA.AperFunction,Conductor*%
%ADD20C,0.500000*%
%TD*%
%TA.AperFunction,Conductor*%
%ADD21C,1.000000*%
%TD*%
G04 APERTURE END LIST*
D10*
%TO.P,J3,1,Pin_1*%
%TO.N,Net-(J3-Pin_1)*%
X42608500Y-53086000D03*
D11*
%TO.P,J3,2,Pin_2*%
%TO.N,+5V*%
X40068500Y-53086000D03*
%TD*%
D12*
%TO.P,,2,Pin_2*%
%TO.N,GND*%
X60134500Y-62774000D03*
%TD*%
%TO.P,,2,Pin_2*%
%TO.N,GND*%
X60174500Y-35814000D03*
%TD*%
D13*
%TO.P,RV1,1,1*%
%TO.N,GND*%
X42100500Y-50038000D03*
D14*
%TO.P,RV1,2,2*%
%TO.N,LCD_3(VO)*%
X44640500Y-47498000D03*
%TO.P,RV1,3,3*%
%TO.N,+5V*%
X42100500Y-44958000D03*
%TD*%
D10*
%TO.P,J2,1,Pin_1*%
%TO.N,SCL*%
X36258500Y-45584000D03*
D11*
%TO.P,J2,2,Pin_2*%
%TO.N,SDA*%
X36258500Y-48124000D03*
%TO.P,J2,3,Pin_3*%
%TO.N,+5V*%
X36258500Y-50664000D03*
%TO.P,J2,4,Pin_4*%
%TO.N,GND*%
X36258500Y-53204000D03*
%TD*%
D15*
%TO.P,R3,1*%
%TO.N,Net-(U1-A1)*%
X49212500Y-50315500D03*
%TO.P,R3,2*%
%TO.N,+5V*%
X49212500Y-48490500D03*
%TD*%
D16*
%TO.P,C1,1*%
%TO.N,GND*%
X44132500Y-43180000D03*
%TO.P,C1,2*%
%TO.N,+5V*%
X46032500Y-43180000D03*
%TD*%
D17*
%TO.P,R1,1*%
%TO.N,+5V*%
X53276500Y-48490500D03*
%TO.P,R1,2*%
%TO.N,Net-(Q1-B)*%
X53276500Y-50315500D03*
%TD*%
D10*
%TO.P,J1,1,Pin_1*%
%TO.N,GND*%
X58634500Y-57014000D03*
D11*
%TO.P,J1,2,Pin_2*%
%TO.N,+5V*%
X61174500Y-57014000D03*
%TO.P,J1,3,Pin_3*%
%TO.N,LCD_3(VO)*%
X58634500Y-54474000D03*
%TO.P,J1,4,Pin_4*%
%TO.N,LCD_4(RS)*%
X61174500Y-54474000D03*
%TO.P,J1,5,Pin_5*%
%TO.N,LCD_5(RW)*%
X58634500Y-51934000D03*
%TO.P,J1,6,Pin_6*%
%TO.N,LCD_6(CS)*%
X61174500Y-51934000D03*
%TO.P,J1,7,Pin_7*%
%TO.N,unconnected-(J1-Pin_7-Pad7)*%
X58634500Y-49394000D03*
%TO.P,J1,8,Pin_8*%
%TO.N,unconnected-(J1-Pin_8-Pad8)*%
X61174500Y-49394000D03*
%TO.P,J1,9,Pin_9*%
%TO.N,unconnected-(J1-Pin_9-Pad9)*%
X58634500Y-46854000D03*
%TO.P,J1,10,Pin_10*%
%TO.N,unconnected-(J1-Pin_10-Pad10)*%
X61174500Y-46854000D03*
%TO.P,J1,11,Pin_11*%
%TO.N,LCD_11(DB4)*%
X58634500Y-44314000D03*
%TO.P,J1,12,Pin_12*%
%TO.N,LCD_12(DB5)*%
X61174500Y-44314000D03*
%TO.P,J1,13,Pin_13*%
%TO.N,LCD_13(DB6)*%
X58634500Y-41774000D03*
%TO.P,J1,14,Pin_14*%
%TO.N,LCD_14(D7)*%
X61174500Y-41774000D03*
%TD*%
D15*
%TO.P,R8,1*%
%TO.N,SDA*%
X47942500Y-43688000D03*
%TO.P,R8,2*%
%TO.N,+5V*%
X47942500Y-41863000D03*
%TD*%
%TO.P,R9,1*%
%TO.N,SCL*%
X49974500Y-43688000D03*
%TO.P,R9,2*%
%TO.N,+5V*%
X49974500Y-41863000D03*
%TD*%
D18*
%TO.P,Q1,1,C*%
%TO.N,Net-(J3-Pin_1)*%
X50294500Y-55234000D03*
%TO.P,Q1,2,B*%
%TO.N,Net-(Q1-B)*%
X52194500Y-55234000D03*
%TO.P,Q1,3,E*%
%TO.N,GND*%
X51244500Y-52959000D03*
%TD*%
D15*
%TO.P,R2,1*%
%TO.N,Net-(U1-A0)*%
X47180500Y-50315500D03*
%TO.P,R2,2*%
%TO.N,+5V*%
X47180500Y-48490500D03*
%TD*%
%TO.P,R4,1*%
%TO.N,Net-(U1-A2)*%
X51244500Y-50315500D03*
%TO.P,R4,2*%
%TO.N,+5V*%
X51244500Y-48490500D03*
%TD*%
D19*
%TO.N,GND*%
X55816500Y-51435000D03*
X58610500Y-39116000D03*
X53784500Y-58166000D03*
X44386500Y-50292000D03*
X40322500Y-57912000D03*
X62166500Y-59690000D03*
X55562500Y-48006000D03*
X53276500Y-40894000D03*
X44569887Y-54590737D03*
X36500000Y-41500000D03*
%TO.N,+5V*%
X46926500Y-47625000D03*
%TO.N,LCD_3(VO)*%
X55308500Y-49403000D03*
%TO.N,SCL*%
X49466500Y-44577000D03*
%TO.N,SDA*%
X48196500Y-47730462D03*
X48196500Y-44577000D03*
%TO.N,Net-(Q1-B)*%
X54927500Y-51435000D03*
%TO.N,Net-(U1-A0)*%
X46926500Y-51435000D03*
%TO.N,Net-(U1-A1)*%
X48196500Y-51435000D03*
%TO.N,Net-(U1-A2)*%
X49466500Y-51435000D03*
%TD*%
D20*
%TO.N,+5V*%
X46117500Y-43989000D02*
X46117500Y-42465000D01*
X42608500Y-44450000D02*
X45656500Y-44450000D01*
X45656500Y-44450000D02*
X46117500Y-43989000D01*
X51244500Y-48490500D02*
X53276500Y-48490500D01*
D21*
X57340500Y-58674000D02*
X60716581Y-58674000D01*
D20*
X46926500Y-48236500D02*
X47180500Y-48490500D01*
X46117500Y-42465000D02*
X46719500Y-41863000D01*
X46719500Y-41863000D02*
X49974500Y-41863000D01*
D21*
X55562500Y-56896000D02*
X57340500Y-58674000D01*
X40068500Y-53086000D02*
X40068500Y-54288081D01*
X61174500Y-58216081D02*
X61174500Y-57014000D01*
X60716581Y-58674000D02*
X61174500Y-58216081D01*
X42676419Y-56896000D02*
X55562500Y-56896000D01*
D20*
X42100500Y-44958000D02*
X42608500Y-44450000D01*
X46926500Y-47625000D02*
X46926500Y-48236500D01*
X47180500Y-48490500D02*
X51244500Y-48490500D01*
D21*
X40068500Y-54288081D02*
X42676419Y-56896000D01*
D20*
%TO.N,LCD_3(VO)*%
X57331500Y-54474000D02*
X58634500Y-54474000D01*
X56832500Y-53975000D02*
X57331500Y-54474000D01*
X56832500Y-49911000D02*
X56832500Y-53975000D01*
X55308500Y-49403000D02*
X56324500Y-49403000D01*
X56324500Y-49403000D02*
X56832500Y-49911000D01*
%TO.N,SCL*%
X36258500Y-45584000D02*
X36267500Y-45593000D01*
X49720500Y-44323000D02*
X49466500Y-44577000D01*
X48716500Y-45327000D02*
X49466500Y-44577000D01*
X38036500Y-46228000D02*
X42735500Y-46228000D01*
X49720500Y-43434000D02*
X49720500Y-44323000D01*
X36267500Y-45593000D02*
X37401500Y-45593000D01*
X42735500Y-46228000D02*
X43636500Y-45327000D01*
X43636500Y-45327000D02*
X48716500Y-45327000D01*
X37401500Y-45593000D02*
X38036500Y-46228000D01*
%TO.N,SDA*%
X48196500Y-47730462D02*
X46694038Y-46228000D01*
X47942500Y-44323000D02*
X48196500Y-44577000D01*
X43116500Y-47117000D02*
X38544500Y-47117000D01*
X38544500Y-47117000D02*
X37537500Y-48124000D01*
X47942500Y-43434000D02*
X47942500Y-44323000D01*
X37537500Y-48124000D02*
X36258500Y-48124000D01*
X46694038Y-46228000D02*
X44005500Y-46228000D01*
X44005500Y-46228000D02*
X43116500Y-47117000D01*
%TO.N,Net-(J3-Pin_1)*%
X42608500Y-53086000D02*
X48146500Y-53086000D01*
X48146500Y-53086000D02*
X50294500Y-55234000D01*
%TO.N,Net-(Q1-B)*%
X53276500Y-53086000D02*
X53276500Y-51435000D01*
X52260500Y-54102000D02*
X53276500Y-53086000D01*
X53276500Y-51435000D02*
X54927500Y-51435000D01*
X53276500Y-50315500D02*
X53276500Y-51435000D01*
X52194500Y-55234000D02*
X52260500Y-55168000D01*
X52260500Y-55168000D02*
X52260500Y-54102000D01*
%TO.N,Net-(U1-A0)*%
X46926500Y-51435000D02*
X46926500Y-50569500D01*
X46926500Y-50569500D02*
X47180500Y-50315500D01*
%TO.N,Net-(U1-A1)*%
X48196500Y-51435000D02*
X48196500Y-51331500D01*
X48196500Y-51331500D02*
X49212500Y-50315500D01*
%TO.N,Net-(U1-A2)*%
X50125000Y-51435000D02*
X51244500Y-50315500D01*
X49466500Y-51435000D02*
X50125000Y-51435000D01*
%TD*%
%TA.AperFunction,Conductor*%
%TO.N,GND*%
G36*
X62400562Y-57258422D02*
G01*
X62453748Y-57303731D01*
X62473996Y-57370603D01*
X62474000Y-57371645D01*
X62474000Y-62810249D01*
X62473774Y-62817736D01*
X62457686Y-63083688D01*
X62455881Y-63098552D01*
X62408532Y-63356931D01*
X62404948Y-63371470D01*
X62326803Y-63622246D01*
X62321494Y-63636247D01*
X62213684Y-63875791D01*
X62206725Y-63889050D01*
X62070831Y-64113846D01*
X62062325Y-64126169D01*
X61900323Y-64332949D01*
X61890393Y-64344157D01*
X61704657Y-64529893D01*
X61693449Y-64539823D01*
X61486669Y-64701825D01*
X61474346Y-64710331D01*
X61249550Y-64846225D01*
X61236291Y-64853184D01*
X60996747Y-64960994D01*
X60982746Y-64966303D01*
X60731970Y-65044448D01*
X60717431Y-65048032D01*
X60459052Y-65095381D01*
X60444188Y-65097186D01*
X60181987Y-65113047D01*
X60167013Y-65113047D01*
X59904811Y-65097186D01*
X59889947Y-65095381D01*
X59631568Y-65048032D01*
X59617029Y-65044448D01*
X59366253Y-64966303D01*
X59352252Y-64960994D01*
X59112708Y-64853184D01*
X59099449Y-64846225D01*
X58874653Y-64710331D01*
X58862330Y-64701825D01*
X58859948Y-64699959D01*
X58655550Y-64539823D01*
X58644342Y-64529893D01*
X58458606Y-64344157D01*
X58448676Y-64332949D01*
X58386793Y-64253961D01*
X58286670Y-64126163D01*
X58278172Y-64113852D01*
X58142271Y-63889044D01*
X58135318Y-63875798D01*
X58027503Y-63636242D01*
X58022196Y-63622246D01*
X58016982Y-63605513D01*
X57944049Y-63371463D01*
X57940467Y-63356931D01*
X57939342Y-63350793D01*
X57893117Y-63098551D01*
X57891313Y-63083688D01*
X57884173Y-62965657D01*
X57875226Y-62817736D01*
X57875113Y-62813998D01*
X58269145Y-62813998D01*
X58269145Y-62814001D01*
X58288539Y-63085160D01*
X58288540Y-63085167D01*
X58289847Y-63091174D01*
X58346325Y-63350801D01*
X58412299Y-63527683D01*
X58441330Y-63605519D01*
X58571609Y-63844107D01*
X58571610Y-63844108D01*
X58571613Y-63844113D01*
X58734529Y-64061742D01*
X58734533Y-64061746D01*
X58734538Y-64061752D01*
X58926747Y-64253961D01*
X58926753Y-64253966D01*
X58926758Y-64253971D01*
X59144387Y-64416887D01*
X59144391Y-64416889D01*
X59144392Y-64416890D01*
X59382981Y-64547169D01*
X59382980Y-64547169D01*
X59382984Y-64547170D01*
X59382987Y-64547172D01*
X59637699Y-64642175D01*
X59903340Y-64699961D01*
X60155105Y-64717967D01*
X60174499Y-64719355D01*
X60174500Y-64719355D01*
X60174501Y-64719355D01*
X60192600Y-64718060D01*
X60445660Y-64699961D01*
X60711301Y-64642175D01*
X60966013Y-64547172D01*
X60966017Y-64547169D01*
X60966019Y-64547169D01*
X61085313Y-64482029D01*
X61204613Y-64416887D01*
X61422242Y-64253971D01*
X61614471Y-64061742D01*
X61777387Y-63844113D01*
X61907672Y-63605513D01*
X62002675Y-63350801D01*
X62060461Y-63085160D01*
X62079855Y-62814000D01*
X62060461Y-62542840D01*
X62002675Y-62277199D01*
X61907672Y-62022487D01*
X61907670Y-62022484D01*
X61907669Y-62022480D01*
X61777390Y-61783892D01*
X61777389Y-61783891D01*
X61777387Y-61783887D01*
X61614471Y-61566258D01*
X61614466Y-61566253D01*
X61614461Y-61566247D01*
X61422252Y-61374038D01*
X61422246Y-61374033D01*
X61422242Y-61374029D01*
X61204613Y-61211113D01*
X61204608Y-61211110D01*
X61204607Y-61211109D01*
X60966018Y-61080830D01*
X60966019Y-61080830D01*
X60916420Y-61062330D01*
X60711301Y-60985825D01*
X60711294Y-60985823D01*
X60711293Y-60985823D01*
X60445667Y-60928040D01*
X60445660Y-60928039D01*
X60174501Y-60908645D01*
X60174499Y-60908645D01*
X59903339Y-60928039D01*
X59903332Y-60928040D01*
X59637706Y-60985823D01*
X59637702Y-60985824D01*
X59637699Y-60985825D01*
X59510343Y-61033326D01*
X59382980Y-61080830D01*
X59144392Y-61211109D01*
X59144391Y-61211110D01*
X58926759Y-61374028D01*
X58926747Y-61374038D01*
X58734538Y-61566247D01*
X58734528Y-61566259D01*
X58571610Y-61783891D01*
X58571609Y-61783892D01*
X58441330Y-62022480D01*
X58412299Y-62100317D01*
X58346325Y-62277199D01*
X58346324Y-62277202D01*
X58346323Y-62277206D01*
X58288540Y-62542832D01*
X58288539Y-62542839D01*
X58269145Y-62813998D01*
X57875113Y-62813998D01*
X57875000Y-62810249D01*
X57875000Y-60576891D01*
X57862642Y-60475118D01*
X57842912Y-60312624D01*
X57779203Y-60054148D01*
X57684803Y-59805236D01*
X57582400Y-59610122D01*
X57568676Y-59541617D01*
X57594169Y-59476564D01*
X57650785Y-59435620D01*
X57692198Y-59428500D01*
X60636135Y-59428500D01*
X60636155Y-59428501D01*
X60642269Y-59428501D01*
X60790895Y-59428501D01*
X60912475Y-59404315D01*
X60912475Y-59404316D01*
X60912481Y-59404313D01*
X60936661Y-59399505D01*
X60972523Y-59384649D01*
X60993525Y-59375951D01*
X60993528Y-59375949D01*
X60993536Y-59375946D01*
X61073970Y-59342630D01*
X61197547Y-59260059D01*
X61655463Y-58802141D01*
X61655466Y-58802140D01*
X61760559Y-58697047D01*
X61843129Y-58573471D01*
X61900005Y-58436161D01*
X61929000Y-58290393D01*
X61929000Y-57875502D01*
X61948685Y-57808463D01*
X61969460Y-57783866D01*
X61994232Y-57761285D01*
X62117588Y-57597935D01*
X62208828Y-57414701D01*
X62230733Y-57337709D01*
X62268013Y-57278618D01*
X62331322Y-57249060D01*
X62400562Y-57258422D01*
G37*
%TD.AperFunction*%
%TA.AperFunction,Conductor*%
G36*
X60444190Y-33530813D02*
G01*
X60459051Y-33532617D01*
X60717438Y-33579968D01*
X60731963Y-33583549D01*
X60982751Y-33661698D01*
X60996742Y-33667003D01*
X61236298Y-33774818D01*
X61249544Y-33781771D01*
X61474352Y-33917672D01*
X61486663Y-33926170D01*
X61693449Y-34088176D01*
X61704657Y-34098106D01*
X61890393Y-34283842D01*
X61900323Y-34295050D01*
X62062325Y-34501830D01*
X62070829Y-34514150D01*
X62102330Y-34566259D01*
X62206725Y-34738949D01*
X62213684Y-34752208D01*
X62321494Y-34991752D01*
X62326803Y-35005753D01*
X62404948Y-35256529D01*
X62408532Y-35271068D01*
X62455881Y-35529447D01*
X62457686Y-35544311D01*
X62473774Y-35810263D01*
X62474000Y-35817750D01*
X62474000Y-41416354D01*
X62454315Y-41483393D01*
X62401511Y-41529148D01*
X62332353Y-41539092D01*
X62268797Y-41510067D01*
X62231023Y-41451289D01*
X62230734Y-41450288D01*
X62208830Y-41373303D01*
X62208827Y-41373297D01*
X62151489Y-41258148D01*
X62117588Y-41190065D01*
X61994232Y-41026715D01*
X61994230Y-41026712D01*
X61842962Y-40888814D01*
X61842960Y-40888812D01*
X61668930Y-40781057D01*
X61668924Y-40781054D01*
X61518493Y-40722777D01*
X61478056Y-40707112D01*
X61276847Y-40669500D01*
X61072153Y-40669500D01*
X60870944Y-40707112D01*
X60870941Y-40707112D01*
X60870941Y-40707113D01*
X60680075Y-40781054D01*
X60680069Y-40781057D01*
X60506039Y-40888812D01*
X60506037Y-40888814D01*
X60354769Y-41026712D01*
X60231412Y-41190064D01*
X60140173Y-41373295D01*
X60140172Y-41373299D01*
X60089259Y-41552242D01*
X60084154Y-41570183D01*
X60065268Y-41773999D01*
X60065268Y-41774000D01*
X60084154Y-41977816D01*
X60084154Y-41977818D01*
X60084155Y-41977821D01*
X60140172Y-42174701D01*
X60140173Y-42174704D01*
X60231412Y-42357935D01*
X60354769Y-42521287D01*
X60494676Y-42648828D01*
X60503361Y-42656746D01*
X60506037Y-42659185D01*
X60506039Y-42659187D01*
X60680069Y-42766942D01*
X60680075Y-42766945D01*
X60720510Y-42782609D01*
X60870944Y-42840888D01*
X61072153Y-42878500D01*
X61072156Y-42878500D01*
X61276844Y-42878500D01*
X61276847Y-42878500D01*
X61478056Y-42840888D01*
X61668927Y-42766944D01*
X61842962Y-42659186D01*
X61976448Y-42537497D01*
X61994230Y-42521287D01*
X62015970Y-42492499D01*
X62117588Y-42357935D01*
X62208828Y-42174701D01*
X62230733Y-42097709D01*
X62268013Y-42038618D01*
X62331322Y-42009060D01*
X62400562Y-42018422D01*
X62453748Y-42063731D01*
X62473996Y-42130603D01*
X62474000Y-42131645D01*
X62474000Y-43956354D01*
X62454315Y-44023393D01*
X62401511Y-44069148D01*
X62332353Y-44079092D01*
X62268797Y-44050067D01*
X62231023Y-43991289D01*
X62230734Y-43990288D01*
X62208830Y-43913303D01*
X62208827Y-43913297D01*
X62134158Y-43763342D01*
X62117588Y-43730065D01*
X61994232Y-43566715D01*
X61994230Y-43566712D01*
X61842962Y-43428814D01*
X61842960Y-43428812D01*
X61668930Y-43321057D01*
X61668924Y-43321054D01*
X61518493Y-43262777D01*
X61478056Y-43247112D01*
X61276847Y-43209500D01*
X61072153Y-43209500D01*
X60870944Y-43247112D01*
X60870941Y-43247112D01*
X60870941Y-43247113D01*
X60680075Y-43321054D01*
X60680069Y-43321057D01*
X60506039Y-43428812D01*
X60506037Y-43428814D01*
X60354769Y-43566712D01*
X60231412Y-43730064D01*
X60140173Y-43913295D01*
X60140172Y-43913299D01*
X60106669Y-44031052D01*
X60084154Y-44110183D01*
X60065268Y-44313999D01*
X60065268Y-44314000D01*
X60084154Y-44517816D01*
X60084154Y-44517818D01*
X60084155Y-44517821D01*
X60138531Y-44708933D01*
X60140173Y-44714704D01*
X60231412Y-44897935D01*
X60354769Y-45061287D01*
X60506037Y-45199185D01*
X60506039Y-45199187D01*
X60680069Y-45306942D01*
X60680075Y-45306945D01*
X60720510Y-45322609D01*
X60870944Y-45380888D01*
X61072153Y-45418500D01*
X61072156Y-45418500D01*
X61276844Y-45418500D01*
X61276847Y-45418500D01*
X61478056Y-45380888D01*
X61668927Y-45306944D01*
X61842962Y-45199186D01*
X61994155Y-45061355D01*
X61994230Y-45061287D01*
X61994232Y-45061285D01*
X62117588Y-44897935D01*
X62208828Y-44714701D01*
X62230733Y-44637709D01*
X62268013Y-44578618D01*
X62331322Y-44549060D01*
X62400562Y-44558422D01*
X62453748Y-44603731D01*
X62473996Y-44670603D01*
X62474000Y-44671645D01*
X62474000Y-46496354D01*
X62454315Y-46563393D01*
X62401511Y-46609148D01*
X62332353Y-46619092D01*
X62268797Y-46590067D01*
X62231023Y-46531289D01*
X62230734Y-46530288D01*
X62208830Y-46453303D01*
X62208827Y-46453297D01*
X62197585Y-46430721D01*
X62117588Y-46270065D01*
X61994232Y-46106715D01*
X61994230Y-46106712D01*
X61842962Y-45968814D01*
X61842960Y-45968812D01*
X61668930Y-45861057D01*
X61668924Y-45861054D01*
X61503882Y-45797117D01*
X61478056Y-45787112D01*
X61276847Y-45749500D01*
X61072153Y-45749500D01*
X60870944Y-45787112D01*
X60870941Y-45787112D01*
X60870941Y-45787113D01*
X60680075Y-45861054D01*
X60680069Y-45861057D01*
X60506039Y-45968812D01*
X60506037Y-45968814D01*
X60354769Y-46106712D01*
X60231412Y-46270064D01*
X60140173Y-46453295D01*
X60140172Y-46453299D01*
X60089413Y-46631701D01*
X60084154Y-46650183D01*
X60065268Y-46853999D01*
X60065268Y-46854000D01*
X60084154Y-47057816D01*
X60084154Y-47057818D01*
X60084155Y-47057821D01*
X60133009Y-47229526D01*
X60140173Y-47254704D01*
X60231412Y-47437935D01*
X60354769Y-47601287D01*
X60506037Y-47739185D01*
X60506039Y-47739187D01*
X60680069Y-47846942D01*
X60680075Y-47846945D01*
X60720510Y-47862609D01*
X60870944Y-47920888D01*
X61072153Y-47958500D01*
X61072156Y-47958500D01*
X61276844Y-47958500D01*
X61276847Y-47958500D01*
X61478056Y-47920888D01*
X61668927Y-47846944D01*
X61842962Y-47739186D01*
X61994232Y-47601285D01*
X62117588Y-47437935D01*
X62208828Y-47254701D01*
X62230733Y-47177709D01*
X62268013Y-47118618D01*
X62331322Y-47089060D01*
X62400562Y-47098422D01*
X62453748Y-47143731D01*
X62473996Y-47210603D01*
X62474000Y-47211645D01*
X62474000Y-49036354D01*
X62454315Y-49103393D01*
X62401511Y-49149148D01*
X62332353Y-49159092D01*
X62268797Y-49130067D01*
X62231023Y-49071289D01*
X62230734Y-49070288D01*
X62208830Y-48993303D01*
X62208827Y-48993297D01*
X62178743Y-48932881D01*
X62117588Y-48810065D01*
X61994232Y-48646715D01*
X61994230Y-48646712D01*
X61842962Y-48508814D01*
X61842960Y-48508812D01*
X61668930Y-48401057D01*
X61668924Y-48401054D01*
X61479873Y-48327816D01*
X61478056Y-48327112D01*
X61276847Y-48289500D01*
X61072153Y-48289500D01*
X60870944Y-48327112D01*
X60870941Y-48327112D01*
X60870941Y-48327113D01*
X60680075Y-48401054D01*
X60680069Y-48401057D01*
X60506039Y-48508812D01*
X60506037Y-48508814D01*
X60354769Y-48646712D01*
X60231412Y-48810064D01*
X60140173Y-48993295D01*
X60084154Y-49190183D01*
X60065268Y-49393999D01*
X60065268Y-49394000D01*
X60084154Y-49597816D01*
X60084154Y-49597818D01*
X60084155Y-49597821D01*
X60139516Y-49792394D01*
X60140173Y-49794704D01*
X60231412Y-49977935D01*
X60354769Y-50141287D01*
X60506037Y-50279185D01*
X60506039Y-50279187D01*
X60680069Y-50386942D01*
X60680075Y-50386945D01*
X60720510Y-50402609D01*
X60870944Y-50460888D01*
X61072153Y-50498500D01*
X61072156Y-50498500D01*
X61276844Y-50498500D01*
X61276847Y-50498500D01*
X61478056Y-50460888D01*
X61668927Y-50386944D01*
X61842962Y-50279186D01*
X61971508Y-50162000D01*
X61994230Y-50141287D01*
X62032461Y-50090661D01*
X62117588Y-49977935D01*
X62208828Y-49794701D01*
X62230733Y-49717709D01*
X62268013Y-49658618D01*
X62331322Y-49629060D01*
X62400562Y-49638422D01*
X62453748Y-49683731D01*
X62473996Y-49750603D01*
X62474000Y-49751645D01*
X62474000Y-51576354D01*
X62454315Y-51643393D01*
X62401511Y-51689148D01*
X62332353Y-51699092D01*
X62268797Y-51670067D01*
X62231023Y-51611289D01*
X62230734Y-51610288D01*
X62208830Y-51533303D01*
X62208827Y-51533297D01*
X62159881Y-51435001D01*
X62117588Y-51350065D01*
X62040463Y-51247935D01*
X61994230Y-51186712D01*
X61842962Y-51048814D01*
X61842960Y-51048812D01*
X61668930Y-50941057D01*
X61668924Y-50941054D01*
X61479873Y-50867816D01*
X61478056Y-50867112D01*
X61276847Y-50829500D01*
X61072153Y-50829500D01*
X60870944Y-50867112D01*
X60870941Y-50867112D01*
X60870941Y-50867113D01*
X60680075Y-50941054D01*
X60680069Y-50941057D01*
X60506039Y-51048812D01*
X60506037Y-51048814D01*
X60354769Y-51186712D01*
X60231412Y-51350064D01*
X60140173Y-51533295D01*
X60127922Y-51576354D01*
X60095044Y-51691910D01*
X60084154Y-51730183D01*
X60065268Y-51933999D01*
X60065268Y-51934000D01*
X60084154Y-52137816D01*
X60084154Y-52137818D01*
X60084155Y-52137821D01*
X60139665Y-52332920D01*
X60140173Y-52334704D01*
X60231412Y-52517935D01*
X60354769Y-52681287D01*
X60506037Y-52819185D01*
X60506039Y-52819187D01*
X60680069Y-52926942D01*
X60680075Y-52926945D01*
X60720510Y-52942609D01*
X60870944Y-53000888D01*
X61072153Y-53038500D01*
X61072156Y-53038500D01*
X61276844Y-53038500D01*
X61276847Y-53038500D01*
X61478056Y-53000888D01*
X61668927Y-52926944D01*
X61842962Y-52819186D01*
X61994232Y-52681285D01*
X62117588Y-52517935D01*
X62208828Y-52334701D01*
X62230733Y-52257709D01*
X62268013Y-52198618D01*
X62331322Y-52169060D01*
X62400562Y-52178422D01*
X62453748Y-52223731D01*
X62473996Y-52290603D01*
X62474000Y-52291645D01*
X62474000Y-54116354D01*
X62454315Y-54183393D01*
X62401511Y-54229148D01*
X62332353Y-54239092D01*
X62268797Y-54210067D01*
X62231023Y-54151289D01*
X62230734Y-54150288D01*
X62208830Y-54073303D01*
X62208827Y-54073297D01*
X62192952Y-54041416D01*
X62117588Y-53890065D01*
X62023921Y-53766029D01*
X61994230Y-53726712D01*
X61842962Y-53588814D01*
X61842960Y-53588812D01*
X61668930Y-53481057D01*
X61668924Y-53481054D01*
X61514803Y-53421348D01*
X61478056Y-53407112D01*
X61276847Y-53369500D01*
X61072153Y-53369500D01*
X60870944Y-53407112D01*
X60870941Y-53407112D01*
X60870941Y-53407113D01*
X60680075Y-53481054D01*
X60680069Y-53481057D01*
X60506039Y-53588812D01*
X60506037Y-53588814D01*
X60354769Y-53726712D01*
X60231412Y-53890064D01*
X60140173Y-54073295D01*
X60084154Y-54270183D01*
X60065268Y-54473999D01*
X60065268Y-54474000D01*
X60084154Y-54677816D01*
X60084154Y-54677818D01*
X60084155Y-54677821D01*
X60110111Y-54769047D01*
X60140173Y-54874704D01*
X60231412Y-55057935D01*
X60354769Y-55221287D01*
X60506037Y-55359185D01*
X60506039Y-55359187D01*
X60680069Y-55466942D01*
X60680075Y-55466945D01*
X60720510Y-55482609D01*
X60870944Y-55540888D01*
X61072153Y-55578500D01*
X61072156Y-55578500D01*
X61276844Y-55578500D01*
X61276847Y-55578500D01*
X61478056Y-55540888D01*
X61668927Y-55466944D01*
X61842962Y-55359186D01*
X61994232Y-55221285D01*
X62117588Y-55057935D01*
X62208828Y-54874701D01*
X62230733Y-54797709D01*
X62268013Y-54738618D01*
X62331322Y-54709060D01*
X62400562Y-54718422D01*
X62453748Y-54763731D01*
X62473996Y-54830603D01*
X62474000Y-54831645D01*
X62474000Y-56656354D01*
X62454315Y-56723393D01*
X62401511Y-56769148D01*
X62332353Y-56779092D01*
X62268797Y-56750067D01*
X62231023Y-56691289D01*
X62230734Y-56690288D01*
X62208830Y-56613303D01*
X62208827Y-56613297D01*
X62176350Y-56548075D01*
X62117588Y-56430065D01*
X62058404Y-56351693D01*
X61994230Y-56266712D01*
X61842962Y-56128814D01*
X61842960Y-56128812D01*
X61668930Y-56021057D01*
X61668924Y-56021054D01*
X61518493Y-55962777D01*
X61478056Y-55947112D01*
X61276847Y-55909500D01*
X61072153Y-55909500D01*
X60870944Y-55947112D01*
X60870941Y-55947112D01*
X60870941Y-55947113D01*
X60680075Y-56021054D01*
X60680069Y-56021057D01*
X60506039Y-56128812D01*
X60506037Y-56128814D01*
X60354769Y-56266712D01*
X60231413Y-56430062D01*
X60219500Y-56453988D01*
X60171996Y-56505224D01*
X60104333Y-56522645D01*
X60037993Y-56500719D01*
X59994038Y-56446407D01*
X59984500Y-56398715D01*
X59984500Y-56116172D01*
X59984499Y-56116155D01*
X59978098Y-56056627D01*
X59978096Y-56056620D01*
X59927854Y-55921913D01*
X59927850Y-55921906D01*
X59841690Y-55806812D01*
X59841687Y-55806809D01*
X59726593Y-55720649D01*
X59726586Y-55720645D01*
X59591879Y-55670403D01*
X59591872Y-55670401D01*
X59532344Y-55664000D01*
X59246485Y-55664000D01*
X59179446Y-55644315D01*
X59133691Y-55591511D01*
X59123747Y-55522353D01*
X59152772Y-55458797D01*
X59181208Y-55434573D01*
X59302960Y-55359187D01*
X59302959Y-55359187D01*
X59302962Y-55359186D01*
X59454232Y-55221285D01*
X59577588Y-55057935D01*
X59668828Y-54874701D01*
X59724845Y-54677821D01*
X59743732Y-54474000D01*
X59724845Y-54270179D01*
X59668828Y-54073299D01*
X59577588Y-53890065D01*
X59483921Y-53766029D01*
X59454230Y-53726712D01*
X59302962Y-53588814D01*
X59302960Y-53588812D01*
X59128930Y-53481057D01*
X59128924Y-53481054D01*
X58974803Y-53421348D01*
X58938056Y-53407112D01*
X58736847Y-53369500D01*
X58532153Y-53369500D01*
X58330944Y-53407112D01*
X58330941Y-53407112D01*
X58330941Y-53407113D01*
X58140075Y-53481054D01*
X58140069Y-53481057D01*
X57966039Y-53588812D01*
X57966037Y-53588814D01*
X57814769Y-53726712D01*
X57691409Y-53890068D01*
X57688395Y-53894937D01*
X57687314Y-53894267D01*
X57644136Y-53940831D01*
X57576471Y-53958246D01*
X57510133Y-53936313D01*
X57492968Y-53921997D01*
X57373319Y-53802348D01*
X57339834Y-53741025D01*
X57337000Y-53714667D01*
X57337000Y-52298674D01*
X57356685Y-52231635D01*
X57409489Y-52185880D01*
X57478647Y-52175936D01*
X57542203Y-52204961D01*
X57579977Y-52263739D01*
X57580267Y-52264741D01*
X57600172Y-52334702D01*
X57691412Y-52517935D01*
X57814769Y-52681287D01*
X57966037Y-52819185D01*
X57966039Y-52819187D01*
X58140069Y-52926942D01*
X58140075Y-52926945D01*
X58180510Y-52942609D01*
X58330944Y-53000888D01*
X58532153Y-53038500D01*
X58532156Y-53038500D01*
X58736844Y-53038500D01*
X58736847Y-53038500D01*
X58938056Y-53000888D01*
X59128927Y-52926944D01*
X59302962Y-52819186D01*
X59454232Y-52681285D01*
X59577588Y-52517935D01*
X59668828Y-52334701D01*
X59724845Y-52137821D01*
X59743732Y-51934000D01*
X59743251Y-51928814D01*
X59734901Y-51838701D01*
X59724845Y-51730179D01*
X59668828Y-51533299D01*
X59577588Y-51350065D01*
X59500463Y-51247935D01*
X59454230Y-51186712D01*
X59302962Y-51048814D01*
X59302960Y-51048812D01*
X59128930Y-50941057D01*
X59128924Y-50941054D01*
X58939873Y-50867816D01*
X58938056Y-50867112D01*
X58736847Y-50829500D01*
X58532153Y-50829500D01*
X58330944Y-50867112D01*
X58330941Y-50867112D01*
X58330941Y-50867113D01*
X58140075Y-50941054D01*
X58140069Y-50941057D01*
X57966039Y-51048812D01*
X57966037Y-51048814D01*
X57814769Y-51186712D01*
X57691412Y-51350064D01*
X57600172Y-51533297D01*
X57600169Y-51533303D01*
X57580266Y-51603259D01*
X57542987Y-51662352D01*
X57479678Y-51691910D01*
X57410438Y-51682548D01*
X57357252Y-51637239D01*
X57337004Y-51570367D01*
X57337000Y-51569325D01*
X57337000Y-49844583D01*
X57337000Y-49844581D01*
X57302619Y-49716270D01*
X57236200Y-49601230D01*
X57142270Y-49507300D01*
X57028969Y-49393999D01*
X57525268Y-49393999D01*
X57525268Y-49394000D01*
X57544154Y-49597816D01*
X57544154Y-49597818D01*
X57544155Y-49597821D01*
X57599516Y-49792394D01*
X57600173Y-49794704D01*
X57691412Y-49977935D01*
X57814769Y-50141287D01*
X57966037Y-50279185D01*
X57966039Y-50279187D01*
X58140069Y-50386942D01*
X58140075Y-50386945D01*
X58180510Y-50402609D01*
X58330944Y-50460888D01*
X58532153Y-50498500D01*
X58532156Y-50498500D01*
X58736844Y-50498500D01*
X58736847Y-50498500D01*
X58938056Y-50460888D01*
X59128927Y-50386944D01*
X59302962Y-50279186D01*
X59431508Y-50162000D01*
X59454230Y-50141287D01*
X59492461Y-50090661D01*
X59577588Y-49977935D01*
X59668828Y-49794701D01*
X59724845Y-49597821D01*
X59743732Y-49394000D01*
X59724845Y-49190179D01*
X59668828Y-48993299D01*
X59577588Y-48810065D01*
X59454232Y-48646715D01*
X59454230Y-48646712D01*
X59302962Y-48508814D01*
X59302960Y-48508812D01*
X59128930Y-48401057D01*
X59128924Y-48401054D01*
X58939873Y-48327816D01*
X58938056Y-48327112D01*
X58736847Y-48289500D01*
X58532153Y-48289500D01*
X58330944Y-48327112D01*
X58330941Y-48327112D01*
X58330941Y-48327113D01*
X58140075Y-48401054D01*
X58140069Y-48401057D01*
X57966039Y-48508812D01*
X57966037Y-48508814D01*
X57814769Y-48646712D01*
X57691412Y-48810064D01*
X57600173Y-48993295D01*
X57544154Y-49190183D01*
X57525268Y-49393999D01*
X57028969Y-49393999D01*
X56634270Y-48999299D01*
X56608820Y-48984605D01*
X56561338Y-48957191D01*
X56561337Y-48957191D01*
X56519230Y-48932881D01*
X56519231Y-48932881D01*
X56487152Y-48924285D01*
X56390919Y-48898500D01*
X56390916Y-48898500D01*
X55564174Y-48898500D01*
X55516722Y-48889061D01*
X55453257Y-48862773D01*
X55453252Y-48862771D01*
X55308501Y-48843715D01*
X55308499Y-48843715D01*
X55163747Y-48862771D01*
X55163745Y-48862772D01*
X55028861Y-48918643D01*
X55028858Y-48918644D01*
X55028858Y-48918645D01*
X54978624Y-48957191D01*
X54913026Y-49007526D01*
X54824143Y-49123361D01*
X54768272Y-49258245D01*
X54768271Y-49258247D01*
X54749215Y-49402998D01*
X54749215Y-49403001D01*
X54768271Y-49547752D01*
X54768273Y-49547757D01*
X54824142Y-49682638D01*
X54824145Y-49682644D01*
X54913025Y-49798473D01*
X54913026Y-49798474D01*
X55028855Y-49887354D01*
X55028861Y-49887357D01*
X55049059Y-49895723D01*
X55163746Y-49943228D01*
X55236123Y-49952756D01*
X55308499Y-49962285D01*
X55308500Y-49962285D01*
X55308501Y-49962285D01*
X55356751Y-49955932D01*
X55453254Y-49943228D01*
X55498157Y-49924628D01*
X55516722Y-49916939D01*
X55564174Y-49907500D01*
X56064167Y-49907500D01*
X56131206Y-49927185D01*
X56151843Y-49943814D01*
X56291682Y-50083652D01*
X56325166Y-50144973D01*
X56328000Y-50171332D01*
X56328000Y-54041419D01*
X56362381Y-54169730D01*
X56374372Y-54190499D01*
X56428799Y-54284770D01*
X57021730Y-54877701D01*
X57136771Y-54944120D01*
X57230697Y-54969286D01*
X57230699Y-54969287D01*
X57230700Y-54969287D01*
X57239913Y-54971755D01*
X57265081Y-54978500D01*
X57265082Y-54978500D01*
X57397919Y-54978500D01*
X57575081Y-54978500D01*
X57642120Y-54998185D01*
X57686082Y-55047231D01*
X57691411Y-55057934D01*
X57814769Y-55221287D01*
X57966037Y-55359185D01*
X57966039Y-55359187D01*
X58087792Y-55434573D01*
X58134428Y-55486601D01*
X58145532Y-55555582D01*
X58117579Y-55619617D01*
X58059444Y-55658373D01*
X58022515Y-55664000D01*
X57736655Y-55664000D01*
X57677127Y-55670401D01*
X57677120Y-55670403D01*
X57542413Y-55720645D01*
X57542406Y-55720649D01*
X57427312Y-55806809D01*
X57427309Y-55806812D01*
X57341149Y-55921906D01*
X57341145Y-55921913D01*
X57290903Y-56056620D01*
X57290901Y-56056627D01*
X57284500Y-56116155D01*
X57284500Y-56764000D01*
X58201488Y-56764000D01*
X58168575Y-56821007D01*
X58134500Y-56948174D01*
X58134500Y-57079826D01*
X58168575Y-57206993D01*
X58201488Y-57264000D01*
X57284500Y-57264000D01*
X57279350Y-57269149D01*
X57264815Y-57318651D01*
X57212011Y-57364406D01*
X57142853Y-57374350D01*
X57079297Y-57345325D01*
X57072819Y-57339293D01*
X56043468Y-56309942D01*
X55978769Y-56266712D01*
X55919889Y-56227370D01*
X55919886Y-56227368D01*
X55919885Y-56227368D01*
X55839455Y-56194053D01*
X55782580Y-56170495D01*
X55758394Y-56165684D01*
X55636814Y-56141499D01*
X55636812Y-56141499D01*
X55488188Y-56141499D01*
X55482074Y-56141499D01*
X55482054Y-56141500D01*
X52799567Y-56141500D01*
X52732528Y-56121815D01*
X52686773Y-56069011D01*
X52676829Y-55999853D01*
X52689083Y-55961204D01*
X52696263Y-55947113D01*
X52733998Y-55873055D01*
X52733998Y-55873053D01*
X52733999Y-55873052D01*
X52749000Y-55778339D01*
X52749000Y-55310456D01*
X52753225Y-55278363D01*
X52765000Y-55234419D01*
X52765000Y-54362333D01*
X52784685Y-54295294D01*
X52801319Y-54274652D01*
X53235471Y-53840500D01*
X53680201Y-53395770D01*
X53741370Y-53289821D01*
X53746619Y-53280730D01*
X53781000Y-53152419D01*
X53781000Y-52063500D01*
X53800685Y-51996461D01*
X53853489Y-51950706D01*
X53905000Y-51939500D01*
X54671826Y-51939500D01*
X54719278Y-51948939D01*
X54749558Y-51961481D01*
X54782746Y-51975228D01*
X54830387Y-51981500D01*
X54927499Y-51994285D01*
X54927500Y-51994285D01*
X54927501Y-51994285D01*
X54975751Y-51987932D01*
X55072254Y-51975228D01*
X55207143Y-51919355D01*
X55322974Y-51830474D01*
X55411855Y-51714643D01*
X55467728Y-51579754D01*
X55486785Y-51435000D01*
X55467728Y-51290246D01*
X55411855Y-51155358D01*
X55322974Y-51039526D01*
X55207143Y-50950645D01*
X55207140Y-50950644D01*
X55207138Y-50950642D01*
X55072257Y-50894773D01*
X55072252Y-50894771D01*
X54927501Y-50875715D01*
X54927499Y-50875715D01*
X54782747Y-50894771D01*
X54782745Y-50894772D01*
X54744015Y-50910815D01*
X54719279Y-50921061D01*
X54671827Y-50930500D01*
X54312067Y-50930500D01*
X54245028Y-50910815D01*
X54199273Y-50858011D01*
X54189329Y-50788853D01*
X54195883Y-50763172D01*
X54224540Y-50686342D01*
X54226954Y-50663880D01*
X54230999Y-50626271D01*
X54230999Y-50626264D01*
X54231000Y-50626255D01*
X54230999Y-50004746D01*
X54224540Y-49944658D01*
X54203167Y-49887355D01*
X54173844Y-49808738D01*
X54173842Y-49808734D01*
X54173842Y-49808733D01*
X54104626Y-49716270D01*
X54086904Y-49692595D01*
X54002029Y-49629060D01*
X53970767Y-49605658D01*
X53834842Y-49554960D01*
X53834838Y-49554959D01*
X53774762Y-49548500D01*
X52778248Y-49548500D01*
X52778242Y-49548501D01*
X52718155Y-49554960D01*
X52582238Y-49605655D01*
X52582230Y-49605660D01*
X52466095Y-49692595D01*
X52379160Y-49808730D01*
X52379157Y-49808734D01*
X52376681Y-49815375D01*
X52334809Y-49871307D01*
X52269344Y-49895723D01*
X52201071Y-49880870D01*
X52151667Y-49831464D01*
X52144319Y-49815375D01*
X52141842Y-49808733D01*
X52072626Y-49716270D01*
X52054904Y-49692595D01*
X51970029Y-49629060D01*
X51938767Y-49605658D01*
X51802842Y-49554960D01*
X51802838Y-49554959D01*
X51742762Y-49548500D01*
X50746248Y-49548500D01*
X50746242Y-49548501D01*
X50686155Y-49554960D01*
X50550238Y-49605655D01*
X50550230Y-49605660D01*
X50434095Y-49692595D01*
X50347160Y-49808730D01*
X50347157Y-49808734D01*
X50344681Y-49815375D01*
X50302809Y-49871307D01*
X50237344Y-49895723D01*
X50169071Y-49880870D01*
X50119667Y-49831464D01*
X50112319Y-49815375D01*
X50109842Y-49808733D01*
X50040626Y-49716270D01*
X50022904Y-49692595D01*
X49938029Y-49629060D01*
X49906767Y-49605658D01*
X49770842Y-49554960D01*
X49770838Y-49554959D01*
X49710762Y-49548500D01*
X48714248Y-49548500D01*
X48714242Y-49548501D01*
X48654155Y-49554960D01*
X48518238Y-49605655D01*
X48518230Y-49605660D01*
X48402095Y-49692595D01*
X48315160Y-49808730D01*
X48315157Y-49808734D01*
X48312681Y-49815375D01*
X48270809Y-49871307D01*
X48205344Y-49895723D01*
X48137071Y-49880870D01*
X48087667Y-49831464D01*
X48080319Y-49815375D01*
X48077842Y-49808733D01*
X48008626Y-49716270D01*
X47990904Y-49692595D01*
X47906029Y-49629060D01*
X47874767Y-49605658D01*
X47738842Y-49554960D01*
X47738838Y-49554959D01*
X47678762Y-49548500D01*
X46682248Y-49548500D01*
X46682242Y-49548501D01*
X46622155Y-49554960D01*
X46486238Y-49605655D01*
X46486230Y-49605660D01*
X46370095Y-49692595D01*
X46283160Y-49808730D01*
X46283158Y-49808733D01*
X46232460Y-49944658D01*
X46232459Y-49944662D01*
X46226000Y-50004728D01*
X46226000Y-50626251D01*
X46226001Y-50626257D01*
X46232460Y-50686344D01*
X46283155Y-50822261D01*
X46283156Y-50822264D01*
X46283158Y-50822267D01*
X46308078Y-50855557D01*
X46370094Y-50938403D01*
X46372308Y-50940060D01*
X46373966Y-50942275D01*
X46376367Y-50944676D01*
X46376022Y-50945020D01*
X46414181Y-50995992D01*
X46422000Y-51039329D01*
X46422000Y-51179325D01*
X46412561Y-51226777D01*
X46386273Y-51290242D01*
X46386271Y-51290247D01*
X46367215Y-51434998D01*
X46367215Y-51435001D01*
X46386271Y-51579752D01*
X46386273Y-51579757D01*
X46442142Y-51714638D01*
X46442145Y-51714644D01*
X46531025Y-51830473D01*
X46531026Y-51830474D01*
X46646855Y-51919354D01*
X46646861Y-51919357D01*
X46682213Y-51934000D01*
X46781746Y-51975228D01*
X46829387Y-51981500D01*
X46926499Y-51994285D01*
X46926500Y-51994285D01*
X46926501Y-51994285D01*
X46974751Y-51987932D01*
X47071254Y-51975228D01*
X47206143Y-51919355D01*
X47321974Y-51830474D01*
X47410855Y-51714643D01*
X47446939Y-51627529D01*
X47490779Y-51573125D01*
X47557074Y-51551060D01*
X47624773Y-51568339D01*
X47672384Y-51619476D01*
X47676061Y-51627529D01*
X47712142Y-51714638D01*
X47712145Y-51714644D01*
X47801025Y-51830473D01*
X47801026Y-51830474D01*
X47916855Y-51919354D01*
X47916861Y-51919357D01*
X47952213Y-51934000D01*
X48051746Y-51975228D01*
X48099387Y-51981500D01*
X48196499Y-51994285D01*
X48196500Y-51994285D01*
X48196501Y-51994285D01*
X48244751Y-51987932D01*
X48341254Y-51975228D01*
X48476143Y-51919355D01*
X48591974Y-51830474D01*
X48680855Y-51714643D01*
X48716939Y-51627529D01*
X48760779Y-51573125D01*
X48827074Y-51551060D01*
X48894773Y-51568339D01*
X48942384Y-51619476D01*
X48946061Y-51627529D01*
X48982142Y-51714638D01*
X48982145Y-51714644D01*
X49071025Y-51830473D01*
X49071026Y-51830474D01*
X49186855Y-51919354D01*
X49186861Y-51919357D01*
X49222213Y-51934000D01*
X49321746Y-51975228D01*
X49369387Y-51981500D01*
X49466499Y-51994285D01*
X49466500Y-51994285D01*
X49466501Y-51994285D01*
X49514751Y-51987932D01*
X49611254Y-51975228D01*
X49656157Y-51956628D01*
X49674722Y-51948939D01*
X49722174Y-51939500D01*
X50191416Y-51939500D01*
X50191419Y-51939500D01*
X50319730Y-51905119D01*
X50361837Y-51880808D01*
X50423484Y-51845217D01*
X50441810Y-51834637D01*
X50443168Y-51836989D01*
X50495889Y-51816593D01*
X50498952Y-51817220D01*
X50521134Y-51754563D01*
X50533945Y-51739524D01*
X51154652Y-51118817D01*
X51215975Y-51085333D01*
X51242333Y-51082499D01*
X51742751Y-51082499D01*
X51742754Y-51082499D01*
X51802842Y-51076040D01*
X51938767Y-51025342D01*
X52054904Y-50938404D01*
X52141842Y-50822267D01*
X52144317Y-50815631D01*
X52186182Y-50759698D01*
X52251645Y-50735276D01*
X52319919Y-50750124D01*
X52369327Y-50799526D01*
X52376678Y-50815620D01*
X52379155Y-50822260D01*
X52379158Y-50822267D01*
X52405915Y-50858011D01*
X52466095Y-50938404D01*
X52523943Y-50981707D01*
X52582233Y-51025342D01*
X52691336Y-51066036D01*
X52747267Y-51107906D01*
X52771684Y-51173370D01*
X52772000Y-51182216D01*
X52772000Y-52825666D01*
X52752315Y-52892705D01*
X52735681Y-52913347D01*
X52256181Y-53392847D01*
X52194858Y-53426332D01*
X52125166Y-53421348D01*
X52069233Y-53379476D01*
X52044816Y-53314012D01*
X52044500Y-53305166D01*
X52044500Y-53209000D01*
X51494500Y-53209000D01*
X51494500Y-54118795D01*
X51494501Y-54118795D01*
X51496988Y-54118600D01*
X51496994Y-54118599D01*
X51597405Y-54089427D01*
X51667274Y-54089626D01*
X51725944Y-54127568D01*
X51754788Y-54191206D01*
X51756000Y-54208503D01*
X51756000Y-54386588D01*
X51736315Y-54453627D01*
X51719681Y-54474269D01*
X51713178Y-54480771D01*
X51713175Y-54480776D01*
X51655000Y-54594947D01*
X51640000Y-54689660D01*
X51640000Y-55778339D01*
X51655000Y-55873052D01*
X51655001Y-55873054D01*
X51655002Y-55873055D01*
X51692736Y-55947112D01*
X51699917Y-55961204D01*
X51712814Y-56029873D01*
X51686538Y-56094614D01*
X51629432Y-56134871D01*
X51589433Y-56141500D01*
X50899567Y-56141500D01*
X50832528Y-56121815D01*
X50786773Y-56069011D01*
X50776829Y-55999853D01*
X50789083Y-55961204D01*
X50796263Y-55947113D01*
X50833998Y-55873055D01*
X50833998Y-55873053D01*
X50833999Y-55873052D01*
X50849000Y-55778339D01*
X50849000Y-54689660D01*
X50833999Y-54594947D01*
X50833998Y-54594945D01*
X50775826Y-54480777D01*
X50775822Y-54480773D01*
X50775821Y-54480771D01*
X50685228Y-54390178D01*
X50685225Y-54390176D01*
X50685223Y-54390174D01*
X50571055Y-54332002D01*
X50571054Y-54332001D01*
X50571051Y-54332000D01*
X50571052Y-54332000D01*
X50476339Y-54317000D01*
X50476334Y-54317000D01*
X50142333Y-54317000D01*
X50075294Y-54297315D01*
X50054652Y-54280681D01*
X49311120Y-53537149D01*
X50444500Y-53537149D01*
X50447399Y-53573989D01*
X50447400Y-53573995D01*
X50493216Y-53731693D01*
X50493217Y-53731696D01*
X50576814Y-53873052D01*
X50576821Y-53873061D01*
X50692938Y-53989178D01*
X50692947Y-53989185D01*
X50834301Y-54072781D01*
X50992014Y-54118600D01*
X50992011Y-54118600D01*
X50994498Y-54118795D01*
X50994500Y-54118795D01*
X50994500Y-53209000D01*
X50444500Y-53209000D01*
X50444500Y-53537149D01*
X49311120Y-53537149D01*
X48456272Y-52682301D01*
X48456270Y-52682299D01*
X48430820Y-52667605D01*
X48383338Y-52640191D01*
X48383337Y-52640191D01*
X48341230Y-52615881D01*
X48341231Y-52615881D01*
X48309152Y-52607285D01*
X48212919Y-52581500D01*
X48212916Y-52581500D01*
X43836999Y-52581500D01*
X43769960Y-52561815D01*
X43724205Y-52509011D01*
X43712999Y-52457500D01*
X43712999Y-52380850D01*
X50444500Y-52380850D01*
X50444500Y-52709000D01*
X50994500Y-52709000D01*
X51494500Y-52709000D01*
X52044500Y-52709000D01*
X52044500Y-52380865D01*
X52044499Y-52380850D01*
X52041600Y-52344010D01*
X52041599Y-52344004D01*
X51995783Y-52186306D01*
X51995782Y-52186303D01*
X51912185Y-52044947D01*
X51912178Y-52044938D01*
X51796061Y-51928821D01*
X51796052Y-51928814D01*
X51654696Y-51845217D01*
X51654693Y-51845216D01*
X51496994Y-51799400D01*
X51496997Y-51799400D01*
X51494500Y-51799203D01*
X51494500Y-52709000D01*
X50994500Y-52709000D01*
X50994500Y-51799203D01*
X50992003Y-51799400D01*
X50834306Y-51845216D01*
X50834303Y-51845217D01*
X50686229Y-51932788D01*
X50684730Y-51930253D01*
X50632549Y-51950719D01*
X50629110Y-51950031D01*
X50606398Y-52013261D01*
X50593919Y-52027840D01*
X50576822Y-52044936D01*
X50576814Y-52044947D01*
X50493217Y-52186303D01*
X50493216Y-52186306D01*
X50447400Y-52344004D01*
X50447399Y-52344010D01*
X50444500Y-52380850D01*
X43712999Y-52380850D01*
X43712999Y-52210936D01*
X43712999Y-52210934D01*
X43698234Y-52136699D01*
X43669071Y-52093054D01*
X43641984Y-52052515D01*
X43583235Y-52013261D01*
X43557801Y-51996266D01*
X43557799Y-51996265D01*
X43557796Y-51996264D01*
X43483569Y-51981500D01*
X41733436Y-51981500D01*
X41659198Y-51996266D01*
X41575015Y-52052515D01*
X41518766Y-52136699D01*
X41518764Y-52136703D01*
X41504000Y-52210928D01*
X41504000Y-53961063D01*
X41518766Y-54035301D01*
X41575015Y-54119484D01*
X41587114Y-54127568D01*
X41659199Y-54175734D01*
X41659202Y-54175734D01*
X41659203Y-54175735D01*
X41684166Y-54180700D01*
X41733433Y-54190500D01*
X43483566Y-54190499D01*
X43557801Y-54175734D01*
X43641984Y-54119484D01*
X43698234Y-54035301D01*
X43713000Y-53961067D01*
X43713000Y-53714500D01*
X43732685Y-53647461D01*
X43785489Y-53601706D01*
X43837000Y-53590500D01*
X47886167Y-53590500D01*
X47953206Y-53610185D01*
X47973848Y-53626819D01*
X49703681Y-55356652D01*
X49737166Y-55417975D01*
X49740000Y-55444333D01*
X49740000Y-55778339D01*
X49755000Y-55873052D01*
X49755001Y-55873054D01*
X49755002Y-55873055D01*
X49792736Y-55947112D01*
X49799917Y-55961204D01*
X49812814Y-56029873D01*
X49786538Y-56094614D01*
X49729432Y-56134871D01*
X49689433Y-56141500D01*
X43040305Y-56141500D01*
X42973266Y-56121815D01*
X42952624Y-56105181D01*
X40871512Y-54024068D01*
X40838027Y-53962745D01*
X40843011Y-53893053D01*
X40875655Y-53844750D01*
X40888232Y-53833285D01*
X41011588Y-53669935D01*
X41102828Y-53486701D01*
X41158845Y-53289821D01*
X41177732Y-53086000D01*
X41158845Y-52882179D01*
X41102828Y-52685299D01*
X41011588Y-52502065D01*
X40888232Y-52338715D01*
X40888230Y-52338712D01*
X40736962Y-52200814D01*
X40736960Y-52200812D01*
X40562930Y-52093057D01*
X40562924Y-52093054D01*
X40412493Y-52034777D01*
X40372056Y-52019112D01*
X40170847Y-51981500D01*
X39966153Y-51981500D01*
X39764944Y-52019112D01*
X39764941Y-52019112D01*
X39764941Y-52019113D01*
X39574075Y-52093054D01*
X39574069Y-52093057D01*
X39400039Y-52200812D01*
X39400037Y-52200814D01*
X39248769Y-52338712D01*
X39125412Y-52502064D01*
X39034173Y-52685295D01*
X38978154Y-52882183D01*
X38959268Y-53085999D01*
X38959268Y-53086000D01*
X38978154Y-53289816D01*
X38978154Y-53289818D01*
X38978155Y-53289821D01*
X39034172Y-53486701D01*
X39125412Y-53669935D01*
X39248768Y-53833285D01*
X39273537Y-53855865D01*
X39309819Y-53915575D01*
X39314000Y-53947502D01*
X39314000Y-54208633D01*
X39313999Y-54208659D01*
X39313999Y-54213769D01*
X39313999Y-54362393D01*
X39313999Y-54362395D01*
X39313998Y-54362395D01*
X39342993Y-54508154D01*
X39342996Y-54508164D01*
X39399866Y-54645462D01*
X39399872Y-54645473D01*
X39482442Y-54769049D01*
X39482443Y-54769050D01*
X42086019Y-57372624D01*
X42086040Y-57372647D01*
X42195450Y-57482057D01*
X42293323Y-57547453D01*
X42293322Y-57547453D01*
X42312623Y-57560348D01*
X42319029Y-57564629D01*
X42456339Y-57621505D01*
X42602102Y-57650499D01*
X42602106Y-57650500D01*
X42602107Y-57650500D01*
X42750731Y-57650500D01*
X55198613Y-57650500D01*
X55265652Y-57670185D01*
X55286294Y-57686819D01*
X55669045Y-58069570D01*
X55897295Y-58297819D01*
X55930780Y-58359142D01*
X55925796Y-58428833D01*
X55883925Y-58484767D01*
X55818460Y-58509184D01*
X55809614Y-58509500D01*
X36135567Y-58509500D01*
X36127457Y-58509235D01*
X35904721Y-58494636D01*
X35888640Y-58492518D01*
X35673728Y-58449769D01*
X35658061Y-58445571D01*
X35450557Y-58375133D01*
X35435571Y-58368926D01*
X35239039Y-58272007D01*
X35224992Y-58263897D01*
X35042791Y-58142154D01*
X35029923Y-58132280D01*
X34865171Y-57987797D01*
X34853702Y-57976328D01*
X34765280Y-57875502D01*
X34709216Y-57811573D01*
X34699345Y-57798708D01*
X34577602Y-57616507D01*
X34569492Y-57602460D01*
X34542365Y-57547452D01*
X34472570Y-57405921D01*
X34466366Y-57390942D01*
X34395928Y-57183438D01*
X34391730Y-57167771D01*
X34361143Y-57014000D01*
X34348979Y-56952848D01*
X34346864Y-56936790D01*
X34332265Y-56714043D01*
X34332000Y-56705933D01*
X34332000Y-52953999D01*
X34927864Y-52953999D01*
X34927864Y-52954000D01*
X35825488Y-52954000D01*
X35792575Y-53011007D01*
X35758500Y-53138174D01*
X35758500Y-53269826D01*
X35792575Y-53396993D01*
X35825488Y-53454000D01*
X34927864Y-53454000D01*
X34985067Y-53667486D01*
X34985070Y-53667492D01*
X35084899Y-53881578D01*
X35220394Y-54075082D01*
X35387417Y-54242105D01*
X35580921Y-54377600D01*
X35795007Y-54477429D01*
X35795016Y-54477433D01*
X36008500Y-54534634D01*
X36008500Y-53637012D01*
X36065507Y-53669925D01*
X36192674Y-53704000D01*
X36324326Y-53704000D01*
X36451493Y-53669925D01*
X36508500Y-53637012D01*
X36508500Y-54534633D01*
X36721983Y-54477433D01*
X36721992Y-54477429D01*
X36936078Y-54377600D01*
X37129582Y-54242105D01*
X37296605Y-54075082D01*
X37432100Y-53881578D01*
X37531929Y-53667492D01*
X37531932Y-53667486D01*
X37589136Y-53454000D01*
X36691512Y-53454000D01*
X36724425Y-53396993D01*
X36758500Y-53269826D01*
X36758500Y-53138174D01*
X36724425Y-53011007D01*
X36691512Y-52954000D01*
X37589136Y-52954000D01*
X37589135Y-52953999D01*
X37531932Y-52740513D01*
X37531929Y-52740507D01*
X37432100Y-52526422D01*
X37432099Y-52526420D01*
X37296613Y-52332926D01*
X37296608Y-52332920D01*
X37129582Y-52165894D01*
X36936078Y-52030399D01*
X36721992Y-51930570D01*
X36721977Y-51930564D01*
X36689460Y-51921851D01*
X36629800Y-51885486D01*
X36599272Y-51822638D01*
X36607567Y-51753263D01*
X36652053Y-51699386D01*
X36676757Y-51686452D01*
X36752927Y-51656944D01*
X36926962Y-51549186D01*
X37078232Y-51411285D01*
X37201588Y-51247935D01*
X37292828Y-51064701D01*
X37348845Y-50867821D01*
X37367732Y-50664000D01*
X37348845Y-50460179D01*
X37292828Y-50263299D01*
X37201588Y-50080065D01*
X37078232Y-49916715D01*
X37078230Y-49916712D01*
X36926962Y-49778814D01*
X36926960Y-49778812D01*
X36752930Y-49671057D01*
X36752924Y-49671054D01*
X36584118Y-49605659D01*
X36562056Y-49597112D01*
X36360847Y-49559500D01*
X36156153Y-49559500D01*
X35954944Y-49597112D01*
X35954941Y-49597112D01*
X35954941Y-49597113D01*
X35764075Y-49671054D01*
X35764069Y-49671057D01*
X35590039Y-49778812D01*
X35590037Y-49778814D01*
X35438769Y-49916712D01*
X35315412Y-50080064D01*
X35224173Y-50263295D01*
X35224172Y-50263299D01*
X35174466Y-50438000D01*
X35168154Y-50460183D01*
X35149268Y-50663999D01*
X35149268Y-50664000D01*
X35168154Y-50867816D01*
X35168154Y-50867818D01*
X35168155Y-50867821D01*
X35212974Y-51025344D01*
X35224173Y-51064704D01*
X35315412Y-51247935D01*
X35438769Y-51411287D01*
X35590037Y-51549185D01*
X35590039Y-51549187D01*
X35764069Y-51656942D01*
X35764071Y-51656943D01*
X35764073Y-51656944D01*
X35830164Y-51682548D01*
X35840237Y-51686450D01*
X35895639Y-51729023D01*
X35919230Y-51794789D01*
X35903519Y-51862870D01*
X35853496Y-51911649D01*
X35827540Y-51921851D01*
X35795019Y-51930565D01*
X35795007Y-51930570D01*
X35580922Y-52030399D01*
X35580920Y-52030400D01*
X35387426Y-52165886D01*
X35387420Y-52165891D01*
X35220391Y-52332920D01*
X35220386Y-52332926D01*
X35084900Y-52526420D01*
X35084899Y-52526422D01*
X34985070Y-52740507D01*
X34985067Y-52740513D01*
X34927864Y-52953999D01*
X34332000Y-52953999D01*
X34332000Y-49270155D01*
X40880500Y-49270155D01*
X40880500Y-49788000D01*
X41784814Y-49788000D01*
X41780420Y-49792394D01*
X41727759Y-49883606D01*
X41700500Y-49985339D01*
X41700500Y-50090661D01*
X41727759Y-50192394D01*
X41780420Y-50283606D01*
X41784814Y-50288000D01*
X40880500Y-50288000D01*
X40880500Y-50805844D01*
X40886901Y-50865372D01*
X40886903Y-50865379D01*
X40937145Y-51000086D01*
X40937149Y-51000093D01*
X41023309Y-51115187D01*
X41023312Y-51115190D01*
X41138406Y-51201350D01*
X41138413Y-51201354D01*
X41273120Y-51251596D01*
X41273127Y-51251598D01*
X41332655Y-51257999D01*
X41332672Y-51258000D01*
X41850500Y-51258000D01*
X41850500Y-50353686D01*
X41854894Y-50358080D01*
X41946106Y-50410741D01*
X42047839Y-50438000D01*
X42153161Y-50438000D01*
X42254894Y-50410741D01*
X42346106Y-50358080D01*
X42350500Y-50353686D01*
X42350500Y-51258000D01*
X42868328Y-51258000D01*
X42868344Y-51257999D01*
X42927872Y-51251598D01*
X42927879Y-51251596D01*
X43062586Y-51201354D01*
X43062593Y-51201350D01*
X43177687Y-51115190D01*
X43177690Y-51115187D01*
X43263850Y-51000093D01*
X43263854Y-51000086D01*
X43314096Y-50865379D01*
X43314098Y-50865372D01*
X43320499Y-50805844D01*
X43320500Y-50805827D01*
X43320500Y-50288000D01*
X42416186Y-50288000D01*
X42420580Y-50283606D01*
X42473241Y-50192394D01*
X42500500Y-50090661D01*
X42500500Y-49985339D01*
X42473241Y-49883606D01*
X42420580Y-49792394D01*
X42416186Y-49788000D01*
X43320500Y-49788000D01*
X43320500Y-49270172D01*
X43320499Y-49270155D01*
X43314098Y-49210627D01*
X43314096Y-49210620D01*
X43263854Y-49075913D01*
X43263850Y-49075906D01*
X43177690Y-48960812D01*
X43177687Y-48960809D01*
X43062593Y-48874649D01*
X43062586Y-48874645D01*
X42927879Y-48824403D01*
X42927872Y-48824401D01*
X42868344Y-48818000D01*
X42350500Y-48818000D01*
X42350500Y-49722314D01*
X42346106Y-49717920D01*
X42254894Y-49665259D01*
X42153161Y-49638000D01*
X42047839Y-49638000D01*
X41946106Y-49665259D01*
X41854894Y-49717920D01*
X41850500Y-49722314D01*
X41850500Y-48818000D01*
X41332655Y-48818000D01*
X41273127Y-48824401D01*
X41273120Y-48824403D01*
X41138413Y-48874645D01*
X41138406Y-48874649D01*
X41023312Y-48960809D01*
X41023309Y-48960812D01*
X40937149Y-49075906D01*
X40937145Y-49075913D01*
X40886903Y-49210620D01*
X40886901Y-49210627D01*
X40880500Y-49270155D01*
X34332000Y-49270155D01*
X34332000Y-48123999D01*
X35149268Y-48123999D01*
X35149268Y-48124000D01*
X35168154Y-48327816D01*
X35168154Y-48327818D01*
X35168155Y-48327821D01*
X35205308Y-48458400D01*
X35224173Y-48524704D01*
X35315412Y-48707935D01*
X35438769Y-48871287D01*
X35590037Y-49009185D01*
X35590039Y-49009187D01*
X35764069Y-49116942D01*
X35764075Y-49116945D01*
X35780629Y-49123358D01*
X35954944Y-49190888D01*
X36156153Y-49228500D01*
X36156156Y-49228500D01*
X36360844Y-49228500D01*
X36360847Y-49228500D01*
X36562056Y-49190888D01*
X36752927Y-49116944D01*
X36926962Y-49009186D01*
X37078232Y-48871285D01*
X37201588Y-48707935D01*
X37206918Y-48697231D01*
X37254420Y-48645993D01*
X37317919Y-48628500D01*
X37603916Y-48628500D01*
X37603919Y-48628500D01*
X37732230Y-48594119D01*
X37796662Y-48556919D01*
X37847270Y-48527701D01*
X38717152Y-47657819D01*
X38778475Y-47624334D01*
X38804833Y-47621500D01*
X43182916Y-47621500D01*
X43182919Y-47621500D01*
X43311230Y-47587119D01*
X43360659Y-47558581D01*
X43426270Y-47520701D01*
X43456862Y-47490107D01*
X43518183Y-47456623D01*
X43587875Y-47461607D01*
X43643809Y-47503477D01*
X43667946Y-47565635D01*
X43680099Y-47689033D01*
X43735824Y-47872733D01*
X43826310Y-48042021D01*
X43826312Y-48042024D01*
X43948089Y-48190410D01*
X44096475Y-48312187D01*
X44096478Y-48312189D01*
X44265766Y-48402675D01*
X44265768Y-48402675D01*
X44265771Y-48402677D01*
X44449465Y-48458400D01*
X44640500Y-48477215D01*
X44831535Y-48458400D01*
X45015229Y-48402677D01*
X45018266Y-48401054D01*
X45128091Y-48342351D01*
X45184523Y-48312188D01*
X45332910Y-48190410D01*
X45454688Y-48042023D01*
X45499332Y-47958500D01*
X45545175Y-47872733D01*
X45545175Y-47872732D01*
X45545177Y-47872729D01*
X45600900Y-47689035D01*
X45619715Y-47498000D01*
X45600900Y-47306965D01*
X45545177Y-47123271D01*
X45545175Y-47123268D01*
X45545175Y-47123266D01*
X45454689Y-46953978D01*
X45454687Y-46953976D01*
X45439249Y-46935164D01*
X45411937Y-46870854D01*
X45423728Y-46801987D01*
X45470881Y-46750427D01*
X45535103Y-46732500D01*
X46433705Y-46732500D01*
X46500744Y-46752185D01*
X46521386Y-46768819D01*
X46689832Y-46937265D01*
X46723317Y-46998588D01*
X46718333Y-47068280D01*
X46676461Y-47124213D01*
X46649606Y-47139506D01*
X46646862Y-47140642D01*
X46646861Y-47140642D01*
X46578711Y-47192936D01*
X46531026Y-47229526D01*
X46518305Y-47246105D01*
X46442143Y-47345361D01*
X46386272Y-47480245D01*
X46386271Y-47480247D01*
X46367215Y-47624998D01*
X46367215Y-47625001D01*
X46387333Y-47777812D01*
X46385479Y-47778056D01*
X46384058Y-47837567D01*
X46365217Y-47874111D01*
X46283160Y-47983729D01*
X46283160Y-47983730D01*
X46283158Y-47983733D01*
X46232460Y-48119658D01*
X46232459Y-48119662D01*
X46226000Y-48179728D01*
X46226000Y-48801251D01*
X46226001Y-48801257D01*
X46232460Y-48861344D01*
X46283155Y-48997261D01*
X46283156Y-48997264D01*
X46283158Y-48997267D01*
X46292081Y-49009187D01*
X46370095Y-49113404D01*
X46392355Y-49130067D01*
X46486233Y-49200342D01*
X46622158Y-49251040D01*
X46682245Y-49257500D01*
X47678754Y-49257499D01*
X47738842Y-49251040D01*
X47874767Y-49200342D01*
X47990904Y-49113404D01*
X48042342Y-49044689D01*
X48098276Y-49002818D01*
X48141610Y-48995000D01*
X48251390Y-48995000D01*
X48318429Y-49014685D01*
X48350657Y-49044689D01*
X48402096Y-49113404D01*
X48518233Y-49200342D01*
X48654158Y-49251040D01*
X48714245Y-49257500D01*
X49710754Y-49257499D01*
X49770842Y-49251040D01*
X49906767Y-49200342D01*
X50022904Y-49113404D01*
X50074342Y-49044689D01*
X50130276Y-49002818D01*
X50173610Y-48995000D01*
X50283390Y-48995000D01*
X50350429Y-49014685D01*
X50382657Y-49044689D01*
X50434096Y-49113404D01*
X50550233Y-49200342D01*
X50686158Y-49251040D01*
X50746245Y-49257500D01*
X51742754Y-49257499D01*
X51802842Y-49251040D01*
X51938767Y-49200342D01*
X52054904Y-49113404D01*
X52106342Y-49044689D01*
X52162276Y-49002818D01*
X52205610Y-48995000D01*
X52315390Y-48995000D01*
X52382429Y-49014685D01*
X52414657Y-49044689D01*
X52466096Y-49113404D01*
X52582233Y-49200342D01*
X52718158Y-49251040D01*
X52778245Y-49257500D01*
X53774754Y-49257499D01*
X53834842Y-49251040D01*
X53970767Y-49200342D01*
X54086904Y-49113404D01*
X54173842Y-48997267D01*
X54224540Y-48861342D01*
X54227300Y-48835664D01*
X54230999Y-48801271D01*
X54230999Y-48801264D01*
X54231000Y-48801255D01*
X54230999Y-48179746D01*
X54224540Y-48119658D01*
X54173842Y-47983733D01*
X54126267Y-47920179D01*
X54086904Y-47867595D01*
X54009626Y-47809747D01*
X53970767Y-47780658D01*
X53834842Y-47729960D01*
X53834838Y-47729959D01*
X53774762Y-47723500D01*
X52778248Y-47723500D01*
X52778242Y-47723501D01*
X52718155Y-47729960D01*
X52582238Y-47780655D01*
X52582230Y-47780660D01*
X52466097Y-47867594D01*
X52414658Y-47936310D01*
X52358724Y-47978182D01*
X52315390Y-47986000D01*
X52205610Y-47986000D01*
X52138571Y-47966315D01*
X52106342Y-47936310D01*
X52058746Y-47872729D01*
X52054904Y-47867596D01*
X52054902Y-47867595D01*
X52054902Y-47867594D01*
X51996835Y-47824127D01*
X51938767Y-47780658D01*
X51802842Y-47729960D01*
X51802838Y-47729959D01*
X51742762Y-47723500D01*
X50746248Y-47723500D01*
X50746242Y-47723501D01*
X50686155Y-47729960D01*
X50550238Y-47780655D01*
X50550230Y-47780660D01*
X50434097Y-47867594D01*
X50382658Y-47936310D01*
X50326724Y-47978182D01*
X50283390Y-47986000D01*
X50173610Y-47986000D01*
X50106571Y-47966315D01*
X50074342Y-47936310D01*
X50026746Y-47872729D01*
X50022904Y-47867596D01*
X50022902Y-47867595D01*
X50022902Y-47867594D01*
X49964835Y-47824127D01*
X49906767Y-47780658D01*
X49770842Y-47729960D01*
X49770838Y-47729959D01*
X49710771Y-47723500D01*
X49710755Y-47723500D01*
X48863613Y-47723500D01*
X48796574Y-47703815D01*
X48750819Y-47651011D01*
X48740674Y-47615684D01*
X48738778Y-47601285D01*
X48736728Y-47585708D01*
X48680855Y-47450820D01*
X48591974Y-47334988D01*
X48476143Y-47246107D01*
X48476139Y-47246105D01*
X48412673Y-47219816D01*
X48372445Y-47192936D01*
X48033508Y-46853999D01*
X57525268Y-46853999D01*
X57525268Y-46854000D01*
X57544154Y-47057816D01*
X57544154Y-47057818D01*
X57544155Y-47057821D01*
X57593009Y-47229526D01*
X57600173Y-47254704D01*
X57691412Y-47437935D01*
X57814769Y-47601287D01*
X57966037Y-47739185D01*
X57966039Y-47739187D01*
X58140069Y-47846942D01*
X58140075Y-47846945D01*
X58180510Y-47862609D01*
X58330944Y-47920888D01*
X58532153Y-47958500D01*
X58532156Y-47958500D01*
X58736844Y-47958500D01*
X58736847Y-47958500D01*
X58938056Y-47920888D01*
X59128927Y-47846944D01*
X59302962Y-47739186D01*
X59454232Y-47601285D01*
X59577588Y-47437935D01*
X59668828Y-47254701D01*
X59724845Y-47057821D01*
X59743732Y-46854000D01*
X59724845Y-46650179D01*
X59668828Y-46453299D01*
X59577588Y-46270065D01*
X59454232Y-46106715D01*
X59454230Y-46106712D01*
X59302962Y-45968814D01*
X59302960Y-45968812D01*
X59128930Y-45861057D01*
X59128924Y-45861054D01*
X58963882Y-45797117D01*
X58938056Y-45787112D01*
X58736847Y-45749500D01*
X58532153Y-45749500D01*
X58330944Y-45787112D01*
X58330941Y-45787112D01*
X58330941Y-45787113D01*
X58140075Y-45861054D01*
X58140069Y-45861057D01*
X57966039Y-45968812D01*
X57966037Y-45968814D01*
X57814769Y-46106712D01*
X57691412Y-46270064D01*
X57600173Y-46453295D01*
X57600172Y-46453299D01*
X57549413Y-46631701D01*
X57544154Y-46650183D01*
X57525268Y-46853999D01*
X48033508Y-46853999D01*
X47222690Y-46043181D01*
X47189205Y-45981858D01*
X47194189Y-45912166D01*
X47236061Y-45856233D01*
X47301525Y-45831816D01*
X47310371Y-45831500D01*
X48782916Y-45831500D01*
X48782919Y-45831500D01*
X48911230Y-45797119D01*
X48979192Y-45757881D01*
X49026270Y-45730701D01*
X49642448Y-45114521D01*
X49682671Y-45087645D01*
X49746143Y-45061355D01*
X49861974Y-44972474D01*
X49950855Y-44856643D01*
X49977145Y-44793172D01*
X50004020Y-44752949D01*
X50124201Y-44632770D01*
X50133134Y-44617297D01*
X50191041Y-44517000D01*
X50241607Y-44468784D01*
X50298428Y-44454999D01*
X50472751Y-44454999D01*
X50472754Y-44454999D01*
X50532842Y-44448540D01*
X50668767Y-44397842D01*
X50780770Y-44313999D01*
X57525268Y-44313999D01*
X57525268Y-44314000D01*
X57544154Y-44517816D01*
X57544154Y-44517818D01*
X57544155Y-44517821D01*
X57598531Y-44708933D01*
X57600173Y-44714704D01*
X57691412Y-44897935D01*
X57814769Y-45061287D01*
X57966037Y-45199185D01*
X57966039Y-45199187D01*
X58140069Y-45306942D01*
X58140075Y-45306945D01*
X58180510Y-45322609D01*
X58330944Y-45380888D01*
X58532153Y-45418500D01*
X58532156Y-45418500D01*
X58736844Y-45418500D01*
X58736847Y-45418500D01*
X58938056Y-45380888D01*
X59128927Y-45306944D01*
X59302962Y-45199186D01*
X59454155Y-45061355D01*
X59454230Y-45061287D01*
X59454232Y-45061285D01*
X59577588Y-44897935D01*
X59668828Y-44714701D01*
X59724845Y-44517821D01*
X59743732Y-44314000D01*
X59724845Y-44110179D01*
X59668828Y-43913299D01*
X59577588Y-43730065D01*
X59454232Y-43566715D01*
X59454230Y-43566712D01*
X59302962Y-43428814D01*
X59302960Y-43428812D01*
X59128930Y-43321057D01*
X59128924Y-43321054D01*
X58978493Y-43262777D01*
X58938056Y-43247112D01*
X58736847Y-43209500D01*
X58532153Y-43209500D01*
X58330944Y-43247112D01*
X58330941Y-43247112D01*
X58330941Y-43247113D01*
X58140075Y-43321054D01*
X58140069Y-43321057D01*
X57966039Y-43428812D01*
X57966037Y-43428814D01*
X57814769Y-43566712D01*
X57691412Y-43730064D01*
X57600173Y-43913295D01*
X57600172Y-43913299D01*
X57566669Y-44031052D01*
X57544154Y-44110183D01*
X57525268Y-44313999D01*
X50780770Y-44313999D01*
X50784904Y-44310904D01*
X50871842Y-44194767D01*
X50922540Y-44058842D01*
X50928845Y-44000201D01*
X50928999Y-43998771D01*
X50928999Y-43998764D01*
X50929000Y-43998755D01*
X50928999Y-43377246D01*
X50922540Y-43317158D01*
X50922539Y-43317155D01*
X50871844Y-43181238D01*
X50871842Y-43181234D01*
X50871842Y-43181233D01*
X50828207Y-43122943D01*
X50784904Y-43065095D01*
X50707626Y-43007247D01*
X50668767Y-42978158D01*
X50532842Y-42927460D01*
X50532838Y-42927459D01*
X50472762Y-42921000D01*
X49476248Y-42921000D01*
X49476242Y-42921001D01*
X49416155Y-42927460D01*
X49280238Y-42978155D01*
X49280230Y-42978160D01*
X49164095Y-43065095D01*
X49077160Y-43181230D01*
X49077157Y-43181234D01*
X49074681Y-43187875D01*
X49032809Y-43243807D01*
X48967344Y-43268223D01*
X48899071Y-43253370D01*
X48849667Y-43203964D01*
X48842319Y-43187875D01*
X48841656Y-43186097D01*
X48839842Y-43181233D01*
X48796207Y-43122943D01*
X48752904Y-43065095D01*
X48675626Y-43007247D01*
X48636767Y-42978158D01*
X48500842Y-42927460D01*
X48500838Y-42927459D01*
X48440762Y-42921000D01*
X47444248Y-42921000D01*
X47444242Y-42921001D01*
X47384155Y-42927460D01*
X47248238Y-42978155D01*
X47248230Y-42978160D01*
X47132095Y-43065095D01*
X47045160Y-43181230D01*
X47045156Y-43181236D01*
X47027180Y-43229432D01*
X46985308Y-43285365D01*
X46919843Y-43309781D01*
X46851570Y-43294928D01*
X46802166Y-43245522D01*
X46786999Y-43186098D01*
X46786999Y-42656746D01*
X46780540Y-42596658D01*
X46779711Y-42588945D01*
X46781429Y-42588760D01*
X46784650Y-42528504D01*
X46813910Y-42482059D01*
X46892153Y-42403818D01*
X46953476Y-42370333D01*
X46979833Y-42367500D01*
X46981390Y-42367500D01*
X47048429Y-42387185D01*
X47080657Y-42417189D01*
X47132096Y-42485904D01*
X47248233Y-42572842D01*
X47384158Y-42623540D01*
X47444245Y-42630000D01*
X48440754Y-42629999D01*
X48500842Y-42623540D01*
X48636767Y-42572842D01*
X48752904Y-42485904D01*
X48804342Y-42417189D01*
X48860276Y-42375318D01*
X48903610Y-42367500D01*
X49013390Y-42367500D01*
X49080429Y-42387185D01*
X49112657Y-42417189D01*
X49164096Y-42485904D01*
X49280233Y-42572842D01*
X49416158Y-42623540D01*
X49476245Y-42630000D01*
X50472754Y-42629999D01*
X50532842Y-42623540D01*
X50668767Y-42572842D01*
X50784904Y-42485904D01*
X50871842Y-42369767D01*
X50922540Y-42233842D01*
X50925551Y-42205839D01*
X50928999Y-42173771D01*
X50928999Y-42173764D01*
X50929000Y-42173755D01*
X50928999Y-41773999D01*
X57525268Y-41773999D01*
X57525268Y-41774000D01*
X57544154Y-41977816D01*
X57544154Y-41977818D01*
X57544155Y-41977821D01*
X57600172Y-42174701D01*
X57600173Y-42174704D01*
X57691412Y-42357935D01*
X57814769Y-42521287D01*
X57954676Y-42648828D01*
X57963361Y-42656746D01*
X57966037Y-42659185D01*
X57966039Y-42659187D01*
X58140069Y-42766942D01*
X58140075Y-42766945D01*
X58180510Y-42782609D01*
X58330944Y-42840888D01*
X58532153Y-42878500D01*
X58532156Y-42878500D01*
X58736844Y-42878500D01*
X58736847Y-42878500D01*
X58938056Y-42840888D01*
X59128927Y-42766944D01*
X59302962Y-42659186D01*
X59436448Y-42537497D01*
X59454230Y-42521287D01*
X59475970Y-42492499D01*
X59577588Y-42357935D01*
X59668828Y-42174701D01*
X59724845Y-41977821D01*
X59743732Y-41774000D01*
X59724845Y-41570179D01*
X59668828Y-41373299D01*
X59577588Y-41190065D01*
X59454232Y-41026715D01*
X59454230Y-41026712D01*
X59302962Y-40888814D01*
X59302960Y-40888812D01*
X59128930Y-40781057D01*
X59128924Y-40781054D01*
X58978493Y-40722777D01*
X58938056Y-40707112D01*
X58736847Y-40669500D01*
X58532153Y-40669500D01*
X58330944Y-40707112D01*
X58330941Y-40707112D01*
X58330941Y-40707113D01*
X58140075Y-40781054D01*
X58140069Y-40781057D01*
X57966039Y-40888812D01*
X57966037Y-40888814D01*
X57814769Y-41026712D01*
X57691412Y-41190064D01*
X57600173Y-41373295D01*
X57600172Y-41373299D01*
X57549259Y-41552242D01*
X57544154Y-41570183D01*
X57525268Y-41773999D01*
X50928999Y-41773999D01*
X50928999Y-41552246D01*
X50922540Y-41492158D01*
X50909139Y-41456228D01*
X50871844Y-41356238D01*
X50871843Y-41356237D01*
X50871842Y-41356233D01*
X50828207Y-41297943D01*
X50784904Y-41240095D01*
X50707626Y-41182247D01*
X50668767Y-41153158D01*
X50532842Y-41102460D01*
X50532838Y-41102459D01*
X50472762Y-41096000D01*
X49476248Y-41096000D01*
X49476242Y-41096001D01*
X49416155Y-41102460D01*
X49280238Y-41153155D01*
X49280230Y-41153160D01*
X49164097Y-41240094D01*
X49112658Y-41308810D01*
X49056724Y-41350682D01*
X49013390Y-41358500D01*
X48903610Y-41358500D01*
X48836571Y-41338815D01*
X48804342Y-41308810D01*
X48766417Y-41258148D01*
X48752904Y-41240096D01*
X48752902Y-41240095D01*
X48752902Y-41240094D01*
X48694835Y-41196627D01*
X48636767Y-41153158D01*
X48500842Y-41102460D01*
X48500838Y-41102459D01*
X48440762Y-41096000D01*
X47444248Y-41096000D01*
X47444242Y-41096001D01*
X47384155Y-41102460D01*
X47248238Y-41153155D01*
X47248230Y-41153160D01*
X47132097Y-41240094D01*
X47080658Y-41308810D01*
X47024724Y-41350682D01*
X46981390Y-41358500D01*
X46653079Y-41358500D01*
X46618700Y-41367711D01*
X46618701Y-41367712D01*
X46524771Y-41392880D01*
X46524768Y-41392881D01*
X46409733Y-41459297D01*
X46409727Y-41459301D01*
X45713801Y-42155226D01*
X45713797Y-42155232D01*
X45708899Y-42163715D01*
X45658329Y-42211928D01*
X45644851Y-42217890D01*
X45538234Y-42257657D01*
X45538230Y-42257660D01*
X45422095Y-42344595D01*
X45335160Y-42460730D01*
X45335157Y-42460735D01*
X45329308Y-42476416D01*
X45287434Y-42532348D01*
X45221968Y-42556761D01*
X45153696Y-42541906D01*
X45104293Y-42492499D01*
X45095422Y-42472080D01*
X45066859Y-42385882D01*
X45066856Y-42385875D01*
X44974815Y-42236654D01*
X44850845Y-42112684D01*
X44701624Y-42020643D01*
X44701619Y-42020641D01*
X44535197Y-41965494D01*
X44535190Y-41965493D01*
X44432486Y-41955000D01*
X44382500Y-41955000D01*
X44382500Y-43306000D01*
X44362815Y-43373039D01*
X44310011Y-43418794D01*
X44258500Y-43430000D01*
X43132501Y-43430000D01*
X43132501Y-43704986D01*
X43143117Y-43808898D01*
X43130347Y-43877591D01*
X43082467Y-43928475D01*
X43019759Y-43945500D01*
X42542081Y-43945500D01*
X42417860Y-43978785D01*
X42413770Y-43979881D01*
X42413769Y-43979881D01*
X42413767Y-43979882D01*
X42413765Y-43979883D01*
X42398096Y-43988929D01*
X42330195Y-44005398D01*
X42300110Y-44000201D01*
X42291535Y-43997600D01*
X42291533Y-43997599D01*
X42291534Y-43997599D01*
X42100500Y-43978785D01*
X41909466Y-43997599D01*
X41725766Y-44053324D01*
X41556478Y-44143810D01*
X41556475Y-44143812D01*
X41408089Y-44265589D01*
X41286312Y-44413975D01*
X41286310Y-44413978D01*
X41195824Y-44583266D01*
X41140099Y-44766966D01*
X41121285Y-44958000D01*
X41140099Y-45149033D01*
X41195824Y-45332733D01*
X41286310Y-45502021D01*
X41286312Y-45502023D01*
X41301751Y-45520836D01*
X41329063Y-45585146D01*
X41317272Y-45654013D01*
X41270119Y-45705573D01*
X41205897Y-45723500D01*
X38296833Y-45723500D01*
X38229794Y-45703815D01*
X38209152Y-45687181D01*
X37711271Y-45189300D01*
X37711270Y-45189299D01*
X37619446Y-45136285D01*
X37596230Y-45122881D01*
X37467919Y-45088500D01*
X37467916Y-45088500D01*
X37460068Y-45086397D01*
X37460611Y-45084369D01*
X37406912Y-45060610D01*
X37368444Y-45002284D01*
X37362999Y-44965942D01*
X37362999Y-44708936D01*
X37362999Y-44708934D01*
X37348234Y-44634699D01*
X37327542Y-44603731D01*
X37291984Y-44550515D01*
X37232249Y-44510602D01*
X37207801Y-44494266D01*
X37207799Y-44494265D01*
X37207796Y-44494264D01*
X37133569Y-44479500D01*
X35383436Y-44479500D01*
X35309198Y-44494266D01*
X35225015Y-44550515D01*
X35168766Y-44634699D01*
X35168764Y-44634703D01*
X35154000Y-44708928D01*
X35154000Y-46459063D01*
X35168766Y-46533301D01*
X35225015Y-46617484D01*
X35246288Y-46631698D01*
X35309199Y-46673734D01*
X35309202Y-46673734D01*
X35309203Y-46673735D01*
X35334166Y-46678700D01*
X35383433Y-46688500D01*
X37133566Y-46688499D01*
X37207801Y-46673734D01*
X37291984Y-46617484D01*
X37348234Y-46533301D01*
X37349446Y-46527206D01*
X37381831Y-46465295D01*
X37442546Y-46430721D01*
X37512316Y-46434460D01*
X37558745Y-46463716D01*
X37726730Y-46631701D01*
X37841771Y-46698120D01*
X37935697Y-46723286D01*
X37935699Y-46723287D01*
X37935700Y-46723287D01*
X37956206Y-46728782D01*
X38015866Y-46765148D01*
X38046394Y-46827995D01*
X38038097Y-46897371D01*
X38011791Y-46936237D01*
X37391143Y-47556885D01*
X37329820Y-47590370D01*
X37260128Y-47585386D01*
X37204508Y-47543931D01*
X37078230Y-47376712D01*
X36926962Y-47238814D01*
X36926960Y-47238812D01*
X36752930Y-47131057D01*
X36752924Y-47131054D01*
X36563873Y-47057816D01*
X36562056Y-47057112D01*
X36360847Y-47019500D01*
X36156153Y-47019500D01*
X35954944Y-47057112D01*
X35954941Y-47057112D01*
X35954941Y-47057113D01*
X35764075Y-47131054D01*
X35764069Y-47131057D01*
X35590039Y-47238812D01*
X35590037Y-47238814D01*
X35438769Y-47376712D01*
X35315412Y-47540064D01*
X35224173Y-47723295D01*
X35222277Y-47729959D01*
X35181263Y-47874111D01*
X35168154Y-47920183D01*
X35149268Y-48123999D01*
X34332000Y-48123999D01*
X34332000Y-42655013D01*
X43132500Y-42655013D01*
X43132500Y-42930000D01*
X43882500Y-42930000D01*
X43882500Y-41955000D01*
X43882499Y-41954999D01*
X43832529Y-41955000D01*
X43832511Y-41955001D01*
X43729802Y-41965494D01*
X43563380Y-42020641D01*
X43563375Y-42020643D01*
X43414154Y-42112684D01*
X43290184Y-42236654D01*
X43198143Y-42385875D01*
X43198141Y-42385880D01*
X43142994Y-42552302D01*
X43142993Y-42552309D01*
X43132500Y-42655013D01*
X34332000Y-42655013D01*
X34332000Y-41918066D01*
X34332265Y-41909956D01*
X34341176Y-41773999D01*
X34346864Y-41687207D01*
X34348979Y-41671153D01*
X34391730Y-41456226D01*
X34395928Y-41440561D01*
X34424552Y-41356238D01*
X34466368Y-41233049D01*
X34472567Y-41218083D01*
X34569495Y-41021533D01*
X34577598Y-41007498D01*
X34699353Y-40825279D01*
X34709210Y-40812433D01*
X34853707Y-40647665D01*
X34865165Y-40636207D01*
X35029933Y-40491710D01*
X35042779Y-40481853D01*
X35224998Y-40360098D01*
X35239033Y-40351995D01*
X35435583Y-40255067D01*
X35450549Y-40248868D01*
X35657445Y-40178637D01*
X35658061Y-40178428D01*
X35673728Y-40174230D01*
X35888653Y-40131479D01*
X35904709Y-40129364D01*
X36109558Y-40115938D01*
X36127458Y-40114765D01*
X36135567Y-40114500D01*
X55807608Y-40114500D01*
X55847539Y-40109651D01*
X56071876Y-40082412D01*
X56330352Y-40018703D01*
X56579264Y-39924303D01*
X56814983Y-39800589D01*
X57034070Y-39649363D01*
X57233332Y-39472832D01*
X57409863Y-39273570D01*
X57561089Y-39054483D01*
X57684803Y-38818764D01*
X57779203Y-38569852D01*
X57842912Y-38311376D01*
X57875000Y-38047106D01*
X57875000Y-37966161D01*
X57875042Y-37965731D01*
X57875032Y-37953718D01*
X57875033Y-37953717D01*
X57875000Y-37913770D01*
X57875000Y-37874118D01*
X57875000Y-37862273D01*
X57874956Y-37861844D01*
X57873270Y-35819671D01*
X57873437Y-35813998D01*
X58269145Y-35813998D01*
X58269145Y-35814001D01*
X58288539Y-36085160D01*
X58288540Y-36085167D01*
X58335467Y-36300887D01*
X58346325Y-36350801D01*
X58412299Y-36527683D01*
X58441330Y-36605519D01*
X58571609Y-36844107D01*
X58571610Y-36844108D01*
X58571613Y-36844113D01*
X58734529Y-37061742D01*
X58734533Y-37061746D01*
X58734538Y-37061752D01*
X58926747Y-37253961D01*
X58926753Y-37253966D01*
X58926758Y-37253971D01*
X59144387Y-37416887D01*
X59144391Y-37416889D01*
X59144392Y-37416890D01*
X59382981Y-37547169D01*
X59382980Y-37547169D01*
X59382984Y-37547170D01*
X59382987Y-37547172D01*
X59637699Y-37642175D01*
X59903340Y-37699961D01*
X60155105Y-37717967D01*
X60174499Y-37719355D01*
X60174500Y-37719355D01*
X60174501Y-37719355D01*
X60192600Y-37718060D01*
X60445660Y-37699961D01*
X60711301Y-37642175D01*
X60966013Y-37547172D01*
X60966017Y-37547169D01*
X60966019Y-37547169D01*
X61085313Y-37482029D01*
X61204613Y-37416887D01*
X61422242Y-37253971D01*
X61614471Y-37061742D01*
X61777387Y-36844113D01*
X61907672Y-36605513D01*
X62002675Y-36350801D01*
X62060461Y-36085160D01*
X62079855Y-35814000D01*
X62060461Y-35542840D01*
X62002675Y-35277199D01*
X61907672Y-35022487D01*
X61907670Y-35022484D01*
X61907669Y-35022480D01*
X61777390Y-34783892D01*
X61777389Y-34783891D01*
X61777387Y-34783887D01*
X61614471Y-34566258D01*
X61614466Y-34566253D01*
X61614461Y-34566247D01*
X61422252Y-34374038D01*
X61422246Y-34374033D01*
X61422242Y-34374029D01*
X61204613Y-34211113D01*
X61204608Y-34211110D01*
X61204607Y-34211109D01*
X60966018Y-34080830D01*
X60966019Y-34080830D01*
X60916420Y-34062330D01*
X60711301Y-33985825D01*
X60711294Y-33985823D01*
X60711293Y-33985823D01*
X60445667Y-33928040D01*
X60445660Y-33928039D01*
X60174501Y-33908645D01*
X60174499Y-33908645D01*
X59903339Y-33928039D01*
X59903332Y-33928040D01*
X59637706Y-33985823D01*
X59637702Y-33985824D01*
X59637699Y-33985825D01*
X59510343Y-34033326D01*
X59382980Y-34080830D01*
X59144392Y-34211109D01*
X59144391Y-34211110D01*
X58926759Y-34374028D01*
X58926747Y-34374038D01*
X58734538Y-34566247D01*
X58734528Y-34566259D01*
X58571610Y-34783891D01*
X58571609Y-34783892D01*
X58441330Y-35022480D01*
X58412299Y-35100317D01*
X58346325Y-35277199D01*
X58346324Y-35277202D01*
X58346323Y-35277206D01*
X58288540Y-35542832D01*
X58288539Y-35542839D01*
X58269145Y-35813998D01*
X57873437Y-35813998D01*
X57873490Y-35812183D01*
X57873605Y-35810263D01*
X57889380Y-35546045D01*
X57891171Y-35531203D01*
X57938365Y-35272632D01*
X57941933Y-35258112D01*
X58019968Y-35007108D01*
X58025260Y-34993129D01*
X58132992Y-34753378D01*
X58139940Y-34740124D01*
X58275793Y-34515123D01*
X58284280Y-34502813D01*
X58446280Y-34295834D01*
X58456200Y-34284627D01*
X58641972Y-34098700D01*
X58653179Y-34088766D01*
X58860010Y-33926605D01*
X58872325Y-33918098D01*
X59097216Y-33782056D01*
X59110460Y-33775101D01*
X59350113Y-33667175D01*
X59364112Y-33661863D01*
X59615034Y-33583624D01*
X59629555Y-33580044D01*
X59888080Y-33532637D01*
X59902930Y-33530833D01*
X60166129Y-33514898D01*
X60181079Y-33514898D01*
X60444190Y-33530813D01*
G37*
%TD.AperFunction*%
%TD*%
M02*
