%TF.GenerationSoftware,KiCad,Pcbnew,7.0.9*%
%TF.CreationDate,2024-02-11T18:26:08+01:00*%
%TF.ProjectId,8x2 backpack,38783220-6261-4636-9b70-61636b2e6b69,rev?*%
%TF.SameCoordinates,Original*%
%TF.FileFunction,Soldermask,Bot*%
%TF.FilePolarity,Negative*%
%FSLAX46Y46*%
G04 Gerber Fmt 4.6, Leading zero omitted, Abs format (unit mm)*
G04 Created by KiCad (PCBNEW 7.0.9) date 2024-02-11 18:26:08*
%MOMM*%
%LPD*%
G01*
G04 APERTURE LIST*
G04 Aperture macros list*
%AMRoundRect*
0 Rectangle with rounded corners*
0 $1 Rounding radius*
0 $2 $3 $4 $5 $6 $7 $8 $9 X,Y pos of 4 corners*
0 Add a 4 corners polygon primitive as box body*
4,1,4,$2,$3,$4,$5,$6,$7,$8,$9,$2,$3,0*
0 Add four circle primitives for the rounded corners*
1,1,$1+$1,$2,$3*
1,1,$1+$1,$4,$5*
1,1,$1+$1,$6,$7*
1,1,$1+$1,$8,$9*
0 Add four rect primitives between the rounded corners*
20,1,$1+$1,$2,$3,$4,$5,0*
20,1,$1+$1,$4,$5,$6,$7,0*
20,1,$1+$1,$6,$7,$8,$9,0*
20,1,$1+$1,$8,$9,$2,$3,0*%
G04 Aperture macros list end*
%ADD10RoundRect,0.250000X0.450000X-0.262500X0.450000X0.262500X-0.450000X0.262500X-0.450000X-0.262500X0*%
%ADD11O,4.500000X4.500000*%
%ADD12R,1.700000X1.700000*%
%ADD13O,1.700000X1.700000*%
%ADD14R,1.440000X1.440000*%
%ADD15C,1.440000*%
%ADD16RoundRect,0.250000X-0.450000X0.262500X-0.450000X-0.262500X0.450000X-0.262500X0.450000X0.262500X0*%
%ADD17RoundRect,0.250000X-0.250000X-0.475000X0.250000X-0.475000X0.250000X0.475000X-0.250000X0.475000X0*%
%ADD18RoundRect,0.150000X0.150000X-0.512500X0.150000X0.512500X-0.150000X0.512500X-0.150000X-0.512500X0*%
G04 APERTURE END LIST*
D10*
%TO.C,R2*%
X48006000Y-44981500D03*
X48006000Y-43156500D03*
%TD*%
D11*
%TO.C,*%
X60960000Y-57440000D03*
%TD*%
D12*
%TO.C,J3*%
X43434000Y-47752000D03*
D13*
X40894000Y-47752000D03*
%TD*%
D14*
%TO.C,RV1*%
X42926000Y-44704000D03*
D15*
X45466000Y-42164000D03*
X42926000Y-39624000D03*
%TD*%
D12*
%TO.C,J2*%
X37084000Y-40250000D03*
D13*
X37084000Y-42790000D03*
X37084000Y-45330000D03*
X37084000Y-47870000D03*
%TD*%
D11*
%TO.C,*%
X61000000Y-30480000D03*
%TD*%
D16*
%TO.C,R1*%
X54102000Y-44981500D03*
X54102000Y-43156500D03*
%TD*%
D17*
%TO.C,C1*%
X44958000Y-37846000D03*
X46858000Y-37846000D03*
%TD*%
D10*
%TO.C,R9*%
X50800000Y-36529000D03*
X50800000Y-38354000D03*
%TD*%
%TO.C,R8*%
X48768000Y-36529000D03*
X48768000Y-38354000D03*
%TD*%
D18*
%TO.C,Q1*%
X51120000Y-49900000D03*
X53020000Y-49900000D03*
X52070000Y-47625000D03*
%TD*%
D10*
%TO.C,R3*%
X50038000Y-44981500D03*
X50038000Y-43156500D03*
%TD*%
D12*
%TO.C,J1*%
X59460000Y-51680000D03*
D13*
X62000000Y-51680000D03*
X59460000Y-49140000D03*
X62000000Y-49140000D03*
X59460000Y-46600000D03*
X62000000Y-46600000D03*
X59460000Y-44060000D03*
X62000000Y-44060000D03*
X59460000Y-41520000D03*
X62000000Y-41520000D03*
X59460000Y-38980000D03*
X62000000Y-38980000D03*
X59460000Y-36440000D03*
X62000000Y-36440000D03*
%TD*%
D10*
%TO.C,R4*%
X52070000Y-43156500D03*
X52070000Y-44981500D03*
%TD*%
M02*
