M48
; DRILL file {KiCad 7.0.9} date Ne 11. února 2024, 18:25:19
; FORMAT={-:-/ absolute / inch / decimal}
; #@! TF.CreationDate,2024-02-11T18:25:19+01:00
; #@! TF.GenerationSoftware,Kicad,Pcbnew,7.0.9
; #@! TF.FileFunction,Plated,1,2,PTH
FMAT,2
INCH
; #@! TA.AperFunction,Plated,PTH,ViaDrill
T1C0.0118
; #@! TA.AperFunction,Plated,PTH,ComponentDrill
T2C0.0315
; #@! TA.AperFunction,Plated,PTH,ComponentDrill
T3C0.0394
; #@! TA.AperFunction,Plated,PTH,ComponentDrill
T4C0.1181
%
G90
G05
T1
X1.62Y-2.07
X1.63Y-1.44
X1.78Y-1.77
X1.7872Y-1.9392
X1.88Y-1.665
X1.88Y-1.815
X1.93Y-1.545
X1.93Y-1.6692
X1.93Y-1.815
X1.98Y-1.545
X1.98Y-1.815
X2.13Y-1.4
X2.195Y-1.815
X2.21Y-1.735
X2.22Y-1.68
X2.23Y-1.815
X2.34Y-1.33
X2.48Y-2.14
T2
X1.69Y-1.56
X1.69Y-1.76
X1.79Y-1.66
T3
X1.46Y-1.5846
X1.46Y-1.6846
X1.46Y-1.7846
X1.46Y-1.8846
X1.61Y-1.88
X1.71Y-1.88
X2.3409Y-1.4346
X2.3409Y-1.5346
X2.3409Y-1.6346
X2.3409Y-1.7346
X2.3409Y-1.8346
X2.3409Y-1.9346
X2.3409Y-2.0346
X2.4409Y-1.4346
X2.4409Y-1.5346
X2.4409Y-1.6346
X2.4409Y-1.7346
X2.4409Y-1.8346
X2.4409Y-1.9346
X2.4409Y-2.0346
T4
X2.4Y-2.2614
X2.4016Y-1.2
T0
M30
