%TF.GenerationSoftware,KiCad,Pcbnew,7.0.9*%
%TF.CreationDate,2024-02-11T18:26:17+01:00*%
%TF.ProjectId,8x2 backpack,38783220-6261-4636-9b70-61636b2e6b69,rev?*%
%TF.SameCoordinates,Original*%
%TF.FileFunction,Drillmap*%
%TF.FilePolarity,Positive*%
%FSLAX45Y45*%
G04 Gerber Fmt 4.5, Leading zero omitted, Abs format (unit mm)*
G04 Created by KiCad (PCBNEW 7.0.9) date 2024-02-11 18:26:17*
%MOMM*%
%LPD*%
G01*
G04 APERTURE LIST*
%ADD10C,0.100000*%
%ADD11C,0.200000*%
G04 APERTURE END LIST*
D10*
X6270000Y-5748000D02*
G75*
G03*
X6270000Y-5748000I-170000J0D01*
G01*
X6350000Y-3048000D02*
G75*
G03*
X6100000Y-2798000I-250000J0D01*
G01*
X3495700Y-5137600D02*
G75*
G03*
X3695700Y-5337600I200000J0D01*
G01*
X5850000Y-3258000D02*
X5849827Y-3048206D01*
X6100000Y-5998000D02*
G75*
G03*
X6350000Y-5748000I0J250000D01*
G01*
X5850000Y-5537600D02*
G75*
G03*
X5650000Y-5337600I-200000J0D01*
G01*
X5850000Y-5748000D02*
G75*
G03*
X6100000Y-5998000I250000J0D01*
G01*
X6099827Y-2798007D02*
G75*
G03*
X5849827Y-3048206I-7J-249993D01*
G01*
X5850000Y-5748000D02*
X5850000Y-5537600D01*
X6100000Y-5998000D02*
X6100000Y-5998000D01*
X5650000Y-3458000D02*
X3695700Y-3458000D01*
X6350000Y-3048000D02*
X6350000Y-5748000D01*
X6099827Y-2798000D02*
X6100000Y-2798000D01*
X5650000Y-3458000D02*
G75*
G03*
X5850000Y-3258000I0J200000D01*
G01*
X3495700Y-3658000D02*
X3495700Y-5137600D01*
X6270000Y-3048000D02*
G75*
G03*
X6270000Y-3048000I-170000J0D01*
G01*
X3695700Y-5337600D02*
X5650000Y-5337600D01*
X3695700Y-3458000D02*
G75*
G03*
X3495700Y-3658000I0J-200000D01*
G01*
D11*
X3751477Y-6314484D02*
X3751477Y-6114484D01*
X3751477Y-6114484D02*
X3799096Y-6114484D01*
X3799096Y-6114484D02*
X3827667Y-6124008D01*
X3827667Y-6124008D02*
X3846715Y-6143055D01*
X3846715Y-6143055D02*
X3856239Y-6162103D01*
X3856239Y-6162103D02*
X3865762Y-6200198D01*
X3865762Y-6200198D02*
X3865762Y-6228769D01*
X3865762Y-6228769D02*
X3856239Y-6266865D01*
X3856239Y-6266865D02*
X3846715Y-6285912D01*
X3846715Y-6285912D02*
X3827667Y-6304960D01*
X3827667Y-6304960D02*
X3799096Y-6314484D01*
X3799096Y-6314484D02*
X3751477Y-6314484D01*
X3951477Y-6314484D02*
X3951477Y-6181150D01*
X3951477Y-6219246D02*
X3961001Y-6200198D01*
X3961001Y-6200198D02*
X3970524Y-6190674D01*
X3970524Y-6190674D02*
X3989572Y-6181150D01*
X3989572Y-6181150D02*
X4008620Y-6181150D01*
X4075286Y-6314484D02*
X4075286Y-6181150D01*
X4075286Y-6114484D02*
X4065762Y-6124008D01*
X4065762Y-6124008D02*
X4075286Y-6133531D01*
X4075286Y-6133531D02*
X4084810Y-6124008D01*
X4084810Y-6124008D02*
X4075286Y-6114484D01*
X4075286Y-6114484D02*
X4075286Y-6133531D01*
X4199096Y-6314484D02*
X4180048Y-6304960D01*
X4180048Y-6304960D02*
X4170524Y-6285912D01*
X4170524Y-6285912D02*
X4170524Y-6114484D01*
X4303858Y-6314484D02*
X4284810Y-6304960D01*
X4284810Y-6304960D02*
X4275286Y-6285912D01*
X4275286Y-6285912D02*
X4275286Y-6114484D01*
X4532429Y-6314484D02*
X4532429Y-6114484D01*
X4532429Y-6114484D02*
X4599096Y-6257341D01*
X4599096Y-6257341D02*
X4665763Y-6114484D01*
X4665763Y-6114484D02*
X4665763Y-6314484D01*
X4846715Y-6314484D02*
X4846715Y-6209722D01*
X4846715Y-6209722D02*
X4837191Y-6190674D01*
X4837191Y-6190674D02*
X4818144Y-6181150D01*
X4818144Y-6181150D02*
X4780048Y-6181150D01*
X4780048Y-6181150D02*
X4761001Y-6190674D01*
X4846715Y-6304960D02*
X4827667Y-6314484D01*
X4827667Y-6314484D02*
X4780048Y-6314484D01*
X4780048Y-6314484D02*
X4761001Y-6304960D01*
X4761001Y-6304960D02*
X4751477Y-6285912D01*
X4751477Y-6285912D02*
X4751477Y-6266865D01*
X4751477Y-6266865D02*
X4761001Y-6247817D01*
X4761001Y-6247817D02*
X4780048Y-6238293D01*
X4780048Y-6238293D02*
X4827667Y-6238293D01*
X4827667Y-6238293D02*
X4846715Y-6228769D01*
X4941953Y-6181150D02*
X4941953Y-6381150D01*
X4941953Y-6190674D02*
X4961001Y-6181150D01*
X4961001Y-6181150D02*
X4999096Y-6181150D01*
X4999096Y-6181150D02*
X5018144Y-6190674D01*
X5018144Y-6190674D02*
X5027667Y-6200198D01*
X5027667Y-6200198D02*
X5037191Y-6219246D01*
X5037191Y-6219246D02*
X5037191Y-6276388D01*
X5037191Y-6276388D02*
X5027667Y-6295436D01*
X5027667Y-6295436D02*
X5018144Y-6304960D01*
X5018144Y-6304960D02*
X4999096Y-6314484D01*
X4999096Y-6314484D02*
X4961001Y-6314484D01*
X4961001Y-6314484D02*
X4941953Y-6304960D01*
X5122905Y-6295436D02*
X5132429Y-6304960D01*
X5132429Y-6304960D02*
X5122905Y-6314484D01*
X5122905Y-6314484D02*
X5113382Y-6304960D01*
X5113382Y-6304960D02*
X5122905Y-6295436D01*
X5122905Y-6295436D02*
X5122905Y-6314484D01*
X5122905Y-6190674D02*
X5132429Y-6200198D01*
X5132429Y-6200198D02*
X5122905Y-6209722D01*
X5122905Y-6209722D02*
X5113382Y-6200198D01*
X5113382Y-6200198D02*
X5122905Y-6190674D01*
X5122905Y-6190674D02*
X5122905Y-6209722D01*
M02*
