%TF.GenerationSoftware,KiCad,Pcbnew,7.0.9*%
%TF.CreationDate,2024-02-11T18:26:08+01:00*%
%TF.ProjectId,8x2 backpack,38783220-6261-4636-9b70-61636b2e6b69,rev?*%
%TF.SameCoordinates,Original*%
%TF.FileFunction,Legend,Top*%
%TF.FilePolarity,Positive*%
%FSLAX46Y46*%
G04 Gerber Fmt 4.6, Leading zero omitted, Abs format (unit mm)*
G04 Created by KiCad (PCBNEW 7.0.9) date 2024-02-11 18:26:08*
%MOMM*%
%LPD*%
G01*
G04 APERTURE LIST*
%ADD10C,0.300000*%
%ADD11C,0.200000*%
%ADD12C,0.150000*%
%ADD13C,0.120000*%
G04 APERTURE END LIST*
D10*
X43178891Y-50879304D02*
X43178891Y-49579304D01*
X43921748Y-50879304D02*
X43364606Y-50136447D01*
X43921748Y-49579304D02*
X43178891Y-50322161D01*
X43066491Y-35788638D02*
X43066491Y-37088638D01*
X43685539Y-36469590D02*
X43747444Y-36593400D01*
X43747444Y-36593400D02*
X43871253Y-36655304D01*
X43066491Y-36469590D02*
X43128396Y-36593400D01*
X43128396Y-36593400D02*
X43252206Y-36655304D01*
X43252206Y-36655304D02*
X43499825Y-36655304D01*
X43499825Y-36655304D02*
X43623634Y-36593400D01*
X43623634Y-36593400D02*
X43685539Y-36469590D01*
X43685539Y-36469590D02*
X43685539Y-35788638D01*
X44861730Y-35974352D02*
X45047444Y-36036257D01*
X45047444Y-36036257D02*
X45109349Y-36098161D01*
X45109349Y-36098161D02*
X45171253Y-36221971D01*
X45171253Y-36221971D02*
X45171253Y-36407685D01*
X45171253Y-36407685D02*
X45109349Y-36531495D01*
X45109349Y-36531495D02*
X45047444Y-36593400D01*
X45047444Y-36593400D02*
X44923634Y-36655304D01*
X44923634Y-36655304D02*
X44428396Y-36655304D01*
X44428396Y-36655304D02*
X44428396Y-35355304D01*
X44428396Y-35355304D02*
X44861730Y-35355304D01*
X44861730Y-35355304D02*
X44985539Y-35417209D01*
X44985539Y-35417209D02*
X45047444Y-35479114D01*
X45047444Y-35479114D02*
X45109349Y-35602923D01*
X45109349Y-35602923D02*
X45109349Y-35726733D01*
X45109349Y-35726733D02*
X45047444Y-35850542D01*
X45047444Y-35850542D02*
X44985539Y-35912447D01*
X44985539Y-35912447D02*
X44861730Y-35974352D01*
X44861730Y-35974352D02*
X44428396Y-35974352D01*
X46285539Y-36655304D02*
X46285539Y-35974352D01*
X46285539Y-35974352D02*
X46223634Y-35850542D01*
X46223634Y-35850542D02*
X46099825Y-35788638D01*
X46099825Y-35788638D02*
X45852206Y-35788638D01*
X45852206Y-35788638D02*
X45728396Y-35850542D01*
X46285539Y-36593400D02*
X46161730Y-36655304D01*
X46161730Y-36655304D02*
X45852206Y-36655304D01*
X45852206Y-36655304D02*
X45728396Y-36593400D01*
X45728396Y-36593400D02*
X45666492Y-36469590D01*
X45666492Y-36469590D02*
X45666492Y-36345780D01*
X45666492Y-36345780D02*
X45728396Y-36221971D01*
X45728396Y-36221971D02*
X45852206Y-36160066D01*
X45852206Y-36160066D02*
X46161730Y-36160066D01*
X46161730Y-36160066D02*
X46285539Y-36098161D01*
X47461729Y-36593400D02*
X47337920Y-36655304D01*
X47337920Y-36655304D02*
X47090301Y-36655304D01*
X47090301Y-36655304D02*
X46966491Y-36593400D01*
X46966491Y-36593400D02*
X46904586Y-36531495D01*
X46904586Y-36531495D02*
X46842682Y-36407685D01*
X46842682Y-36407685D02*
X46842682Y-36036257D01*
X46842682Y-36036257D02*
X46904586Y-35912447D01*
X46904586Y-35912447D02*
X46966491Y-35850542D01*
X46966491Y-35850542D02*
X47090301Y-35788638D01*
X47090301Y-35788638D02*
X47337920Y-35788638D01*
X47337920Y-35788638D02*
X47461729Y-35850542D01*
X48018872Y-36655304D02*
X48018872Y-35355304D01*
X48142682Y-36160066D02*
X48514110Y-36655304D01*
X48514110Y-35788638D02*
X48018872Y-36283876D01*
X49071253Y-35788638D02*
X49071253Y-37088638D01*
X49071253Y-35850542D02*
X49195063Y-35788638D01*
X49195063Y-35788638D02*
X49442682Y-35788638D01*
X49442682Y-35788638D02*
X49566491Y-35850542D01*
X49566491Y-35850542D02*
X49628396Y-35912447D01*
X49628396Y-35912447D02*
X49690301Y-36036257D01*
X49690301Y-36036257D02*
X49690301Y-36407685D01*
X49690301Y-36407685D02*
X49628396Y-36531495D01*
X49628396Y-36531495D02*
X49566491Y-36593400D01*
X49566491Y-36593400D02*
X49442682Y-36655304D01*
X49442682Y-36655304D02*
X49195063Y-36655304D01*
X49195063Y-36655304D02*
X49071253Y-36593400D01*
X50804586Y-36655304D02*
X50804586Y-35974352D01*
X50804586Y-35974352D02*
X50742681Y-35850542D01*
X50742681Y-35850542D02*
X50618872Y-35788638D01*
X50618872Y-35788638D02*
X50371253Y-35788638D01*
X50371253Y-35788638D02*
X50247443Y-35850542D01*
X50804586Y-36593400D02*
X50680777Y-36655304D01*
X50680777Y-36655304D02*
X50371253Y-36655304D01*
X50371253Y-36655304D02*
X50247443Y-36593400D01*
X50247443Y-36593400D02*
X50185539Y-36469590D01*
X50185539Y-36469590D02*
X50185539Y-36345780D01*
X50185539Y-36345780D02*
X50247443Y-36221971D01*
X50247443Y-36221971D02*
X50371253Y-36160066D01*
X50371253Y-36160066D02*
X50680777Y-36160066D01*
X50680777Y-36160066D02*
X50804586Y-36098161D01*
X51980776Y-36593400D02*
X51856967Y-36655304D01*
X51856967Y-36655304D02*
X51609348Y-36655304D01*
X51609348Y-36655304D02*
X51485538Y-36593400D01*
X51485538Y-36593400D02*
X51423633Y-36531495D01*
X51423633Y-36531495D02*
X51361729Y-36407685D01*
X51361729Y-36407685D02*
X51361729Y-36036257D01*
X51361729Y-36036257D02*
X51423633Y-35912447D01*
X51423633Y-35912447D02*
X51485538Y-35850542D01*
X51485538Y-35850542D02*
X51609348Y-35788638D01*
X51609348Y-35788638D02*
X51856967Y-35788638D01*
X51856967Y-35788638D02*
X51980776Y-35850542D01*
X52537919Y-36655304D02*
X52537919Y-35355304D01*
X52661729Y-36160066D02*
X53033157Y-36655304D01*
X53033157Y-35788638D02*
X52537919Y-36283876D01*
D11*
X48811749Y-38704742D02*
X48961749Y-37504742D01*
X48904606Y-37961885D02*
X49026035Y-37904742D01*
X49026035Y-37904742D02*
X49254606Y-37904742D01*
X49254606Y-37904742D02*
X49361749Y-37961885D01*
X49361749Y-37961885D02*
X49411749Y-38019028D01*
X49411749Y-38019028D02*
X49454606Y-38133314D01*
X49454606Y-38133314D02*
X49411749Y-38476171D01*
X49411749Y-38476171D02*
X49340320Y-38590457D01*
X49340320Y-38590457D02*
X49276035Y-38647600D01*
X49276035Y-38647600D02*
X49154606Y-38704742D01*
X49154606Y-38704742D02*
X48926035Y-38704742D01*
X48926035Y-38704742D02*
X48818892Y-38647600D01*
X49883177Y-37904742D02*
X50068892Y-38704742D01*
X50454606Y-37904742D02*
X50068892Y-38704742D01*
X50068892Y-38704742D02*
X49918892Y-38990457D01*
X49918892Y-38990457D02*
X49854606Y-39047600D01*
X49854606Y-39047600D02*
X49733177Y-39104742D01*
X51726035Y-38704742D02*
X51826035Y-37904742D01*
X51811749Y-38019028D02*
X51876035Y-37961885D01*
X51876035Y-37961885D02*
X51997464Y-37904742D01*
X51997464Y-37904742D02*
X52168892Y-37904742D01*
X52168892Y-37904742D02*
X52276035Y-37961885D01*
X52276035Y-37961885D02*
X52318892Y-38076171D01*
X52318892Y-38076171D02*
X52240321Y-38704742D01*
X52318892Y-38076171D02*
X52390321Y-37961885D01*
X52390321Y-37961885D02*
X52511749Y-37904742D01*
X52511749Y-37904742D02*
X52683178Y-37904742D01*
X52683178Y-37904742D02*
X52790321Y-37961885D01*
X52790321Y-37961885D02*
X52833178Y-38076171D01*
X52833178Y-38076171D02*
X52754606Y-38704742D01*
X53426035Y-37904742D02*
X53326035Y-38704742D01*
X53411749Y-38019028D02*
X53476035Y-37961885D01*
X53476035Y-37961885D02*
X53597464Y-37904742D01*
X53597464Y-37904742D02*
X53768892Y-37904742D01*
X53768892Y-37904742D02*
X53876035Y-37961885D01*
X53876035Y-37961885D02*
X53918892Y-38076171D01*
X53918892Y-38076171D02*
X53840321Y-38704742D01*
X55026035Y-37904742D02*
X54926035Y-38704742D01*
X54511749Y-37904742D02*
X54433178Y-38533314D01*
X54433178Y-38533314D02*
X54476035Y-38647600D01*
X54476035Y-38647600D02*
X54583178Y-38704742D01*
X54583178Y-38704742D02*
X54754606Y-38704742D01*
X54754606Y-38704742D02*
X54876035Y-38647600D01*
X54876035Y-38647600D02*
X54940320Y-38590457D01*
X55383177Y-38704742D02*
X56111749Y-37904742D01*
X55483177Y-37904742D02*
X56011749Y-38704742D01*
D10*
X36757587Y-36278400D02*
X36943301Y-36340304D01*
X36943301Y-36340304D02*
X37252825Y-36340304D01*
X37252825Y-36340304D02*
X37376634Y-36278400D01*
X37376634Y-36278400D02*
X37438539Y-36216495D01*
X37438539Y-36216495D02*
X37500444Y-36092685D01*
X37500444Y-36092685D02*
X37500444Y-35968876D01*
X37500444Y-35968876D02*
X37438539Y-35845066D01*
X37438539Y-35845066D02*
X37376634Y-35783161D01*
X37376634Y-35783161D02*
X37252825Y-35721257D01*
X37252825Y-35721257D02*
X37005206Y-35659352D01*
X37005206Y-35659352D02*
X36881396Y-35597447D01*
X36881396Y-35597447D02*
X36819491Y-35535542D01*
X36819491Y-35535542D02*
X36757587Y-35411733D01*
X36757587Y-35411733D02*
X36757587Y-35287923D01*
X36757587Y-35287923D02*
X36819491Y-35164114D01*
X36819491Y-35164114D02*
X36881396Y-35102209D01*
X36881396Y-35102209D02*
X37005206Y-35040304D01*
X37005206Y-35040304D02*
X37314729Y-35040304D01*
X37314729Y-35040304D02*
X37500444Y-35102209D01*
X38800443Y-36216495D02*
X38738539Y-36278400D01*
X38738539Y-36278400D02*
X38552824Y-36340304D01*
X38552824Y-36340304D02*
X38429015Y-36340304D01*
X38429015Y-36340304D02*
X38243301Y-36278400D01*
X38243301Y-36278400D02*
X38119491Y-36154590D01*
X38119491Y-36154590D02*
X38057586Y-36030780D01*
X38057586Y-36030780D02*
X37995682Y-35783161D01*
X37995682Y-35783161D02*
X37995682Y-35597447D01*
X37995682Y-35597447D02*
X38057586Y-35349828D01*
X38057586Y-35349828D02*
X38119491Y-35226019D01*
X38119491Y-35226019D02*
X38243301Y-35102209D01*
X38243301Y-35102209D02*
X38429015Y-35040304D01*
X38429015Y-35040304D02*
X38552824Y-35040304D01*
X38552824Y-35040304D02*
X38738539Y-35102209D01*
X38738539Y-35102209D02*
X38800443Y-35164114D01*
X39976634Y-36340304D02*
X39357586Y-36340304D01*
X39357586Y-36340304D02*
X39357586Y-35040304D01*
X36757587Y-38371400D02*
X36943301Y-38433304D01*
X36943301Y-38433304D02*
X37252825Y-38433304D01*
X37252825Y-38433304D02*
X37376634Y-38371400D01*
X37376634Y-38371400D02*
X37438539Y-38309495D01*
X37438539Y-38309495D02*
X37500444Y-38185685D01*
X37500444Y-38185685D02*
X37500444Y-38061876D01*
X37500444Y-38061876D02*
X37438539Y-37938066D01*
X37438539Y-37938066D02*
X37376634Y-37876161D01*
X37376634Y-37876161D02*
X37252825Y-37814257D01*
X37252825Y-37814257D02*
X37005206Y-37752352D01*
X37005206Y-37752352D02*
X36881396Y-37690447D01*
X36881396Y-37690447D02*
X36819491Y-37628542D01*
X36819491Y-37628542D02*
X36757587Y-37504733D01*
X36757587Y-37504733D02*
X36757587Y-37380923D01*
X36757587Y-37380923D02*
X36819491Y-37257114D01*
X36819491Y-37257114D02*
X36881396Y-37195209D01*
X36881396Y-37195209D02*
X37005206Y-37133304D01*
X37005206Y-37133304D02*
X37314729Y-37133304D01*
X37314729Y-37133304D02*
X37500444Y-37195209D01*
X38057586Y-38433304D02*
X38057586Y-37133304D01*
X38057586Y-37133304D02*
X38367110Y-37133304D01*
X38367110Y-37133304D02*
X38552824Y-37195209D01*
X38552824Y-37195209D02*
X38676634Y-37319019D01*
X38676634Y-37319019D02*
X38738539Y-37442828D01*
X38738539Y-37442828D02*
X38800443Y-37690447D01*
X38800443Y-37690447D02*
X38800443Y-37876161D01*
X38800443Y-37876161D02*
X38738539Y-38123780D01*
X38738539Y-38123780D02*
X38676634Y-38247590D01*
X38676634Y-38247590D02*
X38552824Y-38371400D01*
X38552824Y-38371400D02*
X38367110Y-38433304D01*
X38367110Y-38433304D02*
X38057586Y-38433304D01*
X39295682Y-38061876D02*
X39914729Y-38061876D01*
X39171872Y-38433304D02*
X39605205Y-37133304D01*
X39605205Y-37133304D02*
X40038539Y-38433304D01*
X36887777Y-49518304D02*
X37321110Y-50818304D01*
X37321110Y-50818304D02*
X37754444Y-49518304D01*
X38930634Y-50694495D02*
X38868730Y-50756400D01*
X38868730Y-50756400D02*
X38683015Y-50818304D01*
X38683015Y-50818304D02*
X38559206Y-50818304D01*
X38559206Y-50818304D02*
X38373492Y-50756400D01*
X38373492Y-50756400D02*
X38249682Y-50632590D01*
X38249682Y-50632590D02*
X38187777Y-50508780D01*
X38187777Y-50508780D02*
X38125873Y-50261161D01*
X38125873Y-50261161D02*
X38125873Y-50075447D01*
X38125873Y-50075447D02*
X38187777Y-49827828D01*
X38187777Y-49827828D02*
X38249682Y-49704019D01*
X38249682Y-49704019D02*
X38373492Y-49580209D01*
X38373492Y-49580209D02*
X38559206Y-49518304D01*
X38559206Y-49518304D02*
X38683015Y-49518304D01*
X38683015Y-49518304D02*
X38868730Y-49580209D01*
X38868730Y-49580209D02*
X38930634Y-49642114D01*
X40230634Y-50694495D02*
X40168730Y-50756400D01*
X40168730Y-50756400D02*
X39983015Y-50818304D01*
X39983015Y-50818304D02*
X39859206Y-50818304D01*
X39859206Y-50818304D02*
X39673492Y-50756400D01*
X39673492Y-50756400D02*
X39549682Y-50632590D01*
X39549682Y-50632590D02*
X39487777Y-50508780D01*
X39487777Y-50508780D02*
X39425873Y-50261161D01*
X39425873Y-50261161D02*
X39425873Y-50075447D01*
X39425873Y-50075447D02*
X39487777Y-49827828D01*
X39487777Y-49827828D02*
X39549682Y-49704019D01*
X39549682Y-49704019D02*
X39673492Y-49580209D01*
X39673492Y-49580209D02*
X39859206Y-49518304D01*
X39859206Y-49518304D02*
X39983015Y-49518304D01*
X39983015Y-49518304D02*
X40168730Y-49580209D01*
X40168730Y-49580209D02*
X40230634Y-49642114D01*
X37754444Y-51673209D02*
X37630634Y-51611304D01*
X37630634Y-51611304D02*
X37444920Y-51611304D01*
X37444920Y-51611304D02*
X37259206Y-51673209D01*
X37259206Y-51673209D02*
X37135396Y-51797019D01*
X37135396Y-51797019D02*
X37073491Y-51920828D01*
X37073491Y-51920828D02*
X37011587Y-52168447D01*
X37011587Y-52168447D02*
X37011587Y-52354161D01*
X37011587Y-52354161D02*
X37073491Y-52601780D01*
X37073491Y-52601780D02*
X37135396Y-52725590D01*
X37135396Y-52725590D02*
X37259206Y-52849400D01*
X37259206Y-52849400D02*
X37444920Y-52911304D01*
X37444920Y-52911304D02*
X37568729Y-52911304D01*
X37568729Y-52911304D02*
X37754444Y-52849400D01*
X37754444Y-52849400D02*
X37816348Y-52787495D01*
X37816348Y-52787495D02*
X37816348Y-52354161D01*
X37816348Y-52354161D02*
X37568729Y-52354161D01*
X38373491Y-52911304D02*
X38373491Y-51611304D01*
X38373491Y-51611304D02*
X39116348Y-52911304D01*
X39116348Y-52911304D02*
X39116348Y-51611304D01*
X39735396Y-52911304D02*
X39735396Y-51611304D01*
X39735396Y-51611304D02*
X40044920Y-51611304D01*
X40044920Y-51611304D02*
X40230634Y-51673209D01*
X40230634Y-51673209D02*
X40354444Y-51797019D01*
X40354444Y-51797019D02*
X40416349Y-51920828D01*
X40416349Y-51920828D02*
X40478253Y-52168447D01*
X40478253Y-52168447D02*
X40478253Y-52354161D01*
X40478253Y-52354161D02*
X40416349Y-52601780D01*
X40416349Y-52601780D02*
X40354444Y-52725590D01*
X40354444Y-52725590D02*
X40230634Y-52849400D01*
X40230634Y-52849400D02*
X40044920Y-52911304D01*
X40044920Y-52911304D02*
X39735396Y-52911304D01*
D12*
X45682819Y-48259904D02*
X46492342Y-48259904D01*
X46492342Y-48259904D02*
X46587580Y-48212285D01*
X46587580Y-48212285D02*
X46635200Y-48164666D01*
X46635200Y-48164666D02*
X46682819Y-48069428D01*
X46682819Y-48069428D02*
X46682819Y-47878952D01*
X46682819Y-47878952D02*
X46635200Y-47783714D01*
X46635200Y-47783714D02*
X46587580Y-47736095D01*
X46587580Y-47736095D02*
X46492342Y-47688476D01*
X46492342Y-47688476D02*
X45682819Y-47688476D01*
X46682819Y-46688476D02*
X46682819Y-47259904D01*
X46682819Y-46974190D02*
X45682819Y-46974190D01*
X45682819Y-46974190D02*
X45825676Y-47069428D01*
X45825676Y-47069428D02*
X45920914Y-47164666D01*
X45920914Y-47164666D02*
X45968533Y-47259904D01*
D10*
X60095870Y-54578144D02*
X59353013Y-54578144D01*
X59724441Y-54578144D02*
X59724441Y-53278144D01*
X59724441Y-53278144D02*
X59600632Y-53463859D01*
X59600632Y-53463859D02*
X59476822Y-53587668D01*
X59476822Y-53587668D02*
X59353013Y-53649573D01*
X61581584Y-53401954D02*
X61643488Y-53340049D01*
X61643488Y-53340049D02*
X61767298Y-53278144D01*
X61767298Y-53278144D02*
X62076822Y-53278144D01*
X62076822Y-53278144D02*
X62200631Y-53340049D01*
X62200631Y-53340049D02*
X62262536Y-53401954D01*
X62262536Y-53401954D02*
X62324441Y-53525763D01*
X62324441Y-53525763D02*
X62324441Y-53649573D01*
X62324441Y-53649573D02*
X62262536Y-53835287D01*
X62262536Y-53835287D02*
X61519679Y-54578144D01*
X61519679Y-54578144D02*
X62324441Y-54578144D01*
D12*
X51718914Y-51979604D02*
X52195104Y-51979604D01*
X51623676Y-52265319D02*
X51957009Y-51265319D01*
X51957009Y-51265319D02*
X52290342Y-52265319D01*
X52814152Y-51265319D02*
X52909390Y-51265319D01*
X52909390Y-51265319D02*
X53004628Y-51312938D01*
X53004628Y-51312938D02*
X53052247Y-51360557D01*
X53052247Y-51360557D02*
X53099866Y-51455795D01*
X53099866Y-51455795D02*
X53147485Y-51646271D01*
X53147485Y-51646271D02*
X53147485Y-51884366D01*
X53147485Y-51884366D02*
X53099866Y-52074842D01*
X53099866Y-52074842D02*
X53052247Y-52170080D01*
X53052247Y-52170080D02*
X53004628Y-52217700D01*
X53004628Y-52217700D02*
X52909390Y-52265319D01*
X52909390Y-52265319D02*
X52814152Y-52265319D01*
X52814152Y-52265319D02*
X52718914Y-52217700D01*
X52718914Y-52217700D02*
X52671295Y-52170080D01*
X52671295Y-52170080D02*
X52623676Y-52074842D01*
X52623676Y-52074842D02*
X52576057Y-51884366D01*
X52576057Y-51884366D02*
X52576057Y-51646271D01*
X52576057Y-51646271D02*
X52623676Y-51455795D01*
X52623676Y-51455795D02*
X52671295Y-51360557D01*
X52671295Y-51360557D02*
X52718914Y-51312938D01*
X52718914Y-51312938D02*
X52814152Y-51265319D01*
X40713819Y-40981238D02*
X40237628Y-41314571D01*
X40713819Y-41552666D02*
X39713819Y-41552666D01*
X39713819Y-41552666D02*
X39713819Y-41171714D01*
X39713819Y-41171714D02*
X39761438Y-41076476D01*
X39761438Y-41076476D02*
X39809057Y-41028857D01*
X39809057Y-41028857D02*
X39904295Y-40981238D01*
X39904295Y-40981238D02*
X40047152Y-40981238D01*
X40047152Y-40981238D02*
X40142390Y-41028857D01*
X40142390Y-41028857D02*
X40190009Y-41076476D01*
X40190009Y-41076476D02*
X40237628Y-41171714D01*
X40237628Y-41171714D02*
X40237628Y-41552666D01*
X39713819Y-40695523D02*
X40713819Y-40362190D01*
X40713819Y-40362190D02*
X39713819Y-40028857D01*
X40713819Y-39171714D02*
X40713819Y-39743142D01*
X40713819Y-39457428D02*
X39713819Y-39457428D01*
X39713819Y-39457428D02*
X39856676Y-39552666D01*
X39856676Y-39552666D02*
X39951914Y-39647904D01*
X39951914Y-39647904D02*
X39999533Y-39743142D01*
X55782914Y-51954204D02*
X56259104Y-51954204D01*
X55687676Y-52239919D02*
X56021009Y-51239919D01*
X56021009Y-51239919D02*
X56354342Y-52239919D01*
X56640057Y-51335157D02*
X56687676Y-51287538D01*
X56687676Y-51287538D02*
X56782914Y-51239919D01*
X56782914Y-51239919D02*
X57021009Y-51239919D01*
X57021009Y-51239919D02*
X57116247Y-51287538D01*
X57116247Y-51287538D02*
X57163866Y-51335157D01*
X57163866Y-51335157D02*
X57211485Y-51430395D01*
X57211485Y-51430395D02*
X57211485Y-51525633D01*
X57211485Y-51525633D02*
X57163866Y-51668490D01*
X57163866Y-51668490D02*
X56592438Y-52239919D01*
X56592438Y-52239919D02*
X57211485Y-52239919D01*
X53750914Y-51954204D02*
X54227104Y-51954204D01*
X53655676Y-52239919D02*
X53989009Y-51239919D01*
X53989009Y-51239919D02*
X54322342Y-52239919D01*
X55179485Y-52239919D02*
X54608057Y-52239919D01*
X54893771Y-52239919D02*
X54893771Y-51239919D01*
X54893771Y-51239919D02*
X54798533Y-51382776D01*
X54798533Y-51382776D02*
X54703295Y-51478014D01*
X54703295Y-51478014D02*
X54608057Y-51525633D01*
D13*
%TO.C,U1*%
X57407000Y-41300000D02*
X57202000Y-41300000D01*
X46987000Y-41300000D02*
X47192000Y-41300000D01*
X57407000Y-44060000D02*
X57407000Y-41300000D01*
X57407000Y-44060000D02*
X57407000Y-46820000D01*
X46987000Y-44060000D02*
X46987000Y-41300000D01*
X46987000Y-44060000D02*
X46987000Y-46820000D01*
X57407000Y-46820000D02*
X57202000Y-46820000D01*
X47192000Y-46820000D02*
X47192000Y-48510000D01*
X46987000Y-46820000D02*
X47192000Y-46820000D01*
%TO.C,J3*%
X44764000Y-46422000D02*
X44764000Y-47752000D01*
X43434000Y-46422000D02*
X44764000Y-46422000D01*
X42164000Y-46422000D02*
X39564000Y-46422000D01*
X42164000Y-46422000D02*
X42164000Y-49082000D01*
X39564000Y-46422000D02*
X39564000Y-49082000D01*
X42164000Y-49082000D02*
X39564000Y-49082000D01*
%TO.C,A0*%
X45493000Y-51304564D02*
X45493000Y-50850436D01*
X46963000Y-51304564D02*
X46963000Y-50850436D01*
%TO.C,RV1*%
X39276000Y-38744000D02*
X39276000Y-45584000D01*
X39276000Y-38744000D02*
X46506000Y-38744000D01*
X39276000Y-45584000D02*
X46506000Y-45584000D01*
X46506000Y-38744000D02*
X46506000Y-45584000D01*
%TO.C,A2*%
X49557000Y-51304564D02*
X49557000Y-50850436D01*
X51027000Y-51304564D02*
X51027000Y-50850436D01*
%TO.C,J2*%
X35754000Y-38920000D02*
X37084000Y-38920000D01*
X35754000Y-40250000D02*
X35754000Y-38920000D01*
X35754000Y-41520000D02*
X35754000Y-49200000D01*
X35754000Y-41520000D02*
X38414000Y-41520000D01*
X35754000Y-49200000D02*
X38414000Y-49200000D01*
X38414000Y-41520000D02*
X38414000Y-49200000D01*
%TO.C,A1*%
X47525000Y-51304564D02*
X47525000Y-50850436D01*
X48995000Y-51304564D02*
X48995000Y-50850436D01*
%TD*%
M02*
