%TF.GenerationSoftware,KiCad,Pcbnew,7.0.9*%
%TF.CreationDate,2024-02-11T18:26:08+01:00*%
%TF.ProjectId,8x2 backpack,38783220-6261-4636-9b70-61636b2e6b69,rev?*%
%TF.SameCoordinates,Original*%
%TF.FileFunction,Soldermask,Top*%
%TF.FilePolarity,Negative*%
%FSLAX46Y46*%
G04 Gerber Fmt 4.6, Leading zero omitted, Abs format (unit mm)*
G04 Created by KiCad (PCBNEW 7.0.9) date 2024-02-11 18:26:08*
%MOMM*%
%LPD*%
G01*
G04 APERTURE LIST*
G04 Aperture macros list*
%AMRoundRect*
0 Rectangle with rounded corners*
0 $1 Rounding radius*
0 $2 $3 $4 $5 $6 $7 $8 $9 X,Y pos of 4 corners*
0 Add a 4 corners polygon primitive as box body*
4,1,4,$2,$3,$4,$5,$6,$7,$8,$9,$2,$3,0*
0 Add four circle primitives for the rounded corners*
1,1,$1+$1,$2,$3*
1,1,$1+$1,$4,$5*
1,1,$1+$1,$6,$7*
1,1,$1+$1,$8,$9*
0 Add four rect primitives between the rounded corners*
20,1,$1+$1,$2,$3,$4,$5,0*
20,1,$1+$1,$4,$5,$6,$7,0*
20,1,$1+$1,$6,$7,$8,$9,0*
20,1,$1+$1,$8,$9,$2,$3,0*%
G04 Aperture macros list end*
%ADD10O,4.500000X4.500000*%
%ADD11RoundRect,0.150000X0.150000X-0.837500X0.150000X0.837500X-0.150000X0.837500X-0.150000X-0.837500X0*%
%ADD12R,1.700000X1.700000*%
%ADD13O,1.700000X1.700000*%
%ADD14RoundRect,0.250000X0.450000X-0.262500X0.450000X0.262500X-0.450000X0.262500X-0.450000X-0.262500X0*%
%ADD15R,1.440000X1.440000*%
%ADD16C,1.440000*%
G04 APERTURE END LIST*
D10*
%TO.C,*%
X60960000Y-57440000D03*
%TD*%
D11*
%TO.C,U1*%
X47752000Y-40597500D03*
X49022000Y-40597500D03*
X50292000Y-40597500D03*
X51562000Y-40597500D03*
X52832000Y-40597500D03*
X54102000Y-40597500D03*
X55372000Y-40597500D03*
X56642000Y-40597500D03*
X56642000Y-47522500D03*
X55372000Y-47522500D03*
X54102000Y-47522500D03*
X52832000Y-47522500D03*
X51562000Y-47522500D03*
X50292000Y-47522500D03*
X49022000Y-47522500D03*
X47752000Y-47522500D03*
%TD*%
D12*
%TO.C,J3*%
X43434000Y-47752000D03*
D13*
X40894000Y-47752000D03*
%TD*%
D14*
%TO.C,A0*%
X46228000Y-51990000D03*
X46228000Y-50165000D03*
%TD*%
D15*
%TO.C,RV1*%
X42926000Y-44704000D03*
D16*
X45466000Y-42164000D03*
X42926000Y-39624000D03*
%TD*%
D14*
%TO.C,A2*%
X50292000Y-51990000D03*
X50292000Y-50165000D03*
%TD*%
D12*
%TO.C,J2*%
X37084000Y-40250000D03*
D13*
X37084000Y-42790000D03*
X37084000Y-45330000D03*
X37084000Y-47870000D03*
%TD*%
D14*
%TO.C,A1*%
X48260000Y-51990000D03*
X48260000Y-50165000D03*
%TD*%
D10*
%TO.C,*%
X61000000Y-30480000D03*
%TD*%
D12*
%TO.C,J1*%
X59460000Y-51680000D03*
D13*
X62000000Y-51680000D03*
X59460000Y-49140000D03*
X62000000Y-49140000D03*
X59460000Y-46600000D03*
X62000000Y-46600000D03*
X59460000Y-44060000D03*
X62000000Y-44060000D03*
X59460000Y-41520000D03*
X62000000Y-41520000D03*
X59460000Y-38980000D03*
X62000000Y-38980000D03*
X59460000Y-36440000D03*
X62000000Y-36440000D03*
%TD*%
M02*
