%TF.GenerationSoftware,KiCad,Pcbnew,7.0.9*%
%TF.CreationDate,2024-02-11T18:26:17+01:00*%
%TF.ProjectId,8x2 backpack,38783220-6261-4636-9b70-61636b2e6b69,rev?*%
%TF.SameCoordinates,Original*%
%TF.FileFunction,Drillmap*%
%TF.FilePolarity,Positive*%
%FSLAX45Y45*%
G04 Gerber Fmt 4.5, Leading zero omitted, Abs format (unit mm)*
G04 Created by KiCad (PCBNEW 7.0.9) date 2024-02-11 18:26:17*
%MOMM*%
%LPD*%
G01*
G04 APERTURE LIST*
%ADD10C,0.100000*%
%ADD11C,0.200000*%
%ADD12C,0.300000*%
G04 APERTURE END LIST*
D10*
X6270000Y-5748000D02*
G75*
G03*
X6270000Y-5748000I-170000J0D01*
G01*
X6350000Y-3048000D02*
G75*
G03*
X6100000Y-2798000I-250000J0D01*
G01*
X3495700Y-5137600D02*
G75*
G03*
X3695700Y-5337600I200000J0D01*
G01*
X5850000Y-3258000D02*
X5849827Y-3048206D01*
X6100000Y-5998000D02*
G75*
G03*
X6350000Y-5748000I0J250000D01*
G01*
X5850000Y-5537600D02*
G75*
G03*
X5650000Y-5337600I-200000J0D01*
G01*
X5850000Y-5748000D02*
G75*
G03*
X6100000Y-5998000I250000J0D01*
G01*
X6099827Y-2798007D02*
G75*
G03*
X5849827Y-3048206I-7J-249993D01*
G01*
X5850000Y-5748000D02*
X5850000Y-5537600D01*
X6100000Y-5998000D02*
X6100000Y-5998000D01*
X5650000Y-3458000D02*
X3695700Y-3458000D01*
X6350000Y-3048000D02*
X6350000Y-5748000D01*
X6099827Y-2798000D02*
X6100000Y-2798000D01*
X5650000Y-3458000D02*
G75*
G03*
X5850000Y-3258000I0J200000D01*
G01*
X3495700Y-3658000D02*
X3495700Y-5137600D01*
X6270000Y-3048000D02*
G75*
G03*
X6270000Y-3048000I-170000J0D01*
G01*
X3695700Y-5337600D02*
X5650000Y-5337600D01*
X3695700Y-3458000D02*
G75*
G03*
X3495700Y-3658000I0J-200000D01*
G01*
D11*
D10*
X4099800Y-5242800D02*
X4129800Y-5272800D01*
X4129800Y-5242800D02*
X4099800Y-5272800D01*
X4125200Y-3642600D02*
X4155200Y-3672600D01*
X4155200Y-3642600D02*
X4125200Y-3672600D01*
X4506200Y-4480800D02*
X4536200Y-4510800D01*
X4536200Y-4480800D02*
X4506200Y-4510800D01*
X4524539Y-4910674D02*
X4554539Y-4940674D01*
X4554539Y-4910674D02*
X4524539Y-4940674D01*
X4760200Y-4214100D02*
X4790200Y-4244100D01*
X4790200Y-4214100D02*
X4760200Y-4244100D01*
X4760200Y-4595100D02*
X4790200Y-4625100D01*
X4790200Y-4595100D02*
X4760200Y-4625100D01*
X4887200Y-3909300D02*
X4917200Y-3939300D01*
X4917200Y-3909300D02*
X4887200Y-3939300D01*
X4887200Y-4224646D02*
X4917200Y-4254646D01*
X4917200Y-4224646D02*
X4887200Y-4254646D01*
X4887200Y-4595100D02*
X4917200Y-4625100D01*
X4917200Y-4595100D02*
X4887200Y-4625100D01*
X5014200Y-3909300D02*
X5044200Y-3939300D01*
X5044200Y-3909300D02*
X5014200Y-3939300D01*
X5014200Y-4595100D02*
X5044200Y-4625100D01*
X5044200Y-4595100D02*
X5014200Y-4625100D01*
X5395200Y-3541000D02*
X5425200Y-3571000D01*
X5425200Y-3541000D02*
X5395200Y-3571000D01*
X5560300Y-4595100D02*
X5590300Y-4625100D01*
X5590300Y-4595100D02*
X5560300Y-4625100D01*
X5598400Y-4391900D02*
X5628400Y-4421900D01*
X5628400Y-4391900D02*
X5598400Y-4421900D01*
X5623800Y-4252200D02*
X5653800Y-4282200D01*
X5653800Y-4252200D02*
X5623800Y-4282200D01*
X5649200Y-4595100D02*
X5679200Y-4625100D01*
X5679200Y-4595100D02*
X5649200Y-4625100D01*
X5928600Y-3363200D02*
X5958600Y-3393200D01*
X5958600Y-3363200D02*
X5928600Y-3393200D01*
X6284200Y-5420600D02*
X6314200Y-5450600D01*
X6314200Y-5420600D02*
X6284200Y-5450600D01*
X4332600Y-3962400D02*
G75*
G03*
X4332600Y-3962400I-40000J0D01*
G01*
X4332600Y-4470400D02*
G75*
G03*
X4332600Y-4470400I-40000J0D01*
G01*
X4586600Y-4216400D02*
G75*
G03*
X4586600Y-4216400I-40000J0D01*
G01*
X3708400Y-3975000D02*
X3708400Y-4075000D01*
X3658400Y-4025000D02*
X3758400Y-4025000D01*
X3708400Y-4229000D02*
X3708400Y-4329000D01*
X3658400Y-4279000D02*
X3758400Y-4279000D01*
X3708400Y-4483000D02*
X3708400Y-4583000D01*
X3658400Y-4533000D02*
X3758400Y-4533000D01*
X3708400Y-4737000D02*
X3708400Y-4837000D01*
X3658400Y-4787000D02*
X3758400Y-4787000D01*
X4089400Y-4725200D02*
X4089400Y-4825200D01*
X4039400Y-4775200D02*
X4139400Y-4775200D01*
X4343400Y-4725200D02*
X4343400Y-4825200D01*
X4293400Y-4775200D02*
X4393400Y-4775200D01*
X5946000Y-3594000D02*
X5946000Y-3694000D01*
X5896000Y-3644000D02*
X5996000Y-3644000D01*
X5946000Y-3848000D02*
X5946000Y-3948000D01*
X5896000Y-3898000D02*
X5996000Y-3898000D01*
X5946000Y-4102000D02*
X5946000Y-4202000D01*
X5896000Y-4152000D02*
X5996000Y-4152000D01*
X5946000Y-4356000D02*
X5946000Y-4456000D01*
X5896000Y-4406000D02*
X5996000Y-4406000D01*
X5946000Y-4610000D02*
X5946000Y-4710000D01*
X5896000Y-4660000D02*
X5996000Y-4660000D01*
X5946000Y-4864000D02*
X5946000Y-4964000D01*
X5896000Y-4914000D02*
X5996000Y-4914000D01*
X5946000Y-5118000D02*
X5946000Y-5218000D01*
X5896000Y-5168000D02*
X5996000Y-5168000D01*
X6200000Y-3594000D02*
X6200000Y-3694000D01*
X6150000Y-3644000D02*
X6250000Y-3644000D01*
X6200000Y-3848000D02*
X6200000Y-3948000D01*
X6150000Y-3898000D02*
X6250000Y-3898000D01*
X6200000Y-4102000D02*
X6200000Y-4202000D01*
X6150000Y-4152000D02*
X6250000Y-4152000D01*
X6200000Y-4356000D02*
X6200000Y-4456000D01*
X6150000Y-4406000D02*
X6250000Y-4406000D01*
X6200000Y-4610000D02*
X6200000Y-4710000D01*
X6150000Y-4660000D02*
X6250000Y-4660000D01*
X6200000Y-4864000D02*
X6200000Y-4964000D01*
X6150000Y-4914000D02*
X6250000Y-4914000D01*
X6200000Y-5118000D02*
X6200000Y-5218000D01*
X6150000Y-5168000D02*
X6250000Y-5168000D01*
D12*
X6202067Y-5850067D02*
X6202067Y-5637933D01*
X5989933Y-5637933D01*
X5989933Y-5850067D01*
X6202067Y-5850067D01*
X6206067Y-3154067D02*
X6206067Y-2941933D01*
X5993933Y-2941933D01*
X5993933Y-3154067D01*
X6206067Y-3154067D01*
D11*
X3751477Y-6314484D02*
X3751477Y-6114484D01*
X3751477Y-6114484D02*
X3799096Y-6114484D01*
X3799096Y-6114484D02*
X3827667Y-6124008D01*
X3827667Y-6124008D02*
X3846715Y-6143055D01*
X3846715Y-6143055D02*
X3856239Y-6162103D01*
X3856239Y-6162103D02*
X3865762Y-6200198D01*
X3865762Y-6200198D02*
X3865762Y-6228769D01*
X3865762Y-6228769D02*
X3856239Y-6266865D01*
X3856239Y-6266865D02*
X3846715Y-6285912D01*
X3846715Y-6285912D02*
X3827667Y-6304960D01*
X3827667Y-6304960D02*
X3799096Y-6314484D01*
X3799096Y-6314484D02*
X3751477Y-6314484D01*
X3951477Y-6314484D02*
X3951477Y-6181150D01*
X3951477Y-6219246D02*
X3961001Y-6200198D01*
X3961001Y-6200198D02*
X3970524Y-6190674D01*
X3970524Y-6190674D02*
X3989572Y-6181150D01*
X3989572Y-6181150D02*
X4008620Y-6181150D01*
X4075286Y-6314484D02*
X4075286Y-6181150D01*
X4075286Y-6114484D02*
X4065762Y-6124008D01*
X4065762Y-6124008D02*
X4075286Y-6133531D01*
X4075286Y-6133531D02*
X4084810Y-6124008D01*
X4084810Y-6124008D02*
X4075286Y-6114484D01*
X4075286Y-6114484D02*
X4075286Y-6133531D01*
X4199096Y-6314484D02*
X4180048Y-6304960D01*
X4180048Y-6304960D02*
X4170524Y-6285912D01*
X4170524Y-6285912D02*
X4170524Y-6114484D01*
X4303858Y-6314484D02*
X4284810Y-6304960D01*
X4284810Y-6304960D02*
X4275286Y-6285912D01*
X4275286Y-6285912D02*
X4275286Y-6114484D01*
X4532429Y-6314484D02*
X4532429Y-6114484D01*
X4532429Y-6114484D02*
X4599096Y-6257341D01*
X4599096Y-6257341D02*
X4665763Y-6114484D01*
X4665763Y-6114484D02*
X4665763Y-6314484D01*
X4846715Y-6314484D02*
X4846715Y-6209722D01*
X4846715Y-6209722D02*
X4837191Y-6190674D01*
X4837191Y-6190674D02*
X4818144Y-6181150D01*
X4818144Y-6181150D02*
X4780048Y-6181150D01*
X4780048Y-6181150D02*
X4761001Y-6190674D01*
X4846715Y-6304960D02*
X4827667Y-6314484D01*
X4827667Y-6314484D02*
X4780048Y-6314484D01*
X4780048Y-6314484D02*
X4761001Y-6304960D01*
X4761001Y-6304960D02*
X4751477Y-6285912D01*
X4751477Y-6285912D02*
X4751477Y-6266865D01*
X4751477Y-6266865D02*
X4761001Y-6247817D01*
X4761001Y-6247817D02*
X4780048Y-6238293D01*
X4780048Y-6238293D02*
X4827667Y-6238293D01*
X4827667Y-6238293D02*
X4846715Y-6228769D01*
X4941953Y-6181150D02*
X4941953Y-6381150D01*
X4941953Y-6190674D02*
X4961001Y-6181150D01*
X4961001Y-6181150D02*
X4999096Y-6181150D01*
X4999096Y-6181150D02*
X5018144Y-6190674D01*
X5018144Y-6190674D02*
X5027667Y-6200198D01*
X5027667Y-6200198D02*
X5037191Y-6219246D01*
X5037191Y-6219246D02*
X5037191Y-6276388D01*
X5037191Y-6276388D02*
X5027667Y-6295436D01*
X5027667Y-6295436D02*
X5018144Y-6304960D01*
X5018144Y-6304960D02*
X4999096Y-6314484D01*
X4999096Y-6314484D02*
X4961001Y-6314484D01*
X4961001Y-6314484D02*
X4941953Y-6304960D01*
X5122905Y-6295436D02*
X5132429Y-6304960D01*
X5132429Y-6304960D02*
X5122905Y-6314484D01*
X5122905Y-6314484D02*
X5113382Y-6304960D01*
X5113382Y-6304960D02*
X5122905Y-6295436D01*
X5122905Y-6295436D02*
X5122905Y-6314484D01*
X5122905Y-6190674D02*
X5132429Y-6200198D01*
X5132429Y-6200198D02*
X5122905Y-6209722D01*
X5122905Y-6209722D02*
X5113382Y-6200198D01*
X5113382Y-6200198D02*
X5122905Y-6190674D01*
X5122905Y-6190674D02*
X5122905Y-6209722D01*
D10*
X3460700Y-6628000D02*
X3490700Y-6658000D01*
X3490700Y-6628000D02*
X3460700Y-6658000D01*
D11*
X3789572Y-6534484D02*
X3808620Y-6534484D01*
X3808620Y-6534484D02*
X3827667Y-6544008D01*
X3827667Y-6544008D02*
X3837191Y-6553531D01*
X3837191Y-6553531D02*
X3846715Y-6572579D01*
X3846715Y-6572579D02*
X3856239Y-6610674D01*
X3856239Y-6610674D02*
X3856239Y-6658293D01*
X3856239Y-6658293D02*
X3846715Y-6696388D01*
X3846715Y-6696388D02*
X3837191Y-6715436D01*
X3837191Y-6715436D02*
X3827667Y-6724960D01*
X3827667Y-6724960D02*
X3808620Y-6734484D01*
X3808620Y-6734484D02*
X3789572Y-6734484D01*
X3789572Y-6734484D02*
X3770524Y-6724960D01*
X3770524Y-6724960D02*
X3761001Y-6715436D01*
X3761001Y-6715436D02*
X3751477Y-6696388D01*
X3751477Y-6696388D02*
X3741953Y-6658293D01*
X3741953Y-6658293D02*
X3741953Y-6610674D01*
X3741953Y-6610674D02*
X3751477Y-6572579D01*
X3751477Y-6572579D02*
X3761001Y-6553531D01*
X3761001Y-6553531D02*
X3770524Y-6544008D01*
X3770524Y-6544008D02*
X3789572Y-6534484D01*
X3941953Y-6715436D02*
X3951477Y-6724960D01*
X3951477Y-6724960D02*
X3941953Y-6734484D01*
X3941953Y-6734484D02*
X3932429Y-6724960D01*
X3932429Y-6724960D02*
X3941953Y-6715436D01*
X3941953Y-6715436D02*
X3941953Y-6734484D01*
X4018143Y-6534484D02*
X4141953Y-6534484D01*
X4141953Y-6534484D02*
X4075286Y-6610674D01*
X4075286Y-6610674D02*
X4103858Y-6610674D01*
X4103858Y-6610674D02*
X4122905Y-6620198D01*
X4122905Y-6620198D02*
X4132429Y-6629722D01*
X4132429Y-6629722D02*
X4141953Y-6648769D01*
X4141953Y-6648769D02*
X4141953Y-6696388D01*
X4141953Y-6696388D02*
X4132429Y-6715436D01*
X4132429Y-6715436D02*
X4122905Y-6724960D01*
X4122905Y-6724960D02*
X4103858Y-6734484D01*
X4103858Y-6734484D02*
X4046715Y-6734484D01*
X4046715Y-6734484D02*
X4027667Y-6724960D01*
X4027667Y-6724960D02*
X4018143Y-6715436D01*
X4265763Y-6534484D02*
X4284810Y-6534484D01*
X4284810Y-6534484D02*
X4303858Y-6544008D01*
X4303858Y-6544008D02*
X4313382Y-6553531D01*
X4313382Y-6553531D02*
X4322905Y-6572579D01*
X4322905Y-6572579D02*
X4332429Y-6610674D01*
X4332429Y-6610674D02*
X4332429Y-6658293D01*
X4332429Y-6658293D02*
X4322905Y-6696388D01*
X4322905Y-6696388D02*
X4313382Y-6715436D01*
X4313382Y-6715436D02*
X4303858Y-6724960D01*
X4303858Y-6724960D02*
X4284810Y-6734484D01*
X4284810Y-6734484D02*
X4265763Y-6734484D01*
X4265763Y-6734484D02*
X4246715Y-6724960D01*
X4246715Y-6724960D02*
X4237191Y-6715436D01*
X4237191Y-6715436D02*
X4227667Y-6696388D01*
X4227667Y-6696388D02*
X4218144Y-6658293D01*
X4218144Y-6658293D02*
X4218144Y-6610674D01*
X4218144Y-6610674D02*
X4227667Y-6572579D01*
X4227667Y-6572579D02*
X4237191Y-6553531D01*
X4237191Y-6553531D02*
X4246715Y-6544008D01*
X4246715Y-6544008D02*
X4265763Y-6534484D01*
X4456239Y-6534484D02*
X4475286Y-6534484D01*
X4475286Y-6534484D02*
X4494334Y-6544008D01*
X4494334Y-6544008D02*
X4503858Y-6553531D01*
X4503858Y-6553531D02*
X4513382Y-6572579D01*
X4513382Y-6572579D02*
X4522905Y-6610674D01*
X4522905Y-6610674D02*
X4522905Y-6658293D01*
X4522905Y-6658293D02*
X4513382Y-6696388D01*
X4513382Y-6696388D02*
X4503858Y-6715436D01*
X4503858Y-6715436D02*
X4494334Y-6724960D01*
X4494334Y-6724960D02*
X4475286Y-6734484D01*
X4475286Y-6734484D02*
X4456239Y-6734484D01*
X4456239Y-6734484D02*
X4437191Y-6724960D01*
X4437191Y-6724960D02*
X4427667Y-6715436D01*
X4427667Y-6715436D02*
X4418144Y-6696388D01*
X4418144Y-6696388D02*
X4408620Y-6658293D01*
X4408620Y-6658293D02*
X4408620Y-6610674D01*
X4408620Y-6610674D02*
X4418144Y-6572579D01*
X4418144Y-6572579D02*
X4427667Y-6553531D01*
X4427667Y-6553531D02*
X4437191Y-6544008D01*
X4437191Y-6544008D02*
X4456239Y-6534484D01*
X4608620Y-6734484D02*
X4608620Y-6601150D01*
X4608620Y-6620198D02*
X4618144Y-6610674D01*
X4618144Y-6610674D02*
X4637191Y-6601150D01*
X4637191Y-6601150D02*
X4665763Y-6601150D01*
X4665763Y-6601150D02*
X4684810Y-6610674D01*
X4684810Y-6610674D02*
X4694334Y-6629722D01*
X4694334Y-6629722D02*
X4694334Y-6734484D01*
X4694334Y-6629722D02*
X4703858Y-6610674D01*
X4703858Y-6610674D02*
X4722905Y-6601150D01*
X4722905Y-6601150D02*
X4751477Y-6601150D01*
X4751477Y-6601150D02*
X4770525Y-6610674D01*
X4770525Y-6610674D02*
X4780048Y-6629722D01*
X4780048Y-6629722D02*
X4780048Y-6734484D01*
X4875286Y-6734484D02*
X4875286Y-6601150D01*
X4875286Y-6620198D02*
X4884810Y-6610674D01*
X4884810Y-6610674D02*
X4903858Y-6601150D01*
X4903858Y-6601150D02*
X4932429Y-6601150D01*
X4932429Y-6601150D02*
X4951477Y-6610674D01*
X4951477Y-6610674D02*
X4961001Y-6629722D01*
X4961001Y-6629722D02*
X4961001Y-6734484D01*
X4961001Y-6629722D02*
X4970525Y-6610674D01*
X4970525Y-6610674D02*
X4989572Y-6601150D01*
X4989572Y-6601150D02*
X5018144Y-6601150D01*
X5018144Y-6601150D02*
X5037191Y-6610674D01*
X5037191Y-6610674D02*
X5046715Y-6629722D01*
X5046715Y-6629722D02*
X5046715Y-6734484D01*
X5437191Y-6524960D02*
X5265763Y-6782103D01*
X5694334Y-6534484D02*
X5713382Y-6534484D01*
X5713382Y-6534484D02*
X5732429Y-6544008D01*
X5732429Y-6544008D02*
X5741953Y-6553531D01*
X5741953Y-6553531D02*
X5751477Y-6572579D01*
X5751477Y-6572579D02*
X5761001Y-6610674D01*
X5761001Y-6610674D02*
X5761001Y-6658293D01*
X5761001Y-6658293D02*
X5751477Y-6696388D01*
X5751477Y-6696388D02*
X5741953Y-6715436D01*
X5741953Y-6715436D02*
X5732429Y-6724960D01*
X5732429Y-6724960D02*
X5713382Y-6734484D01*
X5713382Y-6734484D02*
X5694334Y-6734484D01*
X5694334Y-6734484D02*
X5675286Y-6724960D01*
X5675286Y-6724960D02*
X5665763Y-6715436D01*
X5665763Y-6715436D02*
X5656239Y-6696388D01*
X5656239Y-6696388D02*
X5646715Y-6658293D01*
X5646715Y-6658293D02*
X5646715Y-6610674D01*
X5646715Y-6610674D02*
X5656239Y-6572579D01*
X5656239Y-6572579D02*
X5665763Y-6553531D01*
X5665763Y-6553531D02*
X5675286Y-6544008D01*
X5675286Y-6544008D02*
X5694334Y-6534484D01*
X5846715Y-6715436D02*
X5856239Y-6724960D01*
X5856239Y-6724960D02*
X5846715Y-6734484D01*
X5846715Y-6734484D02*
X5837191Y-6724960D01*
X5837191Y-6724960D02*
X5846715Y-6715436D01*
X5846715Y-6715436D02*
X5846715Y-6734484D01*
X5980048Y-6534484D02*
X5999096Y-6534484D01*
X5999096Y-6534484D02*
X6018144Y-6544008D01*
X6018144Y-6544008D02*
X6027667Y-6553531D01*
X6027667Y-6553531D02*
X6037191Y-6572579D01*
X6037191Y-6572579D02*
X6046715Y-6610674D01*
X6046715Y-6610674D02*
X6046715Y-6658293D01*
X6046715Y-6658293D02*
X6037191Y-6696388D01*
X6037191Y-6696388D02*
X6027667Y-6715436D01*
X6027667Y-6715436D02*
X6018144Y-6724960D01*
X6018144Y-6724960D02*
X5999096Y-6734484D01*
X5999096Y-6734484D02*
X5980048Y-6734484D01*
X5980048Y-6734484D02*
X5961001Y-6724960D01*
X5961001Y-6724960D02*
X5951477Y-6715436D01*
X5951477Y-6715436D02*
X5941953Y-6696388D01*
X5941953Y-6696388D02*
X5932429Y-6658293D01*
X5932429Y-6658293D02*
X5932429Y-6610674D01*
X5932429Y-6610674D02*
X5941953Y-6572579D01*
X5941953Y-6572579D02*
X5951477Y-6553531D01*
X5951477Y-6553531D02*
X5961001Y-6544008D01*
X5961001Y-6544008D02*
X5980048Y-6534484D01*
X6237191Y-6734484D02*
X6122906Y-6734484D01*
X6180048Y-6734484D02*
X6180048Y-6534484D01*
X6180048Y-6534484D02*
X6161001Y-6563055D01*
X6161001Y-6563055D02*
X6141953Y-6582103D01*
X6141953Y-6582103D02*
X6122906Y-6591627D01*
X6427667Y-6734484D02*
X6313382Y-6734484D01*
X6370525Y-6734484D02*
X6370525Y-6534484D01*
X6370525Y-6534484D02*
X6351477Y-6563055D01*
X6351477Y-6563055D02*
X6332429Y-6582103D01*
X6332429Y-6582103D02*
X6313382Y-6591627D01*
X6541953Y-6620198D02*
X6522906Y-6610674D01*
X6522906Y-6610674D02*
X6513382Y-6601150D01*
X6513382Y-6601150D02*
X6503858Y-6582103D01*
X6503858Y-6582103D02*
X6503858Y-6572579D01*
X6503858Y-6572579D02*
X6513382Y-6553531D01*
X6513382Y-6553531D02*
X6522906Y-6544008D01*
X6522906Y-6544008D02*
X6541953Y-6534484D01*
X6541953Y-6534484D02*
X6580048Y-6534484D01*
X6580048Y-6534484D02*
X6599096Y-6544008D01*
X6599096Y-6544008D02*
X6608620Y-6553531D01*
X6608620Y-6553531D02*
X6618144Y-6572579D01*
X6618144Y-6572579D02*
X6618144Y-6582103D01*
X6618144Y-6582103D02*
X6608620Y-6601150D01*
X6608620Y-6601150D02*
X6599096Y-6610674D01*
X6599096Y-6610674D02*
X6580048Y-6620198D01*
X6580048Y-6620198D02*
X6541953Y-6620198D01*
X6541953Y-6620198D02*
X6522906Y-6629722D01*
X6522906Y-6629722D02*
X6513382Y-6639246D01*
X6513382Y-6639246D02*
X6503858Y-6658293D01*
X6503858Y-6658293D02*
X6503858Y-6696388D01*
X6503858Y-6696388D02*
X6513382Y-6715436D01*
X6513382Y-6715436D02*
X6522906Y-6724960D01*
X6522906Y-6724960D02*
X6541953Y-6734484D01*
X6541953Y-6734484D02*
X6580048Y-6734484D01*
X6580048Y-6734484D02*
X6599096Y-6724960D01*
X6599096Y-6724960D02*
X6608620Y-6715436D01*
X6608620Y-6715436D02*
X6618144Y-6696388D01*
X6618144Y-6696388D02*
X6618144Y-6658293D01*
X6618144Y-6658293D02*
X6608620Y-6639246D01*
X6608620Y-6639246D02*
X6599096Y-6629722D01*
X6599096Y-6629722D02*
X6580048Y-6620198D01*
X6694334Y-6534484D02*
X6694334Y-6572579D01*
X6770525Y-6534484D02*
X6770525Y-6572579D01*
X7065763Y-6810674D02*
X7056239Y-6801150D01*
X7056239Y-6801150D02*
X7037191Y-6772579D01*
X7037191Y-6772579D02*
X7027668Y-6753531D01*
X7027668Y-6753531D02*
X7018144Y-6724960D01*
X7018144Y-6724960D02*
X7008620Y-6677341D01*
X7008620Y-6677341D02*
X7008620Y-6639246D01*
X7008620Y-6639246D02*
X7018144Y-6591627D01*
X7018144Y-6591627D02*
X7027668Y-6563055D01*
X7027668Y-6563055D02*
X7037191Y-6544008D01*
X7037191Y-6544008D02*
X7056239Y-6515436D01*
X7056239Y-6515436D02*
X7065763Y-6505912D01*
X7246715Y-6734484D02*
X7132429Y-6734484D01*
X7189572Y-6734484D02*
X7189572Y-6534484D01*
X7189572Y-6534484D02*
X7170525Y-6563055D01*
X7170525Y-6563055D02*
X7151477Y-6582103D01*
X7151477Y-6582103D02*
X7132429Y-6591627D01*
X7361001Y-6620198D02*
X7341953Y-6610674D01*
X7341953Y-6610674D02*
X7332429Y-6601150D01*
X7332429Y-6601150D02*
X7322906Y-6582103D01*
X7322906Y-6582103D02*
X7322906Y-6572579D01*
X7322906Y-6572579D02*
X7332429Y-6553531D01*
X7332429Y-6553531D02*
X7341953Y-6544008D01*
X7341953Y-6544008D02*
X7361001Y-6534484D01*
X7361001Y-6534484D02*
X7399096Y-6534484D01*
X7399096Y-6534484D02*
X7418144Y-6544008D01*
X7418144Y-6544008D02*
X7427668Y-6553531D01*
X7427668Y-6553531D02*
X7437191Y-6572579D01*
X7437191Y-6572579D02*
X7437191Y-6582103D01*
X7437191Y-6582103D02*
X7427668Y-6601150D01*
X7427668Y-6601150D02*
X7418144Y-6610674D01*
X7418144Y-6610674D02*
X7399096Y-6620198D01*
X7399096Y-6620198D02*
X7361001Y-6620198D01*
X7361001Y-6620198D02*
X7341953Y-6629722D01*
X7341953Y-6629722D02*
X7332429Y-6639246D01*
X7332429Y-6639246D02*
X7322906Y-6658293D01*
X7322906Y-6658293D02*
X7322906Y-6696388D01*
X7322906Y-6696388D02*
X7332429Y-6715436D01*
X7332429Y-6715436D02*
X7341953Y-6724960D01*
X7341953Y-6724960D02*
X7361001Y-6734484D01*
X7361001Y-6734484D02*
X7399096Y-6734484D01*
X7399096Y-6734484D02*
X7418144Y-6724960D01*
X7418144Y-6724960D02*
X7427668Y-6715436D01*
X7427668Y-6715436D02*
X7437191Y-6696388D01*
X7437191Y-6696388D02*
X7437191Y-6658293D01*
X7437191Y-6658293D02*
X7427668Y-6639246D01*
X7427668Y-6639246D02*
X7418144Y-6629722D01*
X7418144Y-6629722D02*
X7399096Y-6620198D01*
X7675287Y-6734484D02*
X7675287Y-6534484D01*
X7761001Y-6734484D02*
X7761001Y-6629722D01*
X7761001Y-6629722D02*
X7751477Y-6610674D01*
X7751477Y-6610674D02*
X7732430Y-6601150D01*
X7732430Y-6601150D02*
X7703858Y-6601150D01*
X7703858Y-6601150D02*
X7684810Y-6610674D01*
X7684810Y-6610674D02*
X7675287Y-6620198D01*
X7884810Y-6734484D02*
X7865763Y-6724960D01*
X7865763Y-6724960D02*
X7856239Y-6715436D01*
X7856239Y-6715436D02*
X7846715Y-6696388D01*
X7846715Y-6696388D02*
X7846715Y-6639246D01*
X7846715Y-6639246D02*
X7856239Y-6620198D01*
X7856239Y-6620198D02*
X7865763Y-6610674D01*
X7865763Y-6610674D02*
X7884810Y-6601150D01*
X7884810Y-6601150D02*
X7913382Y-6601150D01*
X7913382Y-6601150D02*
X7932430Y-6610674D01*
X7932430Y-6610674D02*
X7941953Y-6620198D01*
X7941953Y-6620198D02*
X7951477Y-6639246D01*
X7951477Y-6639246D02*
X7951477Y-6696388D01*
X7951477Y-6696388D02*
X7941953Y-6715436D01*
X7941953Y-6715436D02*
X7932430Y-6724960D01*
X7932430Y-6724960D02*
X7913382Y-6734484D01*
X7913382Y-6734484D02*
X7884810Y-6734484D01*
X8065763Y-6734484D02*
X8046715Y-6724960D01*
X8046715Y-6724960D02*
X8037191Y-6705912D01*
X8037191Y-6705912D02*
X8037191Y-6534484D01*
X8218144Y-6724960D02*
X8199096Y-6734484D01*
X8199096Y-6734484D02*
X8161001Y-6734484D01*
X8161001Y-6734484D02*
X8141953Y-6724960D01*
X8141953Y-6724960D02*
X8132430Y-6705912D01*
X8132430Y-6705912D02*
X8132430Y-6629722D01*
X8132430Y-6629722D02*
X8141953Y-6610674D01*
X8141953Y-6610674D02*
X8161001Y-6601150D01*
X8161001Y-6601150D02*
X8199096Y-6601150D01*
X8199096Y-6601150D02*
X8218144Y-6610674D01*
X8218144Y-6610674D02*
X8227668Y-6629722D01*
X8227668Y-6629722D02*
X8227668Y-6648769D01*
X8227668Y-6648769D02*
X8132430Y-6667817D01*
X8303858Y-6724960D02*
X8322906Y-6734484D01*
X8322906Y-6734484D02*
X8361001Y-6734484D01*
X8361001Y-6734484D02*
X8380049Y-6724960D01*
X8380049Y-6724960D02*
X8389573Y-6705912D01*
X8389573Y-6705912D02*
X8389573Y-6696388D01*
X8389573Y-6696388D02*
X8380049Y-6677341D01*
X8380049Y-6677341D02*
X8361001Y-6667817D01*
X8361001Y-6667817D02*
X8332430Y-6667817D01*
X8332430Y-6667817D02*
X8313382Y-6658293D01*
X8313382Y-6658293D02*
X8303858Y-6639246D01*
X8303858Y-6639246D02*
X8303858Y-6629722D01*
X8303858Y-6629722D02*
X8313382Y-6610674D01*
X8313382Y-6610674D02*
X8332430Y-6601150D01*
X8332430Y-6601150D02*
X8361001Y-6601150D01*
X8361001Y-6601150D02*
X8380049Y-6610674D01*
X8456239Y-6810674D02*
X8465763Y-6801150D01*
X8465763Y-6801150D02*
X8484811Y-6772579D01*
X8484811Y-6772579D02*
X8494334Y-6753531D01*
X8494334Y-6753531D02*
X8503858Y-6724960D01*
X8503858Y-6724960D02*
X8513382Y-6677341D01*
X8513382Y-6677341D02*
X8513382Y-6639246D01*
X8513382Y-6639246D02*
X8503858Y-6591627D01*
X8503858Y-6591627D02*
X8494334Y-6563055D01*
X8494334Y-6563055D02*
X8484811Y-6544008D01*
X8484811Y-6544008D02*
X8465763Y-6515436D01*
X8465763Y-6515436D02*
X8456239Y-6505912D01*
D10*
X3490700Y-6907000D02*
G75*
G03*
X3490700Y-6907000I-40000J0D01*
G01*
D11*
X3789572Y-6798484D02*
X3808620Y-6798484D01*
X3808620Y-6798484D02*
X3827667Y-6808008D01*
X3827667Y-6808008D02*
X3837191Y-6817531D01*
X3837191Y-6817531D02*
X3846715Y-6836579D01*
X3846715Y-6836579D02*
X3856239Y-6874674D01*
X3856239Y-6874674D02*
X3856239Y-6922293D01*
X3856239Y-6922293D02*
X3846715Y-6960388D01*
X3846715Y-6960388D02*
X3837191Y-6979436D01*
X3837191Y-6979436D02*
X3827667Y-6988960D01*
X3827667Y-6988960D02*
X3808620Y-6998484D01*
X3808620Y-6998484D02*
X3789572Y-6998484D01*
X3789572Y-6998484D02*
X3770524Y-6988960D01*
X3770524Y-6988960D02*
X3761001Y-6979436D01*
X3761001Y-6979436D02*
X3751477Y-6960388D01*
X3751477Y-6960388D02*
X3741953Y-6922293D01*
X3741953Y-6922293D02*
X3741953Y-6874674D01*
X3741953Y-6874674D02*
X3751477Y-6836579D01*
X3751477Y-6836579D02*
X3761001Y-6817531D01*
X3761001Y-6817531D02*
X3770524Y-6808008D01*
X3770524Y-6808008D02*
X3789572Y-6798484D01*
X3941953Y-6979436D02*
X3951477Y-6988960D01*
X3951477Y-6988960D02*
X3941953Y-6998484D01*
X3941953Y-6998484D02*
X3932429Y-6988960D01*
X3932429Y-6988960D02*
X3941953Y-6979436D01*
X3941953Y-6979436D02*
X3941953Y-6998484D01*
X4065762Y-6884198D02*
X4046715Y-6874674D01*
X4046715Y-6874674D02*
X4037191Y-6865150D01*
X4037191Y-6865150D02*
X4027667Y-6846103D01*
X4027667Y-6846103D02*
X4027667Y-6836579D01*
X4027667Y-6836579D02*
X4037191Y-6817531D01*
X4037191Y-6817531D02*
X4046715Y-6808008D01*
X4046715Y-6808008D02*
X4065762Y-6798484D01*
X4065762Y-6798484D02*
X4103858Y-6798484D01*
X4103858Y-6798484D02*
X4122905Y-6808008D01*
X4122905Y-6808008D02*
X4132429Y-6817531D01*
X4132429Y-6817531D02*
X4141953Y-6836579D01*
X4141953Y-6836579D02*
X4141953Y-6846103D01*
X4141953Y-6846103D02*
X4132429Y-6865150D01*
X4132429Y-6865150D02*
X4122905Y-6874674D01*
X4122905Y-6874674D02*
X4103858Y-6884198D01*
X4103858Y-6884198D02*
X4065762Y-6884198D01*
X4065762Y-6884198D02*
X4046715Y-6893722D01*
X4046715Y-6893722D02*
X4037191Y-6903246D01*
X4037191Y-6903246D02*
X4027667Y-6922293D01*
X4027667Y-6922293D02*
X4027667Y-6960388D01*
X4027667Y-6960388D02*
X4037191Y-6979436D01*
X4037191Y-6979436D02*
X4046715Y-6988960D01*
X4046715Y-6988960D02*
X4065762Y-6998484D01*
X4065762Y-6998484D02*
X4103858Y-6998484D01*
X4103858Y-6998484D02*
X4122905Y-6988960D01*
X4122905Y-6988960D02*
X4132429Y-6979436D01*
X4132429Y-6979436D02*
X4141953Y-6960388D01*
X4141953Y-6960388D02*
X4141953Y-6922293D01*
X4141953Y-6922293D02*
X4132429Y-6903246D01*
X4132429Y-6903246D02*
X4122905Y-6893722D01*
X4122905Y-6893722D02*
X4103858Y-6884198D01*
X4265763Y-6798484D02*
X4284810Y-6798484D01*
X4284810Y-6798484D02*
X4303858Y-6808008D01*
X4303858Y-6808008D02*
X4313382Y-6817531D01*
X4313382Y-6817531D02*
X4322905Y-6836579D01*
X4322905Y-6836579D02*
X4332429Y-6874674D01*
X4332429Y-6874674D02*
X4332429Y-6922293D01*
X4332429Y-6922293D02*
X4322905Y-6960388D01*
X4322905Y-6960388D02*
X4313382Y-6979436D01*
X4313382Y-6979436D02*
X4303858Y-6988960D01*
X4303858Y-6988960D02*
X4284810Y-6998484D01*
X4284810Y-6998484D02*
X4265763Y-6998484D01*
X4265763Y-6998484D02*
X4246715Y-6988960D01*
X4246715Y-6988960D02*
X4237191Y-6979436D01*
X4237191Y-6979436D02*
X4227667Y-6960388D01*
X4227667Y-6960388D02*
X4218144Y-6922293D01*
X4218144Y-6922293D02*
X4218144Y-6874674D01*
X4218144Y-6874674D02*
X4227667Y-6836579D01*
X4227667Y-6836579D02*
X4237191Y-6817531D01*
X4237191Y-6817531D02*
X4246715Y-6808008D01*
X4246715Y-6808008D02*
X4265763Y-6798484D01*
X4456239Y-6798484D02*
X4475286Y-6798484D01*
X4475286Y-6798484D02*
X4494334Y-6808008D01*
X4494334Y-6808008D02*
X4503858Y-6817531D01*
X4503858Y-6817531D02*
X4513382Y-6836579D01*
X4513382Y-6836579D02*
X4522905Y-6874674D01*
X4522905Y-6874674D02*
X4522905Y-6922293D01*
X4522905Y-6922293D02*
X4513382Y-6960388D01*
X4513382Y-6960388D02*
X4503858Y-6979436D01*
X4503858Y-6979436D02*
X4494334Y-6988960D01*
X4494334Y-6988960D02*
X4475286Y-6998484D01*
X4475286Y-6998484D02*
X4456239Y-6998484D01*
X4456239Y-6998484D02*
X4437191Y-6988960D01*
X4437191Y-6988960D02*
X4427667Y-6979436D01*
X4427667Y-6979436D02*
X4418144Y-6960388D01*
X4418144Y-6960388D02*
X4408620Y-6922293D01*
X4408620Y-6922293D02*
X4408620Y-6874674D01*
X4408620Y-6874674D02*
X4418144Y-6836579D01*
X4418144Y-6836579D02*
X4427667Y-6817531D01*
X4427667Y-6817531D02*
X4437191Y-6808008D01*
X4437191Y-6808008D02*
X4456239Y-6798484D01*
X4608620Y-6998484D02*
X4608620Y-6865150D01*
X4608620Y-6884198D02*
X4618144Y-6874674D01*
X4618144Y-6874674D02*
X4637191Y-6865150D01*
X4637191Y-6865150D02*
X4665763Y-6865150D01*
X4665763Y-6865150D02*
X4684810Y-6874674D01*
X4684810Y-6874674D02*
X4694334Y-6893722D01*
X4694334Y-6893722D02*
X4694334Y-6998484D01*
X4694334Y-6893722D02*
X4703858Y-6874674D01*
X4703858Y-6874674D02*
X4722905Y-6865150D01*
X4722905Y-6865150D02*
X4751477Y-6865150D01*
X4751477Y-6865150D02*
X4770525Y-6874674D01*
X4770525Y-6874674D02*
X4780048Y-6893722D01*
X4780048Y-6893722D02*
X4780048Y-6998484D01*
X4875286Y-6998484D02*
X4875286Y-6865150D01*
X4875286Y-6884198D02*
X4884810Y-6874674D01*
X4884810Y-6874674D02*
X4903858Y-6865150D01*
X4903858Y-6865150D02*
X4932429Y-6865150D01*
X4932429Y-6865150D02*
X4951477Y-6874674D01*
X4951477Y-6874674D02*
X4961001Y-6893722D01*
X4961001Y-6893722D02*
X4961001Y-6998484D01*
X4961001Y-6893722D02*
X4970525Y-6874674D01*
X4970525Y-6874674D02*
X4989572Y-6865150D01*
X4989572Y-6865150D02*
X5018144Y-6865150D01*
X5018144Y-6865150D02*
X5037191Y-6874674D01*
X5037191Y-6874674D02*
X5046715Y-6893722D01*
X5046715Y-6893722D02*
X5046715Y-6998484D01*
X5437191Y-6788960D02*
X5265763Y-7046103D01*
X5694334Y-6798484D02*
X5713382Y-6798484D01*
X5713382Y-6798484D02*
X5732429Y-6808008D01*
X5732429Y-6808008D02*
X5741953Y-6817531D01*
X5741953Y-6817531D02*
X5751477Y-6836579D01*
X5751477Y-6836579D02*
X5761001Y-6874674D01*
X5761001Y-6874674D02*
X5761001Y-6922293D01*
X5761001Y-6922293D02*
X5751477Y-6960388D01*
X5751477Y-6960388D02*
X5741953Y-6979436D01*
X5741953Y-6979436D02*
X5732429Y-6988960D01*
X5732429Y-6988960D02*
X5713382Y-6998484D01*
X5713382Y-6998484D02*
X5694334Y-6998484D01*
X5694334Y-6998484D02*
X5675286Y-6988960D01*
X5675286Y-6988960D02*
X5665763Y-6979436D01*
X5665763Y-6979436D02*
X5656239Y-6960388D01*
X5656239Y-6960388D02*
X5646715Y-6922293D01*
X5646715Y-6922293D02*
X5646715Y-6874674D01*
X5646715Y-6874674D02*
X5656239Y-6836579D01*
X5656239Y-6836579D02*
X5665763Y-6817531D01*
X5665763Y-6817531D02*
X5675286Y-6808008D01*
X5675286Y-6808008D02*
X5694334Y-6798484D01*
X5846715Y-6979436D02*
X5856239Y-6988960D01*
X5856239Y-6988960D02*
X5846715Y-6998484D01*
X5846715Y-6998484D02*
X5837191Y-6988960D01*
X5837191Y-6988960D02*
X5846715Y-6979436D01*
X5846715Y-6979436D02*
X5846715Y-6998484D01*
X5980048Y-6798484D02*
X5999096Y-6798484D01*
X5999096Y-6798484D02*
X6018144Y-6808008D01*
X6018144Y-6808008D02*
X6027667Y-6817531D01*
X6027667Y-6817531D02*
X6037191Y-6836579D01*
X6037191Y-6836579D02*
X6046715Y-6874674D01*
X6046715Y-6874674D02*
X6046715Y-6922293D01*
X6046715Y-6922293D02*
X6037191Y-6960388D01*
X6037191Y-6960388D02*
X6027667Y-6979436D01*
X6027667Y-6979436D02*
X6018144Y-6988960D01*
X6018144Y-6988960D02*
X5999096Y-6998484D01*
X5999096Y-6998484D02*
X5980048Y-6998484D01*
X5980048Y-6998484D02*
X5961001Y-6988960D01*
X5961001Y-6988960D02*
X5951477Y-6979436D01*
X5951477Y-6979436D02*
X5941953Y-6960388D01*
X5941953Y-6960388D02*
X5932429Y-6922293D01*
X5932429Y-6922293D02*
X5932429Y-6874674D01*
X5932429Y-6874674D02*
X5941953Y-6836579D01*
X5941953Y-6836579D02*
X5951477Y-6817531D01*
X5951477Y-6817531D02*
X5961001Y-6808008D01*
X5961001Y-6808008D02*
X5980048Y-6798484D01*
X6113382Y-6798484D02*
X6237191Y-6798484D01*
X6237191Y-6798484D02*
X6170525Y-6874674D01*
X6170525Y-6874674D02*
X6199096Y-6874674D01*
X6199096Y-6874674D02*
X6218144Y-6884198D01*
X6218144Y-6884198D02*
X6227667Y-6893722D01*
X6227667Y-6893722D02*
X6237191Y-6912769D01*
X6237191Y-6912769D02*
X6237191Y-6960388D01*
X6237191Y-6960388D02*
X6227667Y-6979436D01*
X6227667Y-6979436D02*
X6218144Y-6988960D01*
X6218144Y-6988960D02*
X6199096Y-6998484D01*
X6199096Y-6998484D02*
X6141953Y-6998484D01*
X6141953Y-6998484D02*
X6122906Y-6988960D01*
X6122906Y-6988960D02*
X6113382Y-6979436D01*
X6427667Y-6998484D02*
X6313382Y-6998484D01*
X6370525Y-6998484D02*
X6370525Y-6798484D01*
X6370525Y-6798484D02*
X6351477Y-6827055D01*
X6351477Y-6827055D02*
X6332429Y-6846103D01*
X6332429Y-6846103D02*
X6313382Y-6855627D01*
X6608620Y-6798484D02*
X6513382Y-6798484D01*
X6513382Y-6798484D02*
X6503858Y-6893722D01*
X6503858Y-6893722D02*
X6513382Y-6884198D01*
X6513382Y-6884198D02*
X6532429Y-6874674D01*
X6532429Y-6874674D02*
X6580048Y-6874674D01*
X6580048Y-6874674D02*
X6599096Y-6884198D01*
X6599096Y-6884198D02*
X6608620Y-6893722D01*
X6608620Y-6893722D02*
X6618144Y-6912769D01*
X6618144Y-6912769D02*
X6618144Y-6960388D01*
X6618144Y-6960388D02*
X6608620Y-6979436D01*
X6608620Y-6979436D02*
X6599096Y-6988960D01*
X6599096Y-6988960D02*
X6580048Y-6998484D01*
X6580048Y-6998484D02*
X6532429Y-6998484D01*
X6532429Y-6998484D02*
X6513382Y-6988960D01*
X6513382Y-6988960D02*
X6503858Y-6979436D01*
X6694334Y-6798484D02*
X6694334Y-6836579D01*
X6770525Y-6798484D02*
X6770525Y-6836579D01*
X7065763Y-7074674D02*
X7056239Y-7065150D01*
X7056239Y-7065150D02*
X7037191Y-7036579D01*
X7037191Y-7036579D02*
X7027668Y-7017531D01*
X7027668Y-7017531D02*
X7018144Y-6988960D01*
X7018144Y-6988960D02*
X7008620Y-6941341D01*
X7008620Y-6941341D02*
X7008620Y-6903246D01*
X7008620Y-6903246D02*
X7018144Y-6855627D01*
X7018144Y-6855627D02*
X7027668Y-6827055D01*
X7027668Y-6827055D02*
X7037191Y-6808008D01*
X7037191Y-6808008D02*
X7056239Y-6779436D01*
X7056239Y-6779436D02*
X7065763Y-6769912D01*
X7122906Y-6798484D02*
X7246715Y-6798484D01*
X7246715Y-6798484D02*
X7180048Y-6874674D01*
X7180048Y-6874674D02*
X7208620Y-6874674D01*
X7208620Y-6874674D02*
X7227668Y-6884198D01*
X7227668Y-6884198D02*
X7237191Y-6893722D01*
X7237191Y-6893722D02*
X7246715Y-6912769D01*
X7246715Y-6912769D02*
X7246715Y-6960388D01*
X7246715Y-6960388D02*
X7237191Y-6979436D01*
X7237191Y-6979436D02*
X7227668Y-6988960D01*
X7227668Y-6988960D02*
X7208620Y-6998484D01*
X7208620Y-6998484D02*
X7151477Y-6998484D01*
X7151477Y-6998484D02*
X7132429Y-6988960D01*
X7132429Y-6988960D02*
X7122906Y-6979436D01*
X7484810Y-6998484D02*
X7484810Y-6798484D01*
X7570525Y-6998484D02*
X7570525Y-6893722D01*
X7570525Y-6893722D02*
X7561001Y-6874674D01*
X7561001Y-6874674D02*
X7541953Y-6865150D01*
X7541953Y-6865150D02*
X7513382Y-6865150D01*
X7513382Y-6865150D02*
X7494334Y-6874674D01*
X7494334Y-6874674D02*
X7484810Y-6884198D01*
X7694334Y-6998484D02*
X7675287Y-6988960D01*
X7675287Y-6988960D02*
X7665763Y-6979436D01*
X7665763Y-6979436D02*
X7656239Y-6960388D01*
X7656239Y-6960388D02*
X7656239Y-6903246D01*
X7656239Y-6903246D02*
X7665763Y-6884198D01*
X7665763Y-6884198D02*
X7675287Y-6874674D01*
X7675287Y-6874674D02*
X7694334Y-6865150D01*
X7694334Y-6865150D02*
X7722906Y-6865150D01*
X7722906Y-6865150D02*
X7741953Y-6874674D01*
X7741953Y-6874674D02*
X7751477Y-6884198D01*
X7751477Y-6884198D02*
X7761001Y-6903246D01*
X7761001Y-6903246D02*
X7761001Y-6960388D01*
X7761001Y-6960388D02*
X7751477Y-6979436D01*
X7751477Y-6979436D02*
X7741953Y-6988960D01*
X7741953Y-6988960D02*
X7722906Y-6998484D01*
X7722906Y-6998484D02*
X7694334Y-6998484D01*
X7875287Y-6998484D02*
X7856239Y-6988960D01*
X7856239Y-6988960D02*
X7846715Y-6969912D01*
X7846715Y-6969912D02*
X7846715Y-6798484D01*
X8027668Y-6988960D02*
X8008620Y-6998484D01*
X8008620Y-6998484D02*
X7970525Y-6998484D01*
X7970525Y-6998484D02*
X7951477Y-6988960D01*
X7951477Y-6988960D02*
X7941953Y-6969912D01*
X7941953Y-6969912D02*
X7941953Y-6893722D01*
X7941953Y-6893722D02*
X7951477Y-6874674D01*
X7951477Y-6874674D02*
X7970525Y-6865150D01*
X7970525Y-6865150D02*
X8008620Y-6865150D01*
X8008620Y-6865150D02*
X8027668Y-6874674D01*
X8027668Y-6874674D02*
X8037191Y-6893722D01*
X8037191Y-6893722D02*
X8037191Y-6912769D01*
X8037191Y-6912769D02*
X7941953Y-6931817D01*
X8113382Y-6988960D02*
X8132430Y-6998484D01*
X8132430Y-6998484D02*
X8170525Y-6998484D01*
X8170525Y-6998484D02*
X8189572Y-6988960D01*
X8189572Y-6988960D02*
X8199096Y-6969912D01*
X8199096Y-6969912D02*
X8199096Y-6960388D01*
X8199096Y-6960388D02*
X8189572Y-6941341D01*
X8189572Y-6941341D02*
X8170525Y-6931817D01*
X8170525Y-6931817D02*
X8141953Y-6931817D01*
X8141953Y-6931817D02*
X8122906Y-6922293D01*
X8122906Y-6922293D02*
X8113382Y-6903246D01*
X8113382Y-6903246D02*
X8113382Y-6893722D01*
X8113382Y-6893722D02*
X8122906Y-6874674D01*
X8122906Y-6874674D02*
X8141953Y-6865150D01*
X8141953Y-6865150D02*
X8170525Y-6865150D01*
X8170525Y-6865150D02*
X8189572Y-6874674D01*
X8265763Y-7074674D02*
X8275287Y-7065150D01*
X8275287Y-7065150D02*
X8294334Y-7036579D01*
X8294334Y-7036579D02*
X8303858Y-7017531D01*
X8303858Y-7017531D02*
X8313382Y-6988960D01*
X8313382Y-6988960D02*
X8322906Y-6941341D01*
X8322906Y-6941341D02*
X8322906Y-6903246D01*
X8322906Y-6903246D02*
X8313382Y-6855627D01*
X8313382Y-6855627D02*
X8303858Y-6827055D01*
X8303858Y-6827055D02*
X8294334Y-6808008D01*
X8294334Y-6808008D02*
X8275287Y-6779436D01*
X8275287Y-6779436D02*
X8265763Y-6769912D01*
D10*
X3440700Y-7121000D02*
X3440700Y-7221000D01*
X3390700Y-7171000D02*
X3490700Y-7171000D01*
D11*
X3856239Y-7262484D02*
X3741953Y-7262484D01*
X3799096Y-7262484D02*
X3799096Y-7062484D01*
X3799096Y-7062484D02*
X3780048Y-7091055D01*
X3780048Y-7091055D02*
X3761001Y-7110103D01*
X3761001Y-7110103D02*
X3741953Y-7119627D01*
X3941953Y-7243436D02*
X3951477Y-7252960D01*
X3951477Y-7252960D02*
X3941953Y-7262484D01*
X3941953Y-7262484D02*
X3932429Y-7252960D01*
X3932429Y-7252960D02*
X3941953Y-7243436D01*
X3941953Y-7243436D02*
X3941953Y-7262484D01*
X4075286Y-7062484D02*
X4094334Y-7062484D01*
X4094334Y-7062484D02*
X4113382Y-7072008D01*
X4113382Y-7072008D02*
X4122905Y-7081531D01*
X4122905Y-7081531D02*
X4132429Y-7100579D01*
X4132429Y-7100579D02*
X4141953Y-7138674D01*
X4141953Y-7138674D02*
X4141953Y-7186293D01*
X4141953Y-7186293D02*
X4132429Y-7224388D01*
X4132429Y-7224388D02*
X4122905Y-7243436D01*
X4122905Y-7243436D02*
X4113382Y-7252960D01*
X4113382Y-7252960D02*
X4094334Y-7262484D01*
X4094334Y-7262484D02*
X4075286Y-7262484D01*
X4075286Y-7262484D02*
X4056239Y-7252960D01*
X4056239Y-7252960D02*
X4046715Y-7243436D01*
X4046715Y-7243436D02*
X4037191Y-7224388D01*
X4037191Y-7224388D02*
X4027667Y-7186293D01*
X4027667Y-7186293D02*
X4027667Y-7138674D01*
X4027667Y-7138674D02*
X4037191Y-7100579D01*
X4037191Y-7100579D02*
X4046715Y-7081531D01*
X4046715Y-7081531D02*
X4056239Y-7072008D01*
X4056239Y-7072008D02*
X4075286Y-7062484D01*
X4265763Y-7062484D02*
X4284810Y-7062484D01*
X4284810Y-7062484D02*
X4303858Y-7072008D01*
X4303858Y-7072008D02*
X4313382Y-7081531D01*
X4313382Y-7081531D02*
X4322905Y-7100579D01*
X4322905Y-7100579D02*
X4332429Y-7138674D01*
X4332429Y-7138674D02*
X4332429Y-7186293D01*
X4332429Y-7186293D02*
X4322905Y-7224388D01*
X4322905Y-7224388D02*
X4313382Y-7243436D01*
X4313382Y-7243436D02*
X4303858Y-7252960D01*
X4303858Y-7252960D02*
X4284810Y-7262484D01*
X4284810Y-7262484D02*
X4265763Y-7262484D01*
X4265763Y-7262484D02*
X4246715Y-7252960D01*
X4246715Y-7252960D02*
X4237191Y-7243436D01*
X4237191Y-7243436D02*
X4227667Y-7224388D01*
X4227667Y-7224388D02*
X4218144Y-7186293D01*
X4218144Y-7186293D02*
X4218144Y-7138674D01*
X4218144Y-7138674D02*
X4227667Y-7100579D01*
X4227667Y-7100579D02*
X4237191Y-7081531D01*
X4237191Y-7081531D02*
X4246715Y-7072008D01*
X4246715Y-7072008D02*
X4265763Y-7062484D01*
X4456239Y-7062484D02*
X4475286Y-7062484D01*
X4475286Y-7062484D02*
X4494334Y-7072008D01*
X4494334Y-7072008D02*
X4503858Y-7081531D01*
X4503858Y-7081531D02*
X4513382Y-7100579D01*
X4513382Y-7100579D02*
X4522905Y-7138674D01*
X4522905Y-7138674D02*
X4522905Y-7186293D01*
X4522905Y-7186293D02*
X4513382Y-7224388D01*
X4513382Y-7224388D02*
X4503858Y-7243436D01*
X4503858Y-7243436D02*
X4494334Y-7252960D01*
X4494334Y-7252960D02*
X4475286Y-7262484D01*
X4475286Y-7262484D02*
X4456239Y-7262484D01*
X4456239Y-7262484D02*
X4437191Y-7252960D01*
X4437191Y-7252960D02*
X4427667Y-7243436D01*
X4427667Y-7243436D02*
X4418144Y-7224388D01*
X4418144Y-7224388D02*
X4408620Y-7186293D01*
X4408620Y-7186293D02*
X4408620Y-7138674D01*
X4408620Y-7138674D02*
X4418144Y-7100579D01*
X4418144Y-7100579D02*
X4427667Y-7081531D01*
X4427667Y-7081531D02*
X4437191Y-7072008D01*
X4437191Y-7072008D02*
X4456239Y-7062484D01*
X4608620Y-7262484D02*
X4608620Y-7129150D01*
X4608620Y-7148198D02*
X4618144Y-7138674D01*
X4618144Y-7138674D02*
X4637191Y-7129150D01*
X4637191Y-7129150D02*
X4665763Y-7129150D01*
X4665763Y-7129150D02*
X4684810Y-7138674D01*
X4684810Y-7138674D02*
X4694334Y-7157722D01*
X4694334Y-7157722D02*
X4694334Y-7262484D01*
X4694334Y-7157722D02*
X4703858Y-7138674D01*
X4703858Y-7138674D02*
X4722905Y-7129150D01*
X4722905Y-7129150D02*
X4751477Y-7129150D01*
X4751477Y-7129150D02*
X4770525Y-7138674D01*
X4770525Y-7138674D02*
X4780048Y-7157722D01*
X4780048Y-7157722D02*
X4780048Y-7262484D01*
X4875286Y-7262484D02*
X4875286Y-7129150D01*
X4875286Y-7148198D02*
X4884810Y-7138674D01*
X4884810Y-7138674D02*
X4903858Y-7129150D01*
X4903858Y-7129150D02*
X4932429Y-7129150D01*
X4932429Y-7129150D02*
X4951477Y-7138674D01*
X4951477Y-7138674D02*
X4961001Y-7157722D01*
X4961001Y-7157722D02*
X4961001Y-7262484D01*
X4961001Y-7157722D02*
X4970525Y-7138674D01*
X4970525Y-7138674D02*
X4989572Y-7129150D01*
X4989572Y-7129150D02*
X5018144Y-7129150D01*
X5018144Y-7129150D02*
X5037191Y-7138674D01*
X5037191Y-7138674D02*
X5046715Y-7157722D01*
X5046715Y-7157722D02*
X5046715Y-7262484D01*
X5437191Y-7052960D02*
X5265763Y-7310103D01*
X5694334Y-7062484D02*
X5713382Y-7062484D01*
X5713382Y-7062484D02*
X5732429Y-7072008D01*
X5732429Y-7072008D02*
X5741953Y-7081531D01*
X5741953Y-7081531D02*
X5751477Y-7100579D01*
X5751477Y-7100579D02*
X5761001Y-7138674D01*
X5761001Y-7138674D02*
X5761001Y-7186293D01*
X5761001Y-7186293D02*
X5751477Y-7224388D01*
X5751477Y-7224388D02*
X5741953Y-7243436D01*
X5741953Y-7243436D02*
X5732429Y-7252960D01*
X5732429Y-7252960D02*
X5713382Y-7262484D01*
X5713382Y-7262484D02*
X5694334Y-7262484D01*
X5694334Y-7262484D02*
X5675286Y-7252960D01*
X5675286Y-7252960D02*
X5665763Y-7243436D01*
X5665763Y-7243436D02*
X5656239Y-7224388D01*
X5656239Y-7224388D02*
X5646715Y-7186293D01*
X5646715Y-7186293D02*
X5646715Y-7138674D01*
X5646715Y-7138674D02*
X5656239Y-7100579D01*
X5656239Y-7100579D02*
X5665763Y-7081531D01*
X5665763Y-7081531D02*
X5675286Y-7072008D01*
X5675286Y-7072008D02*
X5694334Y-7062484D01*
X5846715Y-7243436D02*
X5856239Y-7252960D01*
X5856239Y-7252960D02*
X5846715Y-7262484D01*
X5846715Y-7262484D02*
X5837191Y-7252960D01*
X5837191Y-7252960D02*
X5846715Y-7243436D01*
X5846715Y-7243436D02*
X5846715Y-7262484D01*
X5980048Y-7062484D02*
X5999096Y-7062484D01*
X5999096Y-7062484D02*
X6018144Y-7072008D01*
X6018144Y-7072008D02*
X6027667Y-7081531D01*
X6027667Y-7081531D02*
X6037191Y-7100579D01*
X6037191Y-7100579D02*
X6046715Y-7138674D01*
X6046715Y-7138674D02*
X6046715Y-7186293D01*
X6046715Y-7186293D02*
X6037191Y-7224388D01*
X6037191Y-7224388D02*
X6027667Y-7243436D01*
X6027667Y-7243436D02*
X6018144Y-7252960D01*
X6018144Y-7252960D02*
X5999096Y-7262484D01*
X5999096Y-7262484D02*
X5980048Y-7262484D01*
X5980048Y-7262484D02*
X5961001Y-7252960D01*
X5961001Y-7252960D02*
X5951477Y-7243436D01*
X5951477Y-7243436D02*
X5941953Y-7224388D01*
X5941953Y-7224388D02*
X5932429Y-7186293D01*
X5932429Y-7186293D02*
X5932429Y-7138674D01*
X5932429Y-7138674D02*
X5941953Y-7100579D01*
X5941953Y-7100579D02*
X5951477Y-7081531D01*
X5951477Y-7081531D02*
X5961001Y-7072008D01*
X5961001Y-7072008D02*
X5980048Y-7062484D01*
X6113382Y-7062484D02*
X6237191Y-7062484D01*
X6237191Y-7062484D02*
X6170525Y-7138674D01*
X6170525Y-7138674D02*
X6199096Y-7138674D01*
X6199096Y-7138674D02*
X6218144Y-7148198D01*
X6218144Y-7148198D02*
X6227667Y-7157722D01*
X6227667Y-7157722D02*
X6237191Y-7176769D01*
X6237191Y-7176769D02*
X6237191Y-7224388D01*
X6237191Y-7224388D02*
X6227667Y-7243436D01*
X6227667Y-7243436D02*
X6218144Y-7252960D01*
X6218144Y-7252960D02*
X6199096Y-7262484D01*
X6199096Y-7262484D02*
X6141953Y-7262484D01*
X6141953Y-7262484D02*
X6122906Y-7252960D01*
X6122906Y-7252960D02*
X6113382Y-7243436D01*
X6332429Y-7262484D02*
X6370525Y-7262484D01*
X6370525Y-7262484D02*
X6389572Y-7252960D01*
X6389572Y-7252960D02*
X6399096Y-7243436D01*
X6399096Y-7243436D02*
X6418144Y-7214865D01*
X6418144Y-7214865D02*
X6427667Y-7176769D01*
X6427667Y-7176769D02*
X6427667Y-7100579D01*
X6427667Y-7100579D02*
X6418144Y-7081531D01*
X6418144Y-7081531D02*
X6408620Y-7072008D01*
X6408620Y-7072008D02*
X6389572Y-7062484D01*
X6389572Y-7062484D02*
X6351477Y-7062484D01*
X6351477Y-7062484D02*
X6332429Y-7072008D01*
X6332429Y-7072008D02*
X6322906Y-7081531D01*
X6322906Y-7081531D02*
X6313382Y-7100579D01*
X6313382Y-7100579D02*
X6313382Y-7148198D01*
X6313382Y-7148198D02*
X6322906Y-7167246D01*
X6322906Y-7167246D02*
X6332429Y-7176769D01*
X6332429Y-7176769D02*
X6351477Y-7186293D01*
X6351477Y-7186293D02*
X6389572Y-7186293D01*
X6389572Y-7186293D02*
X6408620Y-7176769D01*
X6408620Y-7176769D02*
X6418144Y-7167246D01*
X6418144Y-7167246D02*
X6427667Y-7148198D01*
X6599096Y-7129150D02*
X6599096Y-7262484D01*
X6551477Y-7052960D02*
X6503858Y-7195817D01*
X6503858Y-7195817D02*
X6627667Y-7195817D01*
X6694334Y-7062484D02*
X6694334Y-7100579D01*
X6770525Y-7062484D02*
X6770525Y-7100579D01*
X7065763Y-7338674D02*
X7056239Y-7329150D01*
X7056239Y-7329150D02*
X7037191Y-7300579D01*
X7037191Y-7300579D02*
X7027668Y-7281531D01*
X7027668Y-7281531D02*
X7018144Y-7252960D01*
X7018144Y-7252960D02*
X7008620Y-7205341D01*
X7008620Y-7205341D02*
X7008620Y-7167246D01*
X7008620Y-7167246D02*
X7018144Y-7119627D01*
X7018144Y-7119627D02*
X7027668Y-7091055D01*
X7027668Y-7091055D02*
X7037191Y-7072008D01*
X7037191Y-7072008D02*
X7056239Y-7043436D01*
X7056239Y-7043436D02*
X7065763Y-7033912D01*
X7132429Y-7081531D02*
X7141953Y-7072008D01*
X7141953Y-7072008D02*
X7161001Y-7062484D01*
X7161001Y-7062484D02*
X7208620Y-7062484D01*
X7208620Y-7062484D02*
X7227668Y-7072008D01*
X7227668Y-7072008D02*
X7237191Y-7081531D01*
X7237191Y-7081531D02*
X7246715Y-7100579D01*
X7246715Y-7100579D02*
X7246715Y-7119627D01*
X7246715Y-7119627D02*
X7237191Y-7148198D01*
X7237191Y-7148198D02*
X7122906Y-7262484D01*
X7122906Y-7262484D02*
X7246715Y-7262484D01*
X7370525Y-7062484D02*
X7389572Y-7062484D01*
X7389572Y-7062484D02*
X7408620Y-7072008D01*
X7408620Y-7072008D02*
X7418144Y-7081531D01*
X7418144Y-7081531D02*
X7427668Y-7100579D01*
X7427668Y-7100579D02*
X7437191Y-7138674D01*
X7437191Y-7138674D02*
X7437191Y-7186293D01*
X7437191Y-7186293D02*
X7427668Y-7224388D01*
X7427668Y-7224388D02*
X7418144Y-7243436D01*
X7418144Y-7243436D02*
X7408620Y-7252960D01*
X7408620Y-7252960D02*
X7389572Y-7262484D01*
X7389572Y-7262484D02*
X7370525Y-7262484D01*
X7370525Y-7262484D02*
X7351477Y-7252960D01*
X7351477Y-7252960D02*
X7341953Y-7243436D01*
X7341953Y-7243436D02*
X7332429Y-7224388D01*
X7332429Y-7224388D02*
X7322906Y-7186293D01*
X7322906Y-7186293D02*
X7322906Y-7138674D01*
X7322906Y-7138674D02*
X7332429Y-7100579D01*
X7332429Y-7100579D02*
X7341953Y-7081531D01*
X7341953Y-7081531D02*
X7351477Y-7072008D01*
X7351477Y-7072008D02*
X7370525Y-7062484D01*
X7675287Y-7262484D02*
X7675287Y-7062484D01*
X7761001Y-7262484D02*
X7761001Y-7157722D01*
X7761001Y-7157722D02*
X7751477Y-7138674D01*
X7751477Y-7138674D02*
X7732430Y-7129150D01*
X7732430Y-7129150D02*
X7703858Y-7129150D01*
X7703858Y-7129150D02*
X7684810Y-7138674D01*
X7684810Y-7138674D02*
X7675287Y-7148198D01*
X7884810Y-7262484D02*
X7865763Y-7252960D01*
X7865763Y-7252960D02*
X7856239Y-7243436D01*
X7856239Y-7243436D02*
X7846715Y-7224388D01*
X7846715Y-7224388D02*
X7846715Y-7167246D01*
X7846715Y-7167246D02*
X7856239Y-7148198D01*
X7856239Y-7148198D02*
X7865763Y-7138674D01*
X7865763Y-7138674D02*
X7884810Y-7129150D01*
X7884810Y-7129150D02*
X7913382Y-7129150D01*
X7913382Y-7129150D02*
X7932430Y-7138674D01*
X7932430Y-7138674D02*
X7941953Y-7148198D01*
X7941953Y-7148198D02*
X7951477Y-7167246D01*
X7951477Y-7167246D02*
X7951477Y-7224388D01*
X7951477Y-7224388D02*
X7941953Y-7243436D01*
X7941953Y-7243436D02*
X7932430Y-7252960D01*
X7932430Y-7252960D02*
X7913382Y-7262484D01*
X7913382Y-7262484D02*
X7884810Y-7262484D01*
X8065763Y-7262484D02*
X8046715Y-7252960D01*
X8046715Y-7252960D02*
X8037191Y-7233912D01*
X8037191Y-7233912D02*
X8037191Y-7062484D01*
X8218144Y-7252960D02*
X8199096Y-7262484D01*
X8199096Y-7262484D02*
X8161001Y-7262484D01*
X8161001Y-7262484D02*
X8141953Y-7252960D01*
X8141953Y-7252960D02*
X8132430Y-7233912D01*
X8132430Y-7233912D02*
X8132430Y-7157722D01*
X8132430Y-7157722D02*
X8141953Y-7138674D01*
X8141953Y-7138674D02*
X8161001Y-7129150D01*
X8161001Y-7129150D02*
X8199096Y-7129150D01*
X8199096Y-7129150D02*
X8218144Y-7138674D01*
X8218144Y-7138674D02*
X8227668Y-7157722D01*
X8227668Y-7157722D02*
X8227668Y-7176769D01*
X8227668Y-7176769D02*
X8132430Y-7195817D01*
X8303858Y-7252960D02*
X8322906Y-7262484D01*
X8322906Y-7262484D02*
X8361001Y-7262484D01*
X8361001Y-7262484D02*
X8380049Y-7252960D01*
X8380049Y-7252960D02*
X8389573Y-7233912D01*
X8389573Y-7233912D02*
X8389573Y-7224388D01*
X8389573Y-7224388D02*
X8380049Y-7205341D01*
X8380049Y-7205341D02*
X8361001Y-7195817D01*
X8361001Y-7195817D02*
X8332430Y-7195817D01*
X8332430Y-7195817D02*
X8313382Y-7186293D01*
X8313382Y-7186293D02*
X8303858Y-7167246D01*
X8303858Y-7167246D02*
X8303858Y-7157722D01*
X8303858Y-7157722D02*
X8313382Y-7138674D01*
X8313382Y-7138674D02*
X8332430Y-7129150D01*
X8332430Y-7129150D02*
X8361001Y-7129150D01*
X8361001Y-7129150D02*
X8380049Y-7138674D01*
X8456239Y-7338674D02*
X8465763Y-7329150D01*
X8465763Y-7329150D02*
X8484811Y-7300579D01*
X8484811Y-7300579D02*
X8494334Y-7281531D01*
X8494334Y-7281531D02*
X8503858Y-7252960D01*
X8503858Y-7252960D02*
X8513382Y-7205341D01*
X8513382Y-7205341D02*
X8513382Y-7167246D01*
X8513382Y-7167246D02*
X8503858Y-7119627D01*
X8503858Y-7119627D02*
X8494334Y-7091055D01*
X8494334Y-7091055D02*
X8484811Y-7072008D01*
X8484811Y-7072008D02*
X8465763Y-7043436D01*
X8465763Y-7043436D02*
X8456239Y-7033912D01*
X3461411Y-7505711D02*
X3461411Y-7364289D01*
X3319989Y-7364289D01*
X3319989Y-7505711D01*
X3461411Y-7505711D01*
X3732429Y-7326484D02*
X3856239Y-7326484D01*
X3856239Y-7326484D02*
X3789572Y-7402674D01*
X3789572Y-7402674D02*
X3818143Y-7402674D01*
X3818143Y-7402674D02*
X3837191Y-7412198D01*
X3837191Y-7412198D02*
X3846715Y-7421722D01*
X3846715Y-7421722D02*
X3856239Y-7440769D01*
X3856239Y-7440769D02*
X3856239Y-7488388D01*
X3856239Y-7488388D02*
X3846715Y-7507436D01*
X3846715Y-7507436D02*
X3837191Y-7516960D01*
X3837191Y-7516960D02*
X3818143Y-7526484D01*
X3818143Y-7526484D02*
X3761001Y-7526484D01*
X3761001Y-7526484D02*
X3741953Y-7516960D01*
X3741953Y-7516960D02*
X3732429Y-7507436D01*
X3941953Y-7507436D02*
X3951477Y-7516960D01*
X3951477Y-7516960D02*
X3941953Y-7526484D01*
X3941953Y-7526484D02*
X3932429Y-7516960D01*
X3932429Y-7516960D02*
X3941953Y-7507436D01*
X3941953Y-7507436D02*
X3941953Y-7526484D01*
X4075286Y-7326484D02*
X4094334Y-7326484D01*
X4094334Y-7326484D02*
X4113382Y-7336008D01*
X4113382Y-7336008D02*
X4122905Y-7345531D01*
X4122905Y-7345531D02*
X4132429Y-7364579D01*
X4132429Y-7364579D02*
X4141953Y-7402674D01*
X4141953Y-7402674D02*
X4141953Y-7450293D01*
X4141953Y-7450293D02*
X4132429Y-7488388D01*
X4132429Y-7488388D02*
X4122905Y-7507436D01*
X4122905Y-7507436D02*
X4113382Y-7516960D01*
X4113382Y-7516960D02*
X4094334Y-7526484D01*
X4094334Y-7526484D02*
X4075286Y-7526484D01*
X4075286Y-7526484D02*
X4056239Y-7516960D01*
X4056239Y-7516960D02*
X4046715Y-7507436D01*
X4046715Y-7507436D02*
X4037191Y-7488388D01*
X4037191Y-7488388D02*
X4027667Y-7450293D01*
X4027667Y-7450293D02*
X4027667Y-7402674D01*
X4027667Y-7402674D02*
X4037191Y-7364579D01*
X4037191Y-7364579D02*
X4046715Y-7345531D01*
X4046715Y-7345531D02*
X4056239Y-7336008D01*
X4056239Y-7336008D02*
X4075286Y-7326484D01*
X4265763Y-7326484D02*
X4284810Y-7326484D01*
X4284810Y-7326484D02*
X4303858Y-7336008D01*
X4303858Y-7336008D02*
X4313382Y-7345531D01*
X4313382Y-7345531D02*
X4322905Y-7364579D01*
X4322905Y-7364579D02*
X4332429Y-7402674D01*
X4332429Y-7402674D02*
X4332429Y-7450293D01*
X4332429Y-7450293D02*
X4322905Y-7488388D01*
X4322905Y-7488388D02*
X4313382Y-7507436D01*
X4313382Y-7507436D02*
X4303858Y-7516960D01*
X4303858Y-7516960D02*
X4284810Y-7526484D01*
X4284810Y-7526484D02*
X4265763Y-7526484D01*
X4265763Y-7526484D02*
X4246715Y-7516960D01*
X4246715Y-7516960D02*
X4237191Y-7507436D01*
X4237191Y-7507436D02*
X4227667Y-7488388D01*
X4227667Y-7488388D02*
X4218144Y-7450293D01*
X4218144Y-7450293D02*
X4218144Y-7402674D01*
X4218144Y-7402674D02*
X4227667Y-7364579D01*
X4227667Y-7364579D02*
X4237191Y-7345531D01*
X4237191Y-7345531D02*
X4246715Y-7336008D01*
X4246715Y-7336008D02*
X4265763Y-7326484D01*
X4456239Y-7326484D02*
X4475286Y-7326484D01*
X4475286Y-7326484D02*
X4494334Y-7336008D01*
X4494334Y-7336008D02*
X4503858Y-7345531D01*
X4503858Y-7345531D02*
X4513382Y-7364579D01*
X4513382Y-7364579D02*
X4522905Y-7402674D01*
X4522905Y-7402674D02*
X4522905Y-7450293D01*
X4522905Y-7450293D02*
X4513382Y-7488388D01*
X4513382Y-7488388D02*
X4503858Y-7507436D01*
X4503858Y-7507436D02*
X4494334Y-7516960D01*
X4494334Y-7516960D02*
X4475286Y-7526484D01*
X4475286Y-7526484D02*
X4456239Y-7526484D01*
X4456239Y-7526484D02*
X4437191Y-7516960D01*
X4437191Y-7516960D02*
X4427667Y-7507436D01*
X4427667Y-7507436D02*
X4418144Y-7488388D01*
X4418144Y-7488388D02*
X4408620Y-7450293D01*
X4408620Y-7450293D02*
X4408620Y-7402674D01*
X4408620Y-7402674D02*
X4418144Y-7364579D01*
X4418144Y-7364579D02*
X4427667Y-7345531D01*
X4427667Y-7345531D02*
X4437191Y-7336008D01*
X4437191Y-7336008D02*
X4456239Y-7326484D01*
X4608620Y-7526484D02*
X4608620Y-7393150D01*
X4608620Y-7412198D02*
X4618144Y-7402674D01*
X4618144Y-7402674D02*
X4637191Y-7393150D01*
X4637191Y-7393150D02*
X4665763Y-7393150D01*
X4665763Y-7393150D02*
X4684810Y-7402674D01*
X4684810Y-7402674D02*
X4694334Y-7421722D01*
X4694334Y-7421722D02*
X4694334Y-7526484D01*
X4694334Y-7421722D02*
X4703858Y-7402674D01*
X4703858Y-7402674D02*
X4722905Y-7393150D01*
X4722905Y-7393150D02*
X4751477Y-7393150D01*
X4751477Y-7393150D02*
X4770525Y-7402674D01*
X4770525Y-7402674D02*
X4780048Y-7421722D01*
X4780048Y-7421722D02*
X4780048Y-7526484D01*
X4875286Y-7526484D02*
X4875286Y-7393150D01*
X4875286Y-7412198D02*
X4884810Y-7402674D01*
X4884810Y-7402674D02*
X4903858Y-7393150D01*
X4903858Y-7393150D02*
X4932429Y-7393150D01*
X4932429Y-7393150D02*
X4951477Y-7402674D01*
X4951477Y-7402674D02*
X4961001Y-7421722D01*
X4961001Y-7421722D02*
X4961001Y-7526484D01*
X4961001Y-7421722D02*
X4970525Y-7402674D01*
X4970525Y-7402674D02*
X4989572Y-7393150D01*
X4989572Y-7393150D02*
X5018144Y-7393150D01*
X5018144Y-7393150D02*
X5037191Y-7402674D01*
X5037191Y-7402674D02*
X5046715Y-7421722D01*
X5046715Y-7421722D02*
X5046715Y-7526484D01*
X5437191Y-7316960D02*
X5265763Y-7574103D01*
X5694334Y-7326484D02*
X5713382Y-7326484D01*
X5713382Y-7326484D02*
X5732429Y-7336008D01*
X5732429Y-7336008D02*
X5741953Y-7345531D01*
X5741953Y-7345531D02*
X5751477Y-7364579D01*
X5751477Y-7364579D02*
X5761001Y-7402674D01*
X5761001Y-7402674D02*
X5761001Y-7450293D01*
X5761001Y-7450293D02*
X5751477Y-7488388D01*
X5751477Y-7488388D02*
X5741953Y-7507436D01*
X5741953Y-7507436D02*
X5732429Y-7516960D01*
X5732429Y-7516960D02*
X5713382Y-7526484D01*
X5713382Y-7526484D02*
X5694334Y-7526484D01*
X5694334Y-7526484D02*
X5675286Y-7516960D01*
X5675286Y-7516960D02*
X5665763Y-7507436D01*
X5665763Y-7507436D02*
X5656239Y-7488388D01*
X5656239Y-7488388D02*
X5646715Y-7450293D01*
X5646715Y-7450293D02*
X5646715Y-7402674D01*
X5646715Y-7402674D02*
X5656239Y-7364579D01*
X5656239Y-7364579D02*
X5665763Y-7345531D01*
X5665763Y-7345531D02*
X5675286Y-7336008D01*
X5675286Y-7336008D02*
X5694334Y-7326484D01*
X5846715Y-7507436D02*
X5856239Y-7516960D01*
X5856239Y-7516960D02*
X5846715Y-7526484D01*
X5846715Y-7526484D02*
X5837191Y-7516960D01*
X5837191Y-7516960D02*
X5846715Y-7507436D01*
X5846715Y-7507436D02*
X5846715Y-7526484D01*
X6046715Y-7526484D02*
X5932429Y-7526484D01*
X5989572Y-7526484D02*
X5989572Y-7326484D01*
X5989572Y-7326484D02*
X5970525Y-7355055D01*
X5970525Y-7355055D02*
X5951477Y-7374103D01*
X5951477Y-7374103D02*
X5932429Y-7383627D01*
X6237191Y-7526484D02*
X6122906Y-7526484D01*
X6180048Y-7526484D02*
X6180048Y-7326484D01*
X6180048Y-7326484D02*
X6161001Y-7355055D01*
X6161001Y-7355055D02*
X6141953Y-7374103D01*
X6141953Y-7374103D02*
X6122906Y-7383627D01*
X6351477Y-7412198D02*
X6332429Y-7402674D01*
X6332429Y-7402674D02*
X6322906Y-7393150D01*
X6322906Y-7393150D02*
X6313382Y-7374103D01*
X6313382Y-7374103D02*
X6313382Y-7364579D01*
X6313382Y-7364579D02*
X6322906Y-7345531D01*
X6322906Y-7345531D02*
X6332429Y-7336008D01*
X6332429Y-7336008D02*
X6351477Y-7326484D01*
X6351477Y-7326484D02*
X6389572Y-7326484D01*
X6389572Y-7326484D02*
X6408620Y-7336008D01*
X6408620Y-7336008D02*
X6418144Y-7345531D01*
X6418144Y-7345531D02*
X6427667Y-7364579D01*
X6427667Y-7364579D02*
X6427667Y-7374103D01*
X6427667Y-7374103D02*
X6418144Y-7393150D01*
X6418144Y-7393150D02*
X6408620Y-7402674D01*
X6408620Y-7402674D02*
X6389572Y-7412198D01*
X6389572Y-7412198D02*
X6351477Y-7412198D01*
X6351477Y-7412198D02*
X6332429Y-7421722D01*
X6332429Y-7421722D02*
X6322906Y-7431246D01*
X6322906Y-7431246D02*
X6313382Y-7450293D01*
X6313382Y-7450293D02*
X6313382Y-7488388D01*
X6313382Y-7488388D02*
X6322906Y-7507436D01*
X6322906Y-7507436D02*
X6332429Y-7516960D01*
X6332429Y-7516960D02*
X6351477Y-7526484D01*
X6351477Y-7526484D02*
X6389572Y-7526484D01*
X6389572Y-7526484D02*
X6408620Y-7516960D01*
X6408620Y-7516960D02*
X6418144Y-7507436D01*
X6418144Y-7507436D02*
X6427667Y-7488388D01*
X6427667Y-7488388D02*
X6427667Y-7450293D01*
X6427667Y-7450293D02*
X6418144Y-7431246D01*
X6418144Y-7431246D02*
X6408620Y-7421722D01*
X6408620Y-7421722D02*
X6389572Y-7412198D01*
X6618144Y-7526484D02*
X6503858Y-7526484D01*
X6561001Y-7526484D02*
X6561001Y-7326484D01*
X6561001Y-7326484D02*
X6541953Y-7355055D01*
X6541953Y-7355055D02*
X6522906Y-7374103D01*
X6522906Y-7374103D02*
X6503858Y-7383627D01*
X6694334Y-7326484D02*
X6694334Y-7364579D01*
X6770525Y-7326484D02*
X6770525Y-7364579D01*
X7065763Y-7602674D02*
X7056239Y-7593150D01*
X7056239Y-7593150D02*
X7037191Y-7564579D01*
X7037191Y-7564579D02*
X7027668Y-7545531D01*
X7027668Y-7545531D02*
X7018144Y-7516960D01*
X7018144Y-7516960D02*
X7008620Y-7469341D01*
X7008620Y-7469341D02*
X7008620Y-7431246D01*
X7008620Y-7431246D02*
X7018144Y-7383627D01*
X7018144Y-7383627D02*
X7027668Y-7355055D01*
X7027668Y-7355055D02*
X7037191Y-7336008D01*
X7037191Y-7336008D02*
X7056239Y-7307436D01*
X7056239Y-7307436D02*
X7065763Y-7297912D01*
X7132429Y-7345531D02*
X7141953Y-7336008D01*
X7141953Y-7336008D02*
X7161001Y-7326484D01*
X7161001Y-7326484D02*
X7208620Y-7326484D01*
X7208620Y-7326484D02*
X7227668Y-7336008D01*
X7227668Y-7336008D02*
X7237191Y-7345531D01*
X7237191Y-7345531D02*
X7246715Y-7364579D01*
X7246715Y-7364579D02*
X7246715Y-7383627D01*
X7246715Y-7383627D02*
X7237191Y-7412198D01*
X7237191Y-7412198D02*
X7122906Y-7526484D01*
X7122906Y-7526484D02*
X7246715Y-7526484D01*
X7484810Y-7526484D02*
X7484810Y-7326484D01*
X7570525Y-7526484D02*
X7570525Y-7421722D01*
X7570525Y-7421722D02*
X7561001Y-7402674D01*
X7561001Y-7402674D02*
X7541953Y-7393150D01*
X7541953Y-7393150D02*
X7513382Y-7393150D01*
X7513382Y-7393150D02*
X7494334Y-7402674D01*
X7494334Y-7402674D02*
X7484810Y-7412198D01*
X7694334Y-7526484D02*
X7675287Y-7516960D01*
X7675287Y-7516960D02*
X7665763Y-7507436D01*
X7665763Y-7507436D02*
X7656239Y-7488388D01*
X7656239Y-7488388D02*
X7656239Y-7431246D01*
X7656239Y-7431246D02*
X7665763Y-7412198D01*
X7665763Y-7412198D02*
X7675287Y-7402674D01*
X7675287Y-7402674D02*
X7694334Y-7393150D01*
X7694334Y-7393150D02*
X7722906Y-7393150D01*
X7722906Y-7393150D02*
X7741953Y-7402674D01*
X7741953Y-7402674D02*
X7751477Y-7412198D01*
X7751477Y-7412198D02*
X7761001Y-7431246D01*
X7761001Y-7431246D02*
X7761001Y-7488388D01*
X7761001Y-7488388D02*
X7751477Y-7507436D01*
X7751477Y-7507436D02*
X7741953Y-7516960D01*
X7741953Y-7516960D02*
X7722906Y-7526484D01*
X7722906Y-7526484D02*
X7694334Y-7526484D01*
X7875287Y-7526484D02*
X7856239Y-7516960D01*
X7856239Y-7516960D02*
X7846715Y-7497912D01*
X7846715Y-7497912D02*
X7846715Y-7326484D01*
X8027668Y-7516960D02*
X8008620Y-7526484D01*
X8008620Y-7526484D02*
X7970525Y-7526484D01*
X7970525Y-7526484D02*
X7951477Y-7516960D01*
X7951477Y-7516960D02*
X7941953Y-7497912D01*
X7941953Y-7497912D02*
X7941953Y-7421722D01*
X7941953Y-7421722D02*
X7951477Y-7402674D01*
X7951477Y-7402674D02*
X7970525Y-7393150D01*
X7970525Y-7393150D02*
X8008620Y-7393150D01*
X8008620Y-7393150D02*
X8027668Y-7402674D01*
X8027668Y-7402674D02*
X8037191Y-7421722D01*
X8037191Y-7421722D02*
X8037191Y-7440769D01*
X8037191Y-7440769D02*
X7941953Y-7459817D01*
X8113382Y-7516960D02*
X8132430Y-7526484D01*
X8132430Y-7526484D02*
X8170525Y-7526484D01*
X8170525Y-7526484D02*
X8189572Y-7516960D01*
X8189572Y-7516960D02*
X8199096Y-7497912D01*
X8199096Y-7497912D02*
X8199096Y-7488388D01*
X8199096Y-7488388D02*
X8189572Y-7469341D01*
X8189572Y-7469341D02*
X8170525Y-7459817D01*
X8170525Y-7459817D02*
X8141953Y-7459817D01*
X8141953Y-7459817D02*
X8122906Y-7450293D01*
X8122906Y-7450293D02*
X8113382Y-7431246D01*
X8113382Y-7431246D02*
X8113382Y-7421722D01*
X8113382Y-7421722D02*
X8122906Y-7402674D01*
X8122906Y-7402674D02*
X8141953Y-7393150D01*
X8141953Y-7393150D02*
X8170525Y-7393150D01*
X8170525Y-7393150D02*
X8189572Y-7402674D01*
X8265763Y-7602674D02*
X8275287Y-7593150D01*
X8275287Y-7593150D02*
X8294334Y-7564579D01*
X8294334Y-7564579D02*
X8303858Y-7545531D01*
X8303858Y-7545531D02*
X8313382Y-7516960D01*
X8313382Y-7516960D02*
X8322906Y-7469341D01*
X8322906Y-7469341D02*
X8322906Y-7431246D01*
X8322906Y-7431246D02*
X8313382Y-7383627D01*
X8313382Y-7383627D02*
X8303858Y-7355055D01*
X8303858Y-7355055D02*
X8294334Y-7336008D01*
X8294334Y-7336008D02*
X8275287Y-7307436D01*
X8275287Y-7307436D02*
X8265763Y-7297912D01*
M02*
